<?xml version="1.0" encoding="utf-8"?>
<!-- Generator: Adobe Illustrator 24.0.1, SVG Export Plug-In . SVG Version: 6.00 Build 0)  -->
<svg version="1.1" id="Capa_1" xmlns="http://www.w3.org/2000/svg" xmlns:xlink="http://www.w3.org/1999/xlink" x="0px" y="0px"
	 viewBox="0 0 863.69 1059.55" style="enable-background:new 0 0 863.69 1059.55;" xml:space="preserve">
<style type="text/css">
	.st0{display:none;}
	.st1{display:inline;fill:none;stroke:#000000;stroke-width:3;stroke-miterlimit:10;}
	.st2{fill:#FFFFFF;}
</style>
<g class="st0">
	<line class="st1" x1="-1071.6" y1="124.47" x2="-1112.95" y2="139.52"/>
	<line class="st1" x1="-1086.28" y1="92.98" x2="-1124.39" y2="114.98"/>
	<line class="st1" x1="-1106.22" y1="64.52" x2="-1139.92" y2="92.8"/>
	<line class="st1" x1="-1130.79" y1="39.94" x2="-1159.07" y2="73.65"/>
	<line class="st1" x1="-1159.25" y1="20.01" x2="-1181.25" y2="58.12"/>
	<line class="st1" x1="-1190.74" y1="5.33" x2="-1205.79" y2="46.67"/>
	<line class="st1" x1="-1224.31" y1="-3.67" x2="-1231.95" y2="39.67"/>
	<line class="st1" x1="-1258.93" y1="-6.69" x2="-1258.93" y2="37.31"/>
	<line class="st1" x1="-1293.54" y1="-3.67" x2="-1285.9" y2="39.67"/>
	<line class="st1" x1="-1327.11" y1="5.33" x2="-1312.06" y2="46.67"/>
	<line class="st1" x1="-1358.6" y1="20.01" x2="-1336.6" y2="58.12"/>
	<line class="st1" x1="-1387.07" y1="39.94" x2="-1358.78" y2="73.65"/>
	<line class="st1" x1="-1411.64" y1="64.52" x2="-1377.93" y2="92.8"/>
	<line class="st1" x1="-1431.57" y1="92.98" x2="-1393.46" y2="114.98"/>
	<line class="st1" x1="-1446.25" y1="124.47" x2="-1404.91" y2="139.52"/>
</g>
<g>
	<path class="st2" d="M861.88,406.18c-1.41-14.08-3.39-27.71-6.07-40.75c-10.71-52.3-30.83-94.91-51.32-126.63
		c-20.68-31.79-41.38-53.15-56.15-66.56c-7.35-6.73-13.39-11.62-17.42-14.71c-4.03-3.14-6.19-4.68-6.19-4.68l-2.67,2.6
		c0,0,1.48,2.2,4.51,6.31c1.54,2.05,3.31,4.65,5.41,7.71c2.14,3.01,4.58,6.57,7.31,10.59c10.71,16.22,25.92,40.14,40.92,72.22
		c14.97,32.03,29.58,72.39,37.84,120.27c2.05,11.96,3.8,24.36,4.87,37.21c1.18,12.83,1.77,26.08,1.65,39.69
		c-0.31,27.19-3.1,55.82-9.67,84.96c-6.49,29.14-16.32,58.89-30.39,87.94c-14.13,29-32.2,57.37-54.27,83.83
		c-22.14,26.4-48.34,50.78-78.06,71.71c-29.73,20.92-63.13,38.23-99.08,50.66c-71.77,25.05-154.26,29.57-232.53,8.78
		c-39.03-10.42-77.07-26.6-111.66-48.77c-34.64-22.08-65.8-49.81-92.74-81.18c-26.76-31.53-49.21-66.72-66.31-104.16
		c-17.06-37.46-28.3-77.31-33.64-117.49c-5.31-40.21-4.01-80.8,3.09-119.67c7.16-38.89,20.49-75.95,38.55-109.6
		c18.04-33.69,40.73-63.98,66.25-90.33c25.58-26.46,53.41-49.29,82.88-67.9c29.35-18.7,59.97-33.46,90.84-44.09
		c30.9-10.51,61.79-17.53,91.85-21.03c30.06-3.57,59.2-3.63,86.7-1.47c27.51,2.16,53.4,6.65,77.32,12.55
		c23.95,5.88,45.81,13.49,65.67,21.46c19.81,8.13,37.36,17.17,52.89,25.97c7.74,4.44,14.94,8.9,21.57,13.32
		c6.66,4.37,12.88,8.57,18.47,12.74c11.22,8.3,20.46,15.85,27.8,22.18c7.22,6.45,12.77,11.47,16.36,15.01
		c3.63,3.51,5.51,5.32,5.51,5.32l2.87-2.38c0,0-1.51-2.16-4.44-6.35c-3-4.14-7.5-10.28-13.9-17.88
		c-6.43-7.57-14.65-16.74-25.2-26.66c-10.47-10-23.21-20.86-38.51-31.68c-7.62-5.45-15.83-10.96-24.74-16.28
		c-8.93-5.26-18.45-10.5-28.59-15.58c-10.15-5.05-20.93-9.88-32.36-14.31c-11.39-4.52-23.44-8.6-36.06-12.22
		c-25.22-7.3-52.8-12.72-82.2-15.27c-29.39-2.56-60.59-2.12-92.74,1.75c-32.13,3.92-65.29,11.29-98.06,23.37
		c-32.76,12.02-65.24,28.25-95.93,48.91c-30.63,20.66-59.48,45.83-85.37,74.4C80.89,178.8,58.2,211.62,40.6,247.68
		C22.93,283.7,10.61,323,4.52,363.62c-6.23,40.62-5.92,82.54,0.34,123.74c6.15,41.25,18.78,81.67,36.43,119.8
		c17.59,38.19,40.66,73.97,67.99,106.07c53.75,65.04,127.3,113.77,207.53,137.41c40.1,11.76,81.61,18.03,122.83,17.92
		c41.19-0.08,82.01-5.9,120.66-17.31c38.67-11.34,75.12-28.18,108.03-49.14c33-20.89,62.12-46.25,87.15-73.91
		c12.54-13.83,23.93-28.39,34.31-43.32c10.26-15.02,19.35-30.51,27.43-46.18c16.01-31.43,27.83-63.72,35.24-95.65
		c7.53-31.91,10.96-63.35,11.2-93.23C863.81,434.84,863.17,420.28,861.88,406.18z"/>
	<path class="st2" d="M793.17,371.53c-0.42-2.32-0.88-4.84-1.38-7.57c-0.5-2.73-1.04-5.67-1.62-8.8c-0.71-3.1-1.47-6.4-2.28-9.89
		c-0.4-1.74-0.81-3.53-1.24-5.37c-0.41-1.84-1-3.68-1.52-5.59c-1.07-3.81-2.2-7.79-3.37-11.95c-1.36-4.1-2.77-8.36-4.24-12.79
		c-0.37-1.11-0.74-2.22-1.12-3.35c-0.42-1.11-0.85-2.23-1.28-3.35c-0.86-2.26-1.74-4.55-2.63-6.88
		c-7.28-18.59-17.02-39.03-29.94-60.02c-3.09-5.34-6.76-10.45-10.28-15.81c-1.73-2.7-3.7-5.27-5.63-7.91
		c-1.93-2.63-3.89-5.29-5.85-7.97c-2.09-2.59-4.19-5.2-6.31-7.84c-2.15-2.61-4.21-5.33-6.54-7.86c-4.56-5.14-9.1-10.45-14.11-15.45
		c-9.69-10.32-20.55-20.04-31.91-29.65c-5.86-4.58-11.61-9.44-17.86-13.78c-3.1-2.2-6.13-4.53-9.32-6.65
		c-3.2-2.11-6.42-4.23-9.66-6.36c-13.09-8.25-26.76-16.14-41.24-22.86l-5.4-2.6c-1.8-0.87-3.67-1.59-5.51-2.4
		c-3.69-1.57-7.4-3.15-11.11-4.73c-7.58-2.76-15.1-5.86-22.91-8.21l-5.83-1.88c-1.94-0.63-3.89-1.27-5.87-1.78
		c-3.95-1.08-7.91-2.16-11.87-3.24c-1.97-0.58-3.98-1.02-5.99-1.45l-6.03-1.33c-4.02-0.89-8.04-1.82-12.13-2.45
		c-4.07-0.7-8.14-1.41-12.22-2.11l-12.32-1.56c-2.06-0.24-4.1-0.54-6.18-0.74l-6.26-0.49c-4.16-0.3-8.4-0.72-12.5-0.9l-12.18-0.39
		l-3.05-0.1l-0.76-0.02l-0.57-0.01l-0.39,0.01l-1.56,0.02l-6.23,0.09c-8.31-0.03-16.59,0.64-24.86,1.15
		c-16.51,1.43-32.85,4-48.87,7.48c-16.01,3.52-31.6,8.29-46.72,13.71c-3.76,1.43-7.5,2.86-11.23,4.28
		c-3.69,1.51-7.33,3.13-10.98,4.68c-3.67,1.51-7.22,3.24-10.77,4.95c-3.53,1.75-7.14,3.3-10.55,5.21c-3.45,1.84-6.88,3.66-10.3,5.48
		c-3.39,1.88-6.68,3.88-10,5.81c-1.65,0.97-3.3,1.95-4.95,2.92c-1.61,1.03-3.21,2.06-4.81,3.09c-3.18,2.08-6.41,4.05-9.51,6.18
		c-6.15,4.33-12.32,8.51-18.09,13.07c-5.92,4.37-11.46,9.07-16.96,13.67c-21.74,18.7-40.2,38.75-55.48,58.56
		c-3.79,4.97-7.36,9.96-10.88,14.8c-3.32,4.98-6.62,9.81-9.67,14.63c-2.94,4.89-5.93,9.57-8.59,14.26
		c-2.6,4.73-5.23,9.27-7.57,13.77c-9.46,17.99-16.08,34.46-21.03,48.14c-1.2,3.44-2.33,6.69-3.4,9.75
		c-1.08,3.05-1.88,6.05-2.74,8.77c-0.83,2.73-1.59,5.26-2.3,7.58c-0.75,2.33-1.14,4.35-1.64,6.21c-1.85,7.39-2.84,11.34-2.84,11.34
		l16.89,4.66c0,0,1.17-3.89,3.37-11.19c0.57-1.79,1.13-3.93,1.87-6.04c0.73-2.14,1.52-4.48,2.37-7.01c0.89-2.52,1.7-5.24,2.82-8.13
		c1.11-2.89,2.29-5.95,3.53-9.2c1.19-3.26,2.65-6.62,4.18-10.13c0.76-1.76,1.53-3.56,2.33-5.4c0.78-1.85,1.59-3.73,2.51-5.6
		c1.79-3.78,3.64-7.71,5.57-11.79c2.09-4,4.25-8.14,6.49-12.42c9.18-16.98,20.75-35.5,35.23-54.32c7.32-9.34,15.18-18.9,23.96-28.22
		c8.61-9.47,18.21-18.61,28.36-27.65c5.19-4.39,10.36-8.97,15.91-13.2c5.4-4.43,11.19-8.49,16.96-12.7c2.91-2.08,5.94-4,8.93-6.02
		c1.5-1,3.01-2.01,4.52-3.01c1.55-0.95,3.1-1.9,4.65-2.85c3.12-1.88,6.22-3.84,9.41-5.68c3.22-1.78,6.46-3.57,9.7-5.37
		c3.21-1.87,6.62-3.4,9.95-5.12c3.34-1.69,6.69-3.39,10.16-4.88c3.45-1.53,6.88-3.13,10.37-4.63c3.53-1.41,7.07-2.83,10.62-4.25
		c14.3-5.4,29.06-10.19,44.26-13.8c15.2-3.56,30.73-6.28,46.47-7.91c7.88-0.6,15.78-1.39,23.71-1.49l5.95-0.19l1.49-0.05l0.37-0.01
		c0.16-0.01-0.1-0.01,0.19,0l0.76,0.01l3.05,0.05l12.19,0.18c4.02,0.12,7.88,0.46,11.83,0.67l5.89,0.36
		c1.97,0.16,3.95,0.41,5.93,0.62l11.85,1.3c3.93,0.61,7.85,1.22,11.77,1.83c15.63,2.69,31.11,6.08,46.1,10.74
		c7.58,2.08,14.88,4.91,22.25,7.4c3.61,1.44,7.22,2.89,10.82,4.32c1.79,0.74,3.61,1.4,5.37,2.19l5.27,2.39
		c14.13,6.17,27.52,13.5,40.38,21.21c3.18,1.99,6.34,3.97,9.5,5.95c3.14,1.99,6.13,4.18,9.18,6.25c6.16,4.06,11.84,8.67,17.64,12.98
		c11.23,9.09,22.02,18.3,31.68,28.14c5,4.76,9.52,9.84,14.09,14.74c2.33,2.41,4.4,5.02,6.55,7.52c2.13,2.52,4.25,5.02,6.34,7.5
		c2,2.56,3.97,5.1,5.93,7.62c1.95,2.53,3.95,4.98,5.72,7.58c3.58,5.14,7.33,10.05,10.49,15.19c13.23,20.18,23.36,39.98,31.03,58.06
		c0.94,2.27,1.87,4.5,2.78,6.7c0.46,1.1,0.91,2.19,1.36,3.27c0.4,1.1,0.8,2.19,1.19,3.26c1.57,4.32,3.08,8.48,4.53,12.48
		c2.48,8.14,5.04,15.54,6.71,22.42c0.91,3.42,1.76,6.65,2.57,9.7c0.67,3.08,1.3,5.96,1.88,8.65c0.58,2.69,1.12,5.17,1.61,7.45
		c0.46,2.28,0.76,4.38,1.09,6.25c1.26,7.48,1.93,11.47,1.93,11.47l2.98-0.38c0,0-0.54-4.04-1.57-11.63
		C793.79,375.97,793.56,373.84,793.17,371.53z"/>
	<path class="st2" d="M62.37,445.75l-17.52,0.41c0.03,1.19,0.06,2.37,0.1,3.56c0.37,11.63,1.29,23.35,2.71,34.85l17.39-2.16
		c-1.36-10.97-2.23-22.16-2.59-33.25C62.43,448.03,62.4,446.89,62.37,445.75z"/>
	<path class="st2" d="M124.91,685.33c1.29,2.03,2.84,4.1,4.63,6.19c1.8,2.08,3.78,4.23,5.83,6.53c4,4.7,9.01,9.37,14.25,14.65
		c5.16,5.36,11.35,10.51,17.79,16.18c1.62,1.41,3.26,2.84,4.93,4.29c1.76,1.35,3.54,2.72,5.34,4.11c3.62,2.77,7.33,5.62,11.15,8.55
		c3.87,2.85,8.03,5.51,12.2,8.34c2.09,1.4,4.21,2.82,6.35,4.25c2.13,1.45,4.44,2.68,6.69,4.05c4.55,2.64,9.19,5.34,13.92,8.09
		c4.88,2.47,9.85,4.98,14.91,7.53c4.98,2.67,10.35,4.81,15.68,7.16c2.68,1.14,5.38,2.3,8.1,3.46c1.35,0.61,2.74,1.13,4.15,1.62
		c1.4,0.5,2.81,1.01,4.22,1.52c2.82,1.01,5.66,2.03,8.52,3.05c2.87,0.98,5.69,2.15,8.66,2.94c5.88,1.72,11.84,3.46,17.86,5.23
		c6.07,1.56,12.27,2.86,18.48,4.31c1.55,0.35,3.11,0.71,4.67,1.06c1.57,0.3,3.16,0.54,4.75,0.81c3.17,0.53,6.36,1.06,9.56,1.59
		c25.45,4.17,52.65,5.77,79.24,4.96c26.94-1.04,54.14-4.56,80.69-10.76c3.32-0.75,6.61-1.67,9.91-2.5c3.29-0.89,6.62-1.61,9.86-2.67
		c6.5-2.02,13.05-3.85,19.4-6.24c3.19-1.14,6.39-2.27,9.57-3.41c3.15-1.24,6.29-2.47,9.43-3.71l4.71-1.85l4.62-2.04
		c3.07-1.37,6.14-2.73,9.2-4.09c3.05-1.39,6.01-2.95,9.01-4.41l4.48-2.22c1.51-0.71,2.98-1.48,4.43-2.28
		c5.83-3.19,11.72-6.19,17.3-9.67c2.82-1.69,5.63-3.37,8.43-5.05c2.73-1.79,5.46-3.57,8.17-5.35c5.52-3.42,10.66-7.31,15.91-10.97
		c20.69-15.04,39.13-31.74,55.15-48.95c16.04-17.21,29.56-35.03,40.69-52.35c11.17-17.31,19.79-34.18,26.71-49.45
		c1.63-3.86,3.2-7.6,4.72-11.21c0.38-0.9,0.75-1.8,1.12-2.69c0.33-0.9,0.66-1.8,0.99-2.68c0.65-1.77,1.29-3.51,1.91-5.21
		c1.21-3.42,2.54-6.64,3.5-9.83c1.01-3.17,1.97-6.19,2.89-9.06c0.46-1.44,0.9-2.83,1.33-4.19c0.38-1.39,0.75-2.74,1.11-4.04
		c0.71-2.62,1.37-5.07,1.99-7.36c1.32-4.61,2.07-8.38,2.75-11.46c1.35-6.16,2.07-9.44,2.07-9.44l-17.12-3.73
		c0,0-0.71,3.29-2.05,9.45c-0.33,1.54-0.71,3.26-1.12,5.15c-0.39,1.93-0.98,3.81-1.5,5.97c-0.55,2.13-1.14,4.43-1.77,6.88
		c-0.32,1.22-0.65,2.49-0.98,3.79c-0.4,1.3-0.8,2.64-1.22,4.01c-0.84,2.75-1.72,5.65-2.65,8.68c-0.87,3.06-2.11,6.14-3.23,9.43
		c-0.58,1.63-1.17,3.3-1.77,5c-0.3,0.85-0.6,1.71-0.91,2.57c-0.34,0.85-0.69,1.71-1.04,2.58c-1.39,3.48-2.82,7.08-4.3,10.8
		c-6.23,14.76-14.25,31.02-24.39,47.99c-10.15,16.95-22.57,34.52-37.39,51.74c-1.87,2.14-3.67,4.36-5.64,6.47
		c-1.97,2.1-3.95,4.22-5.94,6.35c-3.9,4.34-8.25,8.35-12.48,12.57c-2.09,2.14-4.36,4.1-6.6,6.14c-2.24,2.02-4.5,4.06-6.76,6.1
		c-2.35,1.94-4.72,3.9-7.09,5.86c-2.4,1.93-4.71,4-7.23,5.82c-4.99,3.7-9.89,7.64-15.16,11.13c-2.61,1.78-5.23,3.57-7.86,5.36
		c-2.7,1.68-5.41,3.37-8.13,5.06c-5.38,3.48-11.08,6.5-16.71,9.71c-2.79,1.66-5.75,3-8.65,4.48c-2.93,1.43-5.81,2.95-8.79,4.31
		c-23.71,11.05-49.07,19.52-75.03,25.06c-26.01,5.3-52.57,7.67-78.59,6.96c-26.38-0.87-51.26-4.74-75.19-10.75
		c-2.97-0.79-5.92-1.58-8.86-2.36c-1.47-0.4-2.94-0.76-4.39-1.19c-1.44-0.48-2.87-0.96-4.3-1.43c-5.71-1.94-11.39-3.7-16.92-5.7
		c-5.46-2.18-10.86-4.34-16.19-6.47c-2.69-0.98-5.22-2.34-7.8-3.51c-2.56-1.2-5.1-2.4-7.63-3.58c-1.26-0.59-2.52-1.18-3.77-1.77
		c-1.26-0.57-2.5-1.17-3.69-1.86c-2.42-1.31-4.81-2.61-7.19-3.9c-4.75-2.58-9.52-4.92-13.92-7.78c-4.45-2.72-8.83-5.4-13.13-8.03
		c-4.14-2.87-8.19-5.68-12.17-8.43c-1.97-1.39-4.01-2.64-5.87-4.1c-1.87-1.44-3.72-2.87-5.55-4.28c-1.83-1.41-3.63-2.8-5.42-4.17
		c-1.77-1.39-3.61-2.64-5.26-4.09c-3.34-2.85-6.59-5.63-9.74-8.33c-1.58-1.35-3.14-2.67-4.67-3.98c-1.47-1.38-2.91-2.75-4.33-4.09
		c-5.67-5.38-11.08-10.28-15.61-15.31c-4.63-4.91-9.08-9.23-12.6-13.61c-1.82-2.12-3.52-4.16-5.17-6.02
		c-1.67-1.85-3.37-3.47-5.07-4.89c-3.2-3-6.45-5.16-9.35-6.74c-5.83-3.14-10.37-3.9-10.37-3.9l-14.12,10.38
		c0,0-0.41,4.54,1.52,11.34C120.95,677.15,122.49,681.11,124.91,685.33z"/>
	<path class="st2" d="M416.86,617.41l0.23-0.03l0.93-0.1c0.26-0.02,0.2,0.01,0.32-0.01c0.07-0.04,0.5-0.02,0.89,0
		c0.37-0.01,0.83,0.1,1.25,0.13c0.88,0.13,1.82,0.34,2.79,0.6c3.91,1.1,8.11,3,12.17,5.16c8.17,4.36,16.02,9.72,23.43,15.11
		c14.83,10.89,28.07,22.17,39.23,32.01c11.15,9.87,20.22,18.38,26.51,24.4c6.29,6.02,9.81,9.54,9.81,9.54l1.3-1.18
		c0,0-3.18-3.85-8.9-10.45c-5.72-6.6-13.98-15.96-24.24-26.91c-10.28-10.93-22.49-23.51-36.67-36.13
		c-7.13-6.28-14.7-12.6-23.34-18.33c-4.35-2.85-8.94-5.57-14.41-7.71c-1.38-0.52-2.83-1-4.38-1.4c-0.81-0.17-1.55-0.4-2.42-0.51
		c-0.84-0.13-1.64-0.28-2.82-0.32c-0.5-0.03-1.18-0.05-1.54-0.05l-0.93,0.01l-0.23,0l-0.12,0c0.06-0.01-0.9,0.08-0.59,0.05
		l-0.77,0.1l-1.53,0.25c-1.9,0.43-3.67,1.02-5.2,1.72c-6.15,2.82-10.46,6.46-14.54,10.1c-4.05,3.67-7.64,7.5-11.06,11.36
		c-6.81,7.73-12.84,15.63-18.47,23.38c-11.22,15.51-20.74,30.43-28.71,43.32c-7.95,12.9-14.29,23.81-18.67,31.49
		c-2.18,3.86-3.89,6.9-5.05,8.97c-1.17,2.12-1.79,3.25-1.79,3.25l28.45,13.83c0,0,0.48-1.1,1.37-3.16c0.93-2.1,2.3-5.17,4.05-9.09
		c3.54-7.83,8.7-19,15.22-32.22c6.54-13.2,14.41-28.5,23.66-44.21c4.64-7.83,9.62-15.8,15.1-23.33c2.74-3.75,5.6-7.42,8.61-10.72
		c2.96-3.28,6.26-6.3,9.06-7.92c0.69-0.42,1.28-0.65,1.78-0.87c0.11-0.03,0.2-0.05,0.31-0.09l0.15-0.06
		c0.39-0.04-0.5,0.03-0.36,0.02L416.86,617.41z"/>
	<path class="st2" d="M544.28,585.33c0.19,0.01,0.45,0.07,0.71,0.12c2.22,0.52,5,1.81,7.6,3.18c2.64,1.39,5.28,2.94,7.9,4.56
		c10.47,6.54,20.6,13.92,29.99,20.93c9.39,7.04,18.02,13.8,25.38,19.66c14.71,11.72,24.31,19.8,24.31,19.8l1.16-1.31
		c0,0-9.13-8.63-23.18-21.21c-7.03-6.28-15.29-13.56-24.31-21.17c-9.05-7.59-18.78-15.59-29.21-22.97
		c-2.62-1.84-5.29-3.63-8.09-5.31c-1.4-0.84-2.83-1.66-4.36-2.42c-1.53-0.76-3.09-1.48-5.01-2.05c-0.48-0.14-0.97-0.27-1.55-0.37
		c-0.32-0.05-0.46-0.11-0.93-0.14c-0.41-0.03-0.83-0.05-1.25-0.04c-0.4,0.01-0.44,0.03-0.68,0.04l-0.14,0.01l-0.07,0.01
		c-0.78,0.12-0.28,0.05-0.47,0.08l-0.42,0.1c-0.55,0.14-1.12,0.28-1.63,0.45c-1.89,0.71-3.53,1.55-4.95,2.44
		c-2.9,1.78-5.39,3.7-7.79,5.64c-4.74,3.9-8.97,7.87-12.89,11.71c-3.92,3.84-7.51,7.55-10.79,11.01c-6.54,6.92-11.8,12.83-15.46,17
		c-3.64,4.21-5.72,6.62-5.72,6.62l10.37,8.27c0,0,1.89-2.45,5.19-6.75c3.35-4.29,8.18-10.39,14.17-17.51
		c3-3.56,6.29-7.37,9.86-11.29c3.56-3.92,7.41-7.96,11.56-11.79c2.07-1.88,4.23-3.74,6.42-5.25c1.09-0.8,2.17-1.37,3.11-1.82
		l0.57-0.2l0.14-0.06c-0.04,0-0.03,0-0.02,0c0.16-0.02,0.38-0.05,0.36-0.04c-0.02,0.02-0.05,0.01-0.07,0.01
		C544.15,585.32,544.24,585.33,544.28,585.33z"/>
	<path class="st2" d="M544.07,585.32c0.01,0,0.02-0.01,0.03,0C544.06,585.31,544.03,585.3,544.07,585.32z"/>
	<polygon class="st2" points="637.45,569.52 637.45,569.52 637.45,569.52 	"/>
	<path class="st2" d="M653.21,579.96c2.82,2.35,5.65,4.65,8.31,6.98c5.32,4.66,10.29,9.08,14.51,12.91
		c8.48,7.67,14.14,12.78,14.14,12.78l1.31-1.16c0,0-1.1-1.58-3.12-4.26c-1-1.35-2.24-2.96-3.69-4.79c-1.45-1.83-3.06-3.92-4.91-6.12
		c-1.86-2.2-3.87-4.58-5.99-7.1c-2.15-2.51-4.51-5.07-6.96-7.72c-2.47-2.63-5.02-5.39-7.8-8.02c-2.77-2.65-5.65-5.3-8.8-7.84
		c-1.59-1.26-3.22-2.5-5.09-3.67c-0.9-0.58-1.97-1.13-3.06-1.65c-0.6-0.25-1.28-0.49-1.92-0.71c-0.8-0.26-2.27-0.45-3.25-0.46
		l-0.7,0.04l-0.18,0.01l-0.09,0c0.68-0.12-0.97,0.16-0.83,0.14l-0.07,0.02l-0.58,0.17c-0.37,0.12-0.79,0.24-1.12,0.38l-0.94,0.42
		c-1.22,0.58-2.2,1.2-3.13,1.83c-1.82,1.27-3.34,2.58-4.79,3.89c-2.85,2.62-5.32,5.24-7.55,7.8c-2.24,2.55-4.26,4.99-6.09,7.27
		c-3.62,4.58-6.47,8.49-8.45,11.25c-1.17,1.25-1.06,2.96-0.45,4.48c0.26,0.73,0.64,1.41,0.93,1.89c0.34,0.52,0.52,0.78,0.52,0.78
		l1.45,0.98c0,0,0.31,0.07,0.92,0.21c0.55,0.1,1.31,0.21,2.08,0.21c1.62,0.05,3.23-0.38,3.99-1.85c1.89-2.67,4.63-6.48,8.04-10.9
		c1.69-2.22,3.56-4.59,5.59-7.01c2.03-2.41,4.2-4.92,6.52-7.22c1.15-1.14,2.36-2.24,3.52-3.12c0.57-0.43,1.14-0.83,1.58-1.07
		l0.32-0.18c0.05-0.02,0.08-0.04,0.11-0.04c-0.02,0-0.04,0-0.06-0.01c-0.01,0-0.01-0.01-0.02-0.01l0.02,0l0.07,0.02
		c0.03-0.01,0.06-0.02,0.09-0.04l0.31-0.03c-0.01,0.04-0.2,0.1-0.3,0.09c-0.03,0-0.07-0.01-0.1-0.02l0.66,0.2
		c0.62,0.27,1.27,0.53,1.99,0.94c1.42,0.72,2.91,1.67,4.39,2.67C647.44,575.35,650.37,577.64,653.21,579.96z M637.32,569.48
		C637.31,569.48,637.31,569.48,637.32,569.48C637.32,569.48,637.31,569.48,637.32,569.48z"/>
	
		<rect x="135.6" y="292.78" transform="matrix(0.9953 -0.0971 0.0971 0.9953 -29.1338 21.8598)" class="st2" width="148.93" height="35.04"/>
	
		<rect x="545.68" y="253.18" transform="matrix(0.9953 -0.0971 0.0971 0.9953 -23.352 61.4857)" class="st2" width="148.93" height="35.04"/>
	
		<rect x="248.38" y="248.07" transform="matrix(0.0131 -0.9999 0.9999 0.0131 -25.0002 521.8591)" class="st2" width="7.01" height="51.06"/>
	
		<rect x="252.93" y="220.15" transform="matrix(0.1866 -0.9824 0.9824 0.1866 -32.7819 451.7662)" class="st2" width="7.01" height="51.06"/>
	
		<rect x="262.26" y="193.45" transform="matrix(0.3544 -0.9351 0.9351 0.3544 -33.1821 389.902)" class="st2" width="7.01" height="51.06"/>
	
		<rect x="276.08" y="168.78" transform="matrix(0.5113 -0.8594 0.8594 0.5113 -30.3458 335.2513)" class="st2" width="7.01" height="51.06"/>
	
		<rect x="293.98" y="146.88" transform="matrix(0.6528 -0.7575 0.7575 0.6528 -27.3199 285.2061)" class="st2" width="7.01" height="51.06"/>
	
		<rect x="315.41" y="128.42" transform="matrix(0.7743 -0.6328 0.6328 0.7743 -25.4493 236.537)" class="st2" width="7.01" height="51.06"/>
	
		<rect x="339.72" y="113.97" transform="matrix(0.8724 -0.4887 0.4887 0.8724 -24.3923 185.5316)" class="st2" width="7.01" height="51.06"/>
	
		<rect x="366.17" y="103.95" transform="matrix(0.9441 -0.3295 0.3295 0.9441 -22.0189 129.0479)" class="st2" width="7.01" height="51.06"/>
	
		<rect x="393.96" y="98.68" transform="matrix(0.987 -0.1607 0.1607 0.987 -14.7933 65.4774)" class="st2" width="7.01" height="51.06"/>
	
		<rect x="400.22" y="120.34" transform="matrix(0.0132 -0.9999 0.9999 0.0132 296.3035 547.9223)" class="st2" width="51.06" height="7.01"/>
	
		<rect x="428.13" y="124.89" transform="matrix(0.1866 -0.9824 0.9824 0.1866 242.88 550.1373)" class="st2" width="51.06" height="7.01"/>
	
		<rect x="454.83" y="134.22" transform="matrix(0.3545 -0.9351 0.9351 0.3545 181.2957 538.0701)" class="st2" width="51.06" height="7.01"/>
	
		<rect x="483.8" y="145.3" transform="matrix(0.518 -0.8554 0.8554 0.518 118.2067 507.3837)" class="st2" width="51.06" height="7.01"/>
	
		<rect x="501.4" y="165.95" transform="matrix(0.6529 -0.7574 0.7574 0.6529 54.543 457.9293)" class="st2" width="51.06" height="7.01"/>
	
		<rect x="519.86" y="187.38" transform="matrix(0.7744 -0.6328 0.6328 0.7744 2.2853 388.1698)" class="st2" width="51.06" height="7.01"/>
	
		<rect x="534.32" y="211.69" transform="matrix(0.8725 -0.4887 0.4887 0.8725 -33.7563 301.0457)" class="st2" width="51.06" height="7.01"/>
	
		<rect x="544.33" y="238.14" transform="matrix(0.9442 -0.3295 0.3295 0.9442 -47.7976 201.2674)" class="st2" width="51.06" height="7.01"/>
	<path class="st2" d="M447.94,256.03c-0.7,0.08-1.21,1.23-1.52,3.44c-0.16,1.37,0.09,2.4,0.73,3.1c0.12-0.43,0.23-0.84,0.31-1.21
		c0.09-0.38,0.19-0.78,0.32-1.22C448.59,257.33,448.65,255.96,447.94,256.03z"/>
	<path class="st2" d="M293.81,279.85c0,67.13,54.42,121.55,121.55,121.55c67.13,0,121.56-54.42,121.56-121.55
		c0-67.14-54.43-121.56-121.56-121.56C348.23,158.29,293.81,212.71,293.81,279.85z M505.5,295.22c1-2.96,2.43-5.07,4.3-6.34
		c1.87-1.27,3.61-1.84,5.22-1.73c1.61,0.11,2.81,0.89,3.59,2.34s0.57,3.41-0.61,5.88c-0.96,2.03-2.29,3.56-4,4.59
		c-1.71,1.03-3.31,1.56-4.79,1.57c-1.49,0.02-2.66-0.48-3.51-1.5C504.84,299.01,504.78,297.4,505.5,295.22z M466.42,254.78
		c1.4-1.54,2.55-3.26,3.43-5.17c0.47-0.8,1.28-1.11,2.45-0.92c1.16,0.2,2.36,0.6,3.6,1.19c1.24,0.59,2.34,1.26,3.3,2.01
		c0.95,0.74,1.5,1.21,1.64,1.39c-0.1,0.02-0.47,0.8-1.11,2.36c-0.63,1.55-1.47,3.55-2.51,6c-1.03,2.45-2.22,5.21-3.55,8.28
		c-1.33,3.07-2.62,6.1-3.86,9.1c-1.25,3-2.46,5.86-3.65,8.6c-1.19,2.73-2.13,4.98-2.83,6.75c-1.28,3.11-1.73,5.25-1.36,6.41
		c0.37,1.16,1.19,1.6,2.47,1.32c1.28-0.29,2.81-1.22,4.57-2.77c1.77-1.56,3.35-3.54,4.75-5.96c1.36-2.1,2.74-4.37,4.13-6.84
		c1.39-2.46,2.65-4.82,3.77-7.08c0.29-0.67,0.75-1.09,1.39-1.26c0.63-0.17,1.2-0.17,1.69,0c0.49,0.16,0.86,0.48,1.1,0.95
		c0.24,0.47,0.21,1.04-0.07,1.7c-0.29,0.68-0.78,1.64-1.47,2.89c-0.69,1.26-1.48,2.69-2.37,4.29c-0.88,1.6-1.83,3.26-2.85,4.99
		c-1.01,1.72-1.91,3.27-2.68,4.65c-2.9,4.84-6.18,8.35-9.84,10.51c-3.65,2.16-6.86,3.01-9.61,2.54c-2.75-0.46-4.71-2.31-5.87-5.54
		c-1.16-3.22-0.7-7.84,1.37-13.87c0.12-0.43,0.98-2.59,2.57-6.48c1.6-3.88,3.52-8.6,5.78-14.15c-4.7,1.79-8.81,2.3-12.34,1.51
		c-1.8,3.62-3.52,7.09-5.16,10.42c-1.64,3.33-3.08,6.13-4.3,8.41c-0.39,0.69-0.85,1.11-1.38,1.25c-0.54,0.16-1.06,0.12-1.56-0.09
		c-0.5-0.22-0.87-0.54-1.1-0.95c-0.23-0.42-0.24-0.91-0.04-1.46c1.72-3.49,3.33-6.69,4.85-9.59s2.98-6.11,4.38-9.66
		c-1.75-1.11-2.99-2.7-3.73-4.78c-0.74-2.06-0.7-4.51,0.11-7.33c0.92-3.35,2.42-5.78,4.5-7.29c2.09-1.51,4-2.13,5.75-1.83
		c1.74,0.29,3.03,1.42,3.85,3.37c0.82,1.95,0.49,4.71-1.01,8.27c-0.13,0.43-0.31,0.82-0.56,1.17c-0.24,0.36-0.42,0.75-0.55,1.18
		c1.39-0.25,2.91-0.76,4.57-1.53c1.65-0.77,3.27-1.73,4.85-2.9C463.51,257.68,465.01,256.33,466.42,254.78z M335.46,338.43
		c2.67-4.7,5.44-10.57,8.29-17.62c2.86-7.04,5.87-14.91,9.04-23.6c3.17-8.69,6.39-17.36,9.67-26.03c3.28-8.65,6.68-16.9,10.22-24.74
		c3.53-7.83,7.11-14.44,10.73-19.83c-7.21,4.3-12.95,8.95-17.21,13.94c-4.26,5-7.35,9.8-9.27,14.41c-1.92,4.62-2.87,8.8-2.84,12.53
		c0.02,3.75,0.67,6.58,1.95,8.5c-4.28-1.47-7.39-3.75-9.34-6.82c-1.96-3.08-2.83-6.56-2.62-10.45c0.21-3.89,1.46-8.04,3.78-12.47
		c2.31-4.43,5.66-8.67,10.05-12.71c4.38-4.04,9.8-7.76,16.26-11.16c6.45-3.39,13.91-6.07,22.37-8.05c1.95-0.56,3.68-0.75,5.2-0.57
		c1.52,0.18,2.52,0.69,2.98,1.53c-1.33,3.94-2.63,8.54-3.92,13.8c-1.29,5.27-2.44,10.72-3.45,16.34
		c-1.02,5.63-1.81,11.19-2.39,16.68c-0.58,5.49-0.76,10.48-0.55,14.96c0.87-2.52,2.22-5.93,4.04-10.22
		c1.83-4.28,4.07-8.95,6.73-14.01c2.66-5.06,5.71-10.24,9.14-15.54c3.44-5.3,7.12-10.22,11.06-14.74
		c3.94-4.52,8.09-8.42,12.47-11.69c4.37-3.27,8.92-5.44,13.65-6.52c2.24-0.62,3.8-0.8,4.67-0.55c0.87,0.25,1.68,0.76,2.44,1.55
		c-2.33,1.25-4.79,4.24-7.35,8.97c-2.57,4.74-5.27,10.5-8.13,17.28c-2.85,6.79-5.81,14.29-8.86,22.49
		c-3.05,8.21-6.2,16.44-9.45,24.68c-3.25,8.25-6.62,16.15-10.1,23.72s-7.02,14.1-10.62,19.59c-3.61,5.48-7.26,9.59-10.97,12.33
		c-3.7,2.73-7.47,3.43-11.31,2.09c1.85-0.55,3.76-2.29,5.73-5.22c1.98-2.93,4.05-6.7,6.23-11.3c2.18-4.61,4.41-9.9,6.7-15.86
		c2.28-5.97,4.62-12.22,7-18.77c2.39-6.54,4.86-13.18,7.41-19.91c2.56-6.73,5.15-13.26,7.78-19.6c-3.82,5.43-7.48,11.05-10.97,16.88
		c-3.5,5.83-6.51,11.16-9.06,15.99c-2.55,4.83-4.49,8.9-5.83,12.23c-1.33,3.32-1.72,5.14-1.15,5.44c-0.83-0.05-1.77-0.41-2.82-1.09
		c-1.04-0.68-2.07-1.49-3.06-2.44c-1-0.94-1.85-1.96-2.57-3.06c-0.72-1.1-1.15-2.1-1.32-2.99c-0.39-5.47-0.69-11.24-0.88-17.31
		c-0.2-6.07-0.05-12.23,0.44-18.48c-2.74,6.87-5.57,14.19-8.5,21.97c-2.92,7.77-5.93,15.4-9.01,22.9
		c-3.08,7.49-6.24,14.59-9.46,21.29c-3.23,6.71-6.52,12.42-9.85,17.14c-3.34,4.71-6.74,8.24-10.21,10.58
		c-3.47,2.33-6.97,2.84-10.49,1.55C330.27,345.8,332.78,343.13,335.46,338.43z"/>
	<path class="st2" d="M201.6,981.68c0.96-1.34,1.45-2.55,1.45-3.63c0-0.94-0.09-1.68-0.26-2.22c-0.53-1.21-1.67-1.95-3.42-2.22
		c-3.68-0.13-6.7-0.2-9.07-0.2c-2.37,0-4.38,0.03-6.05,0.1c-1.67,0.07-3.24,0.14-4.73,0.2c-1.49,0.07-3.2,0.1-5.13,0.1
		c-1.58,0-3.07,0.03-4.47,0.1c-1.41,0.07-2.63,0.1-3.68,0.1c0.35-8.2,1.58-17.35,3.68-27.44c2.1-10.09,5.17-21.11,9.2-33.09
		c2.1-0.13,3.59-0.3,4.47-0.5c0.88-0.2,1.88-0.44,3.02-0.71c1.14-0.27,2.76-0.54,4.86-0.81c2.1-0.27,5.43-0.61,9.99-1.01
		c3.68-0.27,6.48-0.5,8.41-0.71c1.93-0.2,3.46-0.37,4.6-0.5c1.14-0.13,2.06-0.23,2.76-0.3c0.7-0.07,1.66-0.1,2.89-0.1h11.83H238
		c2.28,0,3.77-0.07,4.47-0.2h0.26c2.1-0.27,3.5-0.6,4.21-1.01c1.93-0.81,2.89-1.95,2.89-3.43c0-0.54-0.26-1.31-0.79-2.32
		c-0.53-1.01-1.93-1.85-4.21-2.52c-1.58-0.54-4.47-0.81-8.67-0.81h-4.47c-2.98,0-5.22-0.03-6.7-0.1c-1.49-0.07-2.76-0.13-3.81-0.2
		c-1.05-0.07-2.1-0.13-3.15-0.2c-1.05-0.07-2.63-0.17-4.73-0.3h-0.26c-5.96,0.14-11.08,0.34-15.38,0.61
		c-4.3,0.27-8.28,0.64-11.96,1.11c-3.68,0.47-7.41,1.01-11.17,1.61c-3.77,0.6-8.19,1.31-13.27,2.12c-4.91,0.27-9.77,0.54-14.59,0.81
		c-4.82,0.27-9.77,0.54-14.85,0.81c-4.73,0.4-8.15,1.14-10.25,2.22c-3.15,1.48-4.73,3.43-4.73,5.85c0,1.08,0.26,2.29,0.79,3.63
		c0,0.14,0.17,0.47,0.53,1.01c2.45,2.42,4.38,4.1,5.78,5.04c1.4,0.94,2.8,1.41,4.21,1.41c0.7,0,1.22-0.07,1.58-0.2
		c0.17-0.13,2.28-1.08,6.31-2.82c4.03-1.75,9.29-3.09,15.77-4.04c-1.58,12.91-2.89,24.08-3.94,33.49
		c-1.05,9.42-1.93,17.75-2.63,25.02h-1.84c-0.35,0-0.62,0.07-0.79,0.2c-1.05,0.27-2.19,0.37-3.42,0.3
		c-1.23-0.07-2.54,0.44-3.94,1.51c-0.7,0.67-1.1,1.45-1.18,2.32c-0.09,0.88-0.13,1.85-0.13,2.92c0,3.63,0.7,6.12,2.1,7.46
		c1.4,1.35,4.38,1.61,8.94,0.81c-0.53,3.63-0.79,6.73-0.79,9.28v41.15c0,5.65,1.05,9.96,3.15,12.91c2.45,3.5,6.13,5.25,11.04,5.25
		c2.28,0,4.47-0.27,6.57-0.81c1.05-0.27,1.75-0.74,2.1-1.41c0.53-0.67,0.61-1.48,0.26-2.42c-0.88-1.48-1.67-4.44-2.37-8.88
		c-0.7-4.44-1.05-11.43-1.05-20.98c0-7.13,0.26-15.46,0.79-25.02c0.17-3.09,0.3-5.55,0.39-7.36c0.09-1.82,0.13-3.19,0.13-4.14
		c0.7-0.27,1.14-0.5,1.31-0.71c0.17-0.2,0.53-0.37,1.05-0.5c0.53-0.13,1.53-0.27,3.02-0.4c1.49-0.13,3.9-0.27,7.23-0.4
		c7.36,0,13.14-0.54,17.35-1.61C198.48,984.1,200.63,983.03,201.6,981.68z"/>
	<path class="st2" d="M306.6,1004.48c-2.28-5.65-3.99-10.49-5.13-14.53c-1.14-4.03-1.71-7.39-1.71-10.09c0-1.34,0.44-3.36,1.31-6.05
		c0.7-2.02,1.14-3.36,1.31-4.04c0.17-0.67,0.26-1.14,0.26-1.41c0-0.54-0.13-1.18-0.39-1.92c-0.26-0.74-0.79-1.48-1.58-2.22
		c-0.79-0.74-2.02-1.38-3.68-1.92c-1.67-0.54-3.81-0.81-6.44-0.81c-3.51,0-6.22,0.78-8.15,2.32c-1.93,1.55-2.89,3.67-2.89,6.35
		c0,4.57-0.26,8.91-0.79,13.01c-0.53,4.1-1.49,7.97-2.89,11.6c-1.22,3.63-2.45,7.33-3.68,11.1c-1.01,3.1-2.02,6.2-3.03,9.29
		c-1.5,3.15-3.38,6.5-5.64,10.08c-1.75,2.69-3.2,4.88-4.34,6.56c-1.14,1.68-2.06,2.96-2.76,3.83c-0.7,0.88-1.23,1.48-1.58,1.82
		c-0.35,0.34-0.62,0.5-0.79,0.5c-0.18-0.13-0.48-0.43-0.92-0.91c-0.44-0.47-1.01-1.44-1.71-2.93c-1.41-3.63-1.93-7.26-1.58-10.89
		c0.35-2.02,0.66-4.1,0.92-6.25c0.26-2.15,0.57-4.17,0.92-6.05c0.35-1.34,0.74-2.69,1.18-4.04c0.44-1.34,0.92-2.62,1.45-3.83
		c0.35-0.54,0.3-1.01-0.13-1.41c-0.44-0.4-0.92-0.74-1.45-1.01c-0.7-0.27-1.4-0.47-2.1-0.61c-0.53-0.27-1.01-0.5-1.45-0.71
		c-0.44-0.2-1.01-0.37-1.71-0.5c-0.7-0.13-1.31-0.37-1.84-0.71c-0.53-0.33-1.14-0.5-1.84-0.5c-0.35,0-0.79-0.03-1.31-0.1
		c-0.53-0.07-0.96-0.1-1.31-0.1c-0.35,0-0.83,0-1.45,0c-0.62,0-1.18,0.27-1.71,0.81c-0.53,0.54-0.66,1.01-0.39,1.41
		s0.3,1.14,0.13,2.22c-0.18,1.08-0.35,2.09-0.53,3.03c-0.18,0.94-0.44,1.95-0.79,3.03c-0.88,3.5-1.58,6.93-2.1,10.29
		c-0.53,3.36-1.75,6.99-3.68,10.89c-1.93,4.31-3.68,7.6-5.26,9.88c-1.58,2.29-2.72,3.43-3.42,3.43c-0.35,0-0.96-0.17-1.84-0.5
		c-0.88-0.33-1.49-0.77-1.84-1.31c-1.23-1.88-1.84-3.9-1.84-6.05c0-6.86,0.53-13.52,1.58-19.97c1.4-5.38,3.24-11.16,5.52-17.35
		c2.28-6.18,4.03-10.56,5.26-13.11c1.22-2.55,2.1-4.17,2.63-4.84c2.28,0.27,4.03,1.58,5.26,3.93c1.22,2.35,2.1,5.14,2.63,8.37
		c0.17,0.94,0.57,1.51,1.18,1.71c0.61,0.2,1.31,0.2,2.1,0c0.79-0.2,1.49-0.5,2.1-0.91c0.61-0.4,1.09-0.74,1.45-1.01
		c0.7-0.81,1.4-2.08,2.1-3.83c0.7-1.75,0.61-4.77-0.26-9.08c-0.35-1.88-1.27-3.7-2.76-5.45c-1.49-1.75-3.24-3.26-5.26-4.54
		c-2.02-1.28-4.17-2.29-6.44-3.03c-2.28-0.74-4.38-1.11-6.31-1.11c-2.63,0-4.86,0.91-6.7,2.72c-1.84,1.82-3.38,3.6-4.6,5.35
		c-0.88,1.35-1.84,3.1-2.89,5.25c-1.05,2.15-2.15,4.51-3.29,7.06c-1.14,2.56-2.19,5.11-3.15,7.67c-0.97,2.56-1.8,4.91-2.5,7.06
		c-1.05,3.9-1.93,7.56-2.63,10.99c-0.7,3.43-1.14,6.42-1.31,8.98c-0.53,15.87,2.37,26.29,8.67,31.27c3.33,2.29,7.01,3.43,11.04,3.43
		c8.23,0,14.63-4.84,19.19-14.53c0.7,1.08,1.36,1.99,1.97,2.72c0.61,0.74,1.18,1.45,1.71,2.12c3.15,3.5,7.53,5.25,13.14,5.25
		c2.98,0,5.48-0.94,7.49-2.82c2.01-1.88,3.72-3.76,5.13-5.65c0.07-0.09,0.14-0.2,0.2-0.29c0.75,2.11,2.42,4.23,5.05,6.34
		c5.26,4.44,11.21,6.66,17.87,6.66c6.31,0,11.65-2.49,16.03-7.46c3.85-4.3,5.78-9.95,5.78-16.95c0-2.55-0.53-5.88-1.58-9.99
		C310.81,1015.4,309.05,1010.4,306.6,1004.48z M293.2,1039.38c-1.05,1.48-2.15,2.39-3.29,2.72c-1.14,0.34-2.15,0.5-3.02,0.5
		c-2.1,0-4.38-1.95-6.83-5.85c-0.18-2.69-0.96-4.34-2.37-4.94c-0.96-0.41-1.78-0.67-2.49-0.81c2.02-3.37,3.91-7.15,5.65-11.4
		c0.24-0.6,0.47-1.17,0.7-1.75c0.11-0.12,0.24-0.24,0.34-0.36c0.88-1.01,1.58-2.05,2.1-3.13c0.53-1.07,0.96-1.88,1.31-2.42v-0.2
		c0.7-1.61,1.31-3.26,1.84-4.94c0.53-1.68,1.14-3.33,1.84-4.94c0.35,0.81,0.66,1.65,0.92,2.52c0.26,0.88,0.57,1.65,0.92,2.32v0.2
		c3.5,9.28,5.26,16.54,5.26,21.79C296.09,1033.12,295.12,1036.69,293.2,1039.38z"/>
	<path class="st2" d="M381.78,939.11c-4.21-0.13-7.45-0.23-9.73-0.3c-2.28-0.07-4.17-0.13-5.65-0.2c-1.49-0.07-2.89-0.13-4.21-0.2
		c-1.31-0.07-3.11-0.1-5.39-0.1c-2.46,0-4.03-0.03-4.73-0.1c-0.7-0.07-1.14-0.13-1.31-0.2c-0.18-0.07-0.39-0.1-0.66-0.1
		s-1.01,0-2.23,0c0.53-1.88,1.01-3.6,1.45-5.14c0.43-1.54,0.83-3.06,1.18-4.54v-0.61v-4.64c0-0.94-0.53-1.75-1.58-2.42
		c-5.78-2.82-10.25-4.24-13.41-4.24c-2.98,0-5.17,1.08-6.57,3.23c-0.18,0.4-0.26,1.01-0.26,1.82l1.31,3.43
		c-0.18,2.82-0.35,5.31-0.53,7.46c-0.18,2.15-0.35,3.97-0.53,5.45c-1.58,0.14-2.85,0.24-3.81,0.3c-0.96,0.07-1.8,0.14-2.5,0.2
		c-0.7,0.07-1.4,0.14-2.1,0.2c-0.7,0.07-1.58,0.17-2.63,0.3c-3.5,0.54-5.56,1.31-6.18,2.32c-0.61,1.01-0.92,1.71-0.92,2.12
		c0,0.67,0.31,1.51,0.92,2.52c0.62,1.01,2.15,1.85,4.6,2.52c1.41,0.4,2.37,0.81,2.89,1.21c0.53,0.4,0.97,0.67,1.31,0.81
		c0.53,0.27,1.49,0.57,2.89,0.91c1.4,0.34,2.89,0.37,4.47,0.1c-2.46,17.08-4.25,30.4-5.39,39.94c-1.14,9.55-1.71,16.01-1.71,19.37
		c0,10.36,1.75,19.03,5.26,26.02c4.03,7.8,9.37,11.7,16.04,11.7c4.73,0,9.24-2.45,13.54-7.36c4.29-4.91,8.71-12.54,13.27-22.9
		c3.5-8.07,6.04-14.69,7.62-19.87c1.58-5.18,2.37-9.04,2.37-11.6c0-2.29-0.7-3.86-2.1-4.74c-1.4-0.87-2.89-1.31-4.47-1.31
		c-1.75,0-3.02,0.54-3.81,1.61c-0.79,1.08-1.36,1.95-1.71,2.62c-0.35,0.94-0.79,2.02-1.31,3.23c-0.53,1.21-1.05,2.69-1.58,4.44
		c-2.28,7.4-4.51,13.89-6.7,19.47c-2.19,5.58-4.25,10.19-6.18,13.82c-1.4,2.29-2.59,4.04-3.55,5.25c-0.96,1.21-1.8,2.15-2.5,2.82
		c-0.7,0.67-1.4,1.14-2.1,1.41c-0.35,0-1.01-0.67-1.97-2.02c-0.96-1.34-1.71-4.17-2.23-8.47c-0.18-1.48-0.31-4.2-0.39-8.17
		c-0.09-3.97-0.13-9.18-0.13-15.63c0-0.27,0.04-0.81,0.13-1.61c0.09-0.81,0.26-2.15,0.53-4.04c0.26-1.88,0.57-4.44,0.92-7.67
		c0.35-3.23,0.88-7.39,1.58-12.51c0.88-6.05,1.53-11.13,1.97-15.23c0.44-4.1,0.83-7.09,1.18-8.98l8.15-0.4
		c1.93,0,4.21-0.07,6.83-0.2c2.63-0.13,5.96-0.54,9.99-1.21c6.13-0.81,10.07-1.48,11.83-2.02c1.75-0.54,2.89-1.08,3.42-1.61
		c0.53-0.54,0.79-1.14,0.79-1.82v-1.41C385.46,940.39,384.23,939.38,381.78,939.11z"/>
	<path class="st2" d="M517.15,973.61c-3.68-0.13-6.7-0.2-9.07-0.2c-2.37,0-4.38,0.03-6.05,0.1c-1.67,0.07-3.24,0.14-4.73,0.2
		c-1.49,0.07-3.2,0.1-5.13,0.1c-1.58,0-3.07,0.03-4.47,0.1c-1.41,0.07-2.63,0.1-3.68,0.1c0.35-8.2,1.58-17.35,3.68-27.44
		c2.1-10.09,5.17-21.11,9.2-33.09c2.1-0.13,3.59-0.3,4.47-0.5c0.88-0.2,1.88-0.44,3.02-0.71c1.14-0.27,2.76-0.54,4.86-0.81
		c2.1-0.27,5.43-0.61,9.99-1.01c3.68-0.27,6.48-0.5,8.41-0.71c1.93-0.2,3.46-0.37,4.6-0.5c1.14-0.13,2.06-0.23,2.76-0.3
		c0.7-0.07,1.66-0.1,2.89-0.1h11.83h6.05c2.28,0,3.77-0.07,4.47-0.2h0.26c2.1-0.27,3.5-0.6,4.21-1.01c1.93-0.81,2.89-1.95,2.89-3.43
		c0-0.54-0.26-1.31-0.79-2.32c-0.53-1.01-1.93-1.85-4.21-2.52c-1.58-0.54-4.47-0.81-8.67-0.81h-4.47c-2.98,0-5.22-0.03-6.7-0.1
		c-1.49-0.07-2.76-0.13-3.81-0.2c-1.05-0.07-2.1-0.13-3.15-0.2c-1.05-0.07-2.63-0.17-4.73-0.3h-0.26
		c-5.96,0.14-11.08,0.34-15.38,0.61c-4.3,0.27-8.28,0.64-11.96,1.11c-3.68,0.47-7.41,1.01-11.17,1.61
		c-3.77,0.6-8.19,1.31-13.27,2.12c-4.91,0.27-9.77,0.54-14.59,0.81c-4.82,0.27-9.77,0.54-14.85,0.81c-4.73,0.4-8.15,1.14-10.25,2.22
		c-3.15,1.48-4.73,3.43-4.73,5.85c0,1.08,0.26,2.29,0.79,3.63c0,0.14,0.17,0.47,0.53,1.01c2.45,2.42,4.38,4.1,5.78,5.04
		c1.4,0.94,2.8,1.41,4.21,1.41c0.7,0,1.22-0.07,1.58-0.2c0.17-0.13,2.28-1.08,6.31-2.82c4.03-1.75,9.29-3.09,15.77-4.04
		c-1.58,12.91-2.89,24.08-3.94,33.49c-1.05,9.42-1.93,17.75-2.63,25.02h-1.84c-0.35,0-0.62,0.07-0.79,0.2
		c-1.05,0.27-2.19,0.37-3.42,0.3c-1.23-0.07-2.54,0.44-3.94,1.51c-0.7,0.67-1.1,1.45-1.18,2.32c-0.09,0.88-0.13,1.85-0.13,2.92
		c0,3.63,0.7,6.12,2.1,7.46c1.4,1.35,4.38,1.61,8.94,0.81c-0.53,3.63-0.79,6.73-0.79,9.28v41.15c0,5.65,1.05,9.96,3.15,12.91
		c2.45,3.5,6.13,5.25,11.04,5.25c2.28,0,4.47-0.27,6.57-0.81c1.05-0.27,1.75-0.74,2.1-1.41c0.53-0.67,0.61-1.48,0.26-2.42
		c-0.88-1.48-1.67-4.44-2.37-8.88c-0.7-4.44-1.05-11.43-1.05-20.98c0-7.13,0.26-15.46,0.79-25.02c0.17-3.09,0.3-5.55,0.39-7.36
		c0.09-1.82,0.13-3.19,0.13-4.14c0.7-0.27,1.14-0.5,1.31-0.71c0.17-0.2,0.53-0.37,1.05-0.5c0.53-0.13,1.53-0.27,3.02-0.4
		c1.49-0.13,3.9-0.27,7.23-0.4c7.36,0,13.14-0.54,17.35-1.61c3.33-0.81,5.47-1.88,6.44-3.23c0.96-1.34,1.45-2.55,1.45-3.63
		c0-0.94-0.09-1.68-0.26-2.22C520.04,974.62,518.9,973.88,517.15,973.61z"/>
	<path class="st2" d="M751.87,979.86c-1.41,0-2.54,0.27-3.42,0.81c-0.88,0.54-1.58,1.21-2.1,2.02c-0.53,0.81-0.96,1.61-1.31,2.42
		c-0.35,0.81-0.62,1.48-0.79,2.02c-1.93,4.84-4.3,10.02-7.1,15.53c-2.8,5.52-5.7,10.89-8.67,16.14c-3.86,6.73-6.62,11.47-8.28,14.22
		c-1.67,2.76-2.94,4.47-3.81,5.14c-0.35-0.54-0.83-1.71-1.45-3.53c-0.62-1.82-1.01-4.87-1.18-9.18c0-5.38,1.58-17.28,4.73-35.71
		c2.1-12.51,3.72-22.09,4.86-28.75c1.14-6.66,1.79-10.52,1.97-11.6c1.93-7.67,3.72-14.76,5.39-21.28
		c1.66-6.52,3.29-12.94,4.86-19.27l0.26-0.2c0.35-3.09-0.09-5.38-1.31-6.86c-0.88-1.21-1.89-2.18-3.02-2.93
		c-1.14-0.74-2.85-1.11-5.13-1.11h-6.05l-0.79,0.2c-2.46,0.81-3.81,2.29-4.07,4.44c-0.26,2.15-0.31,3.77-0.13,4.84
		c-2.28,12.51-4.25,23.91-5.92,34.2c-1.67,10.29-3.02,18.86-4.07,25.72c-0.35-0.13-0.57-0.27-0.66-0.4
		c-0.09-0.13-0.31-0.27-0.66-0.4c-3.86-2.55-7.54-3.83-11.04-3.83c-8.53,0-15.99,6.65-22.4,19.94c-0.91,0.99-1.6,2.33-2.05,4.06
		c-0.17,0.6-0.34,1.17-0.5,1.74c-0.09,0.23-0.19,0.45-0.28,0.69c-1.8,4.55-3.28,8.82-4.44,12.8c-0.23,0.56-0.42,1-0.56,1.32
		c-1.93,3.1-3.9,4.98-5.92,5.65c-2.02,0.67-3.81,1.01-5.39,1.01c-1.23,0-2.28-0.27-3.15-0.81c0-5.78-0.09-10.56-0.26-14.32
		c-0.17-3.76-0.35-6.76-0.52-8.98c-0.18-2.22-0.39-3.87-0.66-4.94c-0.26-1.08-0.48-1.88-0.65-2.42c-1.92-4.17-5.93-7.93-12.03-11.3
		c-6.1-3.5-11.86-5.25-17.26-5.25c-1.05,0-2.18,0.1-3.4,0.3c-1.22,0.2-2.44,0.64-3.66,1.31c-1.22,0.67-2.39,1.61-3.53,2.82
		c-1.13,1.21-1.96,2.82-2.49,4.84c-0.87,2.69-1.49,4.64-1.84,5.85c-0.35,1.21-0.61,2.09-0.78,2.62c-1.05,0.81-1.75,2.22-2.09,4.24
		v0.2c0,0.54,0,1.11,0,1.71c0,0.42,0.06,0.9,0.14,1.41c-1.51,5.24-2.73,9.02-3.67,11.3c-0.96,2.36-1.62,3.93-1.97,4.74
		c-1.93,3.1-3.9,4.98-5.92,5.65c-2.02,0.67-3.81,1.01-5.39,1.01c-1.23,0-2.28-0.27-3.15-0.81c0-5.78-0.09-10.56-0.26-14.32
		c-0.17-3.76-0.35-6.76-0.52-8.98c-0.18-2.22-0.39-3.87-0.66-4.94c-0.26-1.08-0.48-1.88-0.65-2.42c-1.92-4.17-5.93-7.93-12.03-11.3
		c-6.1-3.5-11.86-5.25-17.26-5.25c-1.05,0-2.18,0.1-3.4,0.3c-1.22,0.2-2.44,0.64-3.66,1.31c-1.22,0.67-2.39,1.61-3.53,2.82
		c-1.13,1.21-1.96,2.82-2.49,4.84c-0.87,2.69-1.49,4.64-1.84,5.85c-0.35,1.21-0.61,2.09-0.78,2.62c-1.05,0.81-1.75,2.22-2.09,4.24
		v0.2c0,0.54,0,1.11,0,1.71s0.09,1.31,0.26,2.12v1.21c-2.79,5.25-4.19,14.59-4.19,28.04c0,11.3,1.83,19.84,5.49,25.62
		c4.01,6.46,10.2,9.68,18.57,9.68c6.8,0,12.46-2.83,17-8.47c1.04-1.34,2.18-3.16,3.4-5.45c1.22-2.29,2.62-5.18,4.18-8.67v-0.4
		c0.52-1.61,1-3.13,1.44-4.54s0.83-2.79,1.18-4.14c2.45,0.67,4.12,1.11,4.99,1.31c0.88,0.2,1.58,0.3,2.1,0.3
		c3.98,0,7.58-0.95,10.81-2.83c0.25,10.11,2.06,17.84,5.46,23.21c4.01,6.46,10.2,9.68,18.57,9.68c6.8,0,12.46-2.83,17-8.47
		c1.04-1.34,2.18-3.16,3.4-5.45c1.22-2.29,2.62-5.18,4.18-8.67v-0.4c0.52-1.61,1-3.13,1.44-4.54s0.83-2.79,1.18-4.14
		c2.45,0.67,4.12,1.11,4.99,1.31c0.88,0.2,1.58,0.3,2.1,0.3c2.2,0,4.28-0.29,6.24-0.86c-0.13,1.9-0.2,3.81-0.2,5.7
		c0,7.26,1.84,13.18,5.52,17.75c2.45,3.23,5.13,5.35,8.02,6.35c2.89,1.01,5.39,1.51,7.49,1.51c4.73,0,8.85-1.95,12.35-5.85
		c2.1-2.02,4.73-5.65,7.89-10.89c2.98,9.55,8.76,14.32,17.35,14.32c1.22,0,2.58-0.33,4.08-1.01c1.49-0.67,3.15-2.05,4.99-4.14
		c1.84-2.08,3.9-5.14,6.18-9.18c2.28-4.04,4.9-9.41,7.89-16.14c7.53-17.48,11.3-28.71,11.3-33.69c0-2.82,0.04-4.57,0.13-5.25
		C752.88,980.2,752.57,979.86,751.87,979.86z M561.7,1022.53c-0.79,2.49-2.5,5.95-5.13,10.39c-1.58,2.56-2.76,4.27-3.55,5.14
		c-0.79,0.88-1.36,1.45-1.71,1.71c-1.75-0.13-3.15-0.91-4.21-2.32c-1.05-1.41-1.88-3.16-2.5-5.25c-0.62-2.08-1.01-4.27-1.18-6.56
		c-0.18-2.29-0.26-4.37-0.26-6.25c0-3.09,0.35-6.76,1.05-11c0.7-4.24,1.75-9.18,3.15-14.83c0.88-3.63,1.71-6.59,2.5-8.88
		c0.79-2.29,1.49-4.07,2.1-5.35c0.61-1.28,1.14-2.18,1.58-2.72c0.44-0.54,0.74-0.87,0.92-1.01c1.4,0,2.54,0.3,3.42,0.91
		c0.88,0.6,1.31,1.85,1.31,3.73c0,0.4,0,0.98,0,1.71c0,0.74-0.09,1.65-0.26,2.72c-0.35,1.08-0.53,2.02-0.53,2.82
		c0,0.81,0,1.55,0,2.22c0,0.67,0.13,1.82,0.39,3.43c0.26,1.61,0.92,4.57,1.97,8.88c0.7,3.1,1.22,5.92,1.58,8.47
		c0.35,2.56,0.53,4.78,0.53,6.66C562.88,1018.26,562.48,1020.04,561.7,1022.53z M630.82,1022.53c-0.79,2.49-2.5,5.95-5.13,10.39
		c-1.58,2.56-2.76,4.27-3.55,5.14c-0.79,0.88-1.36,1.45-1.71,1.71c-1.75-0.13-3.15-0.91-4.21-2.32c-1.05-1.41-1.88-3.16-2.5-5.25
		c-0.62-2.08-1.01-4.27-1.18-6.56c-0.18-2.29-0.26-4.37-0.26-6.25c0-3.09,0.35-6.76,1.05-11c0.7-4.24,1.75-9.18,3.15-14.83
		c0.88-3.63,1.71-6.59,2.5-8.88c0.79-2.29,1.49-4.07,2.1-5.35c0.61-1.28,1.14-2.18,1.58-2.72c0.44-0.54,0.74-0.87,0.92-1.01
		c1.4,0,2.54,0.3,3.42,0.91c0.88,0.6,1.31,1.85,1.31,3.73c0,0.4,0,0.98,0,1.71c0,0.74-0.09,1.65-0.26,2.72
		c-0.35,1.08-0.53,2.02-0.53,2.82c0,0.81,0,1.55,0,2.22c0,0.67,0.13,1.82,0.39,3.43c0.26,1.61,0.92,4.57,1.97,8.88
		c0.7,3.1,1.22,5.92,1.58,8.47c0.35,2.56,0.53,4.78,0.53,6.66C632.01,1018.26,631.61,1020.04,630.82,1022.53z M701.4,988.13
		c-0.18,0.94-0.44,2.56-0.79,4.84v0.2c-0.35,2.69-0.61,4.98-0.78,6.86c-0.17,1.89-0.34,3.43-0.52,4.64
		c-2.08,7.26-4.94,14.52-8.58,21.79h-0.26c-2.77,5.92-4.85,9.89-6.24,11.9c-1.39,2.02-2.69,2.76-3.9,2.22
		c-0.34-0.27-0.69-0.71-1.04-1.31c-0.35-0.61-0.65-1.58-0.91-2.92c-0.26-1.34-0.48-3.13-0.65-5.35c-0.17-2.22-0.26-5.01-0.26-8.37
		c0-9.14,2.43-19.17,7.28-30.06c1.73-4.04,3.33-7.03,4.81-8.98c1.47-1.95,2.77-3.33,3.9-4.14c1.13-0.81,1.99-1.21,2.6-1.21
		c0.61,0,1,0,1.17,0c0.69,0,1.6,0.3,2.73,0.91c1.13,0.61,1.69,2.59,1.69,5.95C701.66,986.19,701.57,987.19,701.4,988.13z"/>
	<path class="st2" d="M70.57,593.13c2.81,6.18,6.86,11.33,12.16,15.48c5.29,4.14,11.87,6.97,19.73,8.47
		c7.86,1.51,17.23,1.35,28.12-0.46c5.71-1.05,11.87-2.88,18.48-5.48c6.61-2.6,13.36-6.3,20.25-11.12
		c6.89-4.81,13.9-10.83,21.04-18.06c7.13-7.22,14.16-16.1,21.08-26.63c0.76-1.21,1.54-2.48,2.34-3.8c0.3,3.79,1.15,7.26,2.57,10.43
		c1.84,4.09,4.95,6.82,9.33,8.17c6.08,2.02,11.99,1.23,17.73-2.38c5.73-3.61,11.12-8.84,16.16-15.68
		c3.11,5.14,7.42,8.48,12.92,10.02c5.5,1.54,11.47,1.33,17.9-0.64c6.43-1.97,12.98-5.69,19.65-11.16c2.21-1.81,4.32-3.84,6.37-6.06
		c-3.67,9.77-7.33,19.51-10.96,29.21c-1.99,6.27-2.74,11.04-2.24,14.29c0.5,3.25,1.46,5.74,2.85,7.45c1.4,1.71,2.97,3.04,4.73,4
		c1.75,0.95,2.94,2.06,3.57,3.33c0.79-2.12,2.09-5.46,3.91-10.03c1.82-4.57,3.94-9.88,6.36-15.94c2.43-6.06,5.04-12.7,7.85-19.91
		c2.8-7.21,5.77-14.65,8.88-22.31c5.08-11.96,10.45-22.85,16.13-32.66c5.67-9.81,11.21-18.21,16.62-25.22
		c5.4-7,10.39-12.55,14.95-16.64c4.56-4.09,8.26-6.44,11.1-7.07c2.84-0.62,4.48,0.55,4.93,3.52c0.45,2.97-0.63,8.04-3.25,15.22
		c-1.58,4.23-3.38,8.65-5.38,13.25c-2.01,4.61-3.9,9.04-5.67,13.3c-3.58,8.34-5.47,15.44-5.67,21.28c-0.2,5.85,0.7,10.46,2.7,13.83
		c2,3.37,4.9,5.5,8.71,6.37c3.8,0.87,7.93,0.55,12.38-0.95c4.45-1.51,8.96-4.26,13.54-8.26c4.58-3.99,8.76-9.1,12.54-15.31
		c1.67-2.67,3.43-5.65,5.29-8.95c1.85-3.29,3.68-6.48,5.47-9.57c1.79-3.09,3.35-5.88,4.66-8.39c1.21-2.32,2.03-4.01,2.46-5.09
		c2.01-3.83,4.28-8.31,6.82-13.46c3.15-6.39,6.45-13.05,9.9-19.99c6.78,1.51,14.67,0.54,23.69-2.89
		c-4.34,10.65-8.03,19.7-11.09,27.15c-3.06,7.46-4.71,11.6-4.94,12.43c-3.97,11.56-4.85,20.44-2.62,26.62
		c2.22,6.19,5.97,9.73,11.26,10.62c5.28,0.89,11.43-0.73,18.45-4.88c7.01-4.14,13.3-10.87,18.88-20.17c1.48-2.64,3.2-5.61,5.15-8.92
		c1.08-1.84,2.11-3.63,3.12-5.39c0.49,4.12,1.5,7.76,3.07,10.89c3.28,6.58,8.35,11.11,15.21,13.59c6.85,2.48,14.28,2.93,22.26,1.36
		c7.98-1.57,16.01-5.26,24.09-11.09c8.08-5.82,14.95-13.68,20.61-23.59c0.9-1.54,2-3.57,3.31-6.08c1.31-2.5,2.63-4.96,3.96-7.38
		c1.33-2.41,2.58-4.71,3.75-6.89c0.27-0.5,0.51-0.96,0.74-1.4c0.13-0.19,0.26-0.36,0.38-0.57c1.72-3.46,3.74-7.48,6.05-12.04
		c2.31-4.56,4.68-9.33,7.11-14.31c2.41,6.65,5.21,12.77,8.41,18.39c3.2,5.61,6.37,10.49,9.49,14.64c2.6,3.46,4.55,6.54,5.84,9.26
		c-3.88,0.32-7.83,0.56-11.83,0.71c-4.01,0.15-7.92,0.57-11.73,1.28c-7.46,1.18-12.81,3.99-16.02,8.42
		c-3.21,4.43-4.4,8.99-3.54,13.65c0.86,4.67,3.93,8.73,9.19,12.19c5.26,3.46,12.73,4.69,22.39,3.7c5.82-0.48,11.43-1.81,16.84-3.99
		c5.4-2.18,9.95-5.04,13.63-8.57c3.68-3.54,6.27-7.66,7.76-12.36c1.5-4.71,1.43-9.86-0.19-15.47c0.84-0.75,1.64-1.53,2.37-2.36
		c0.73-0.82,1.39-1.78,1.98-2.88c1.67-2.67,3.33-5.44,4.97-8.3c1.64-2.86,3.2-5.61,4.68-8.25c1.48-2.64,2.76-5.04,3.84-7.21
		c0.61-1.22,1.09-2.24,1.48-3.11c1.55-3.12,3.31-6.62,5.3-10.55c2.31-4.56,4.68-9.33,7.11-14.31c2.41,6.65,5.21,12.77,8.41,18.39
		c3.2,5.61,6.37,10.49,9.49,14.64c2.6,3.46,4.55,6.54,5.84,9.26c-3.88,0.32-7.82,0.56-11.83,0.71c-4.01,0.15-7.92,0.57-11.73,1.28
		c-7.46,1.18-12.81,3.99-16.02,8.42c-3.22,4.43-4.4,8.99-3.54,13.65c0.86,4.67,3.93,8.73,9.19,12.19s12.73,4.69,22.39,3.7
		c5.82-0.48,11.43-1.81,16.84-3.99c5.4-2.18,9.95-5.04,13.63-8.57c3.68-3.53,6.27-7.65,7.76-12.36c1.5-4.71,1.43-9.86-0.2-15.47
		c0.85-0.75,1.64-1.53,2.37-2.36c0.73-0.82,1.39-1.78,1.98-2.88c1.67-2.67,3.33-5.44,4.97-8.3c1.64-2.86,3.2-5.61,4.68-8.25
		c1.48-2.64,2.76-5.04,3.84-7.21c1.08-2.17,1.81-3.78,2.21-4.84c0.55-1.28,0.55-2.36-0.01-3.25c-0.56-0.88-1.31-1.48-2.25-1.8
		c-0.94-0.31-1.98-0.32-3.11-0.02c-1.12,0.31-1.96,1.1-2.51,2.38c-2.19,4.15-4.47,8.36-6.83,12.63c-2.37,4.28-4.67,8.3-6.93,12.06
		c-0.31,0.45-0.66,0.96-1.05,1.52c-0.39,0.57-0.83,1.09-1.33,1.58c-2.59-4.44-6.3-9.07-11.13-13.9
		c-4.83-4.82-8.98-10.79-12.46-17.93c-3.49-7.13-6.49-15.39-9-24.78c0.7-1.5,1.67-3.75,2.89-6.74c1.22-2.98,1.7-5.73,1.43-8.24
		c-0.17-0.95-1.22-2.33-3.13-4.15c-1.91-1.81-4.22-3.11-6.92-3.89c-2.7-0.78-5.48-0.61-8.33,0.5c-2.85,1.12-5.09,4.19-6.72,9.21
		c-1.79,5.25-2.46,9.86-2.03,13.81c0.43,3.96,2.19,7.33,5.26,10.11c-2.69,6.8-5.44,12.96-8.25,18.51c-2.18,4.28-4.5,8.93-6.96,13.91
		c-0.19,0.27-0.35,0.57-0.5,0.91c-2.19,4.15-4.47,8.36-6.83,12.63c-2.36,4.28-4.67,8.3-6.93,12.06c-0.31,0.46-0.66,0.96-1.05,1.52
		c-0.39,0.57-0.83,1.09-1.33,1.58c-2.59-4.44-6.3-9.07-11.13-13.9c-4.83-4.82-8.98-10.79-12.46-17.93c-3.49-7.13-6.49-15.39-9-24.78
		c0.71-1.51,1.67-3.75,2.89-6.74c1.22-2.98,1.7-5.73,1.43-8.24c-0.17-0.95-1.22-2.33-3.13-4.15c-1.91-1.81-4.22-3.11-6.92-3.89
		c-2.71-0.78-5.48-0.61-8.33,0.5c-2.85,1.12-5.09,4.19-6.72,9.21c-1.79,5.25-2.46,9.86-2.03,13.81c0.43,3.96,2.19,7.33,5.26,10.11
		c-2.69,6.8-5.44,12.96-8.25,18.51c-2.78,5.47-5.8,11.52-9.04,18.12c-1.2,2.18-2.5,4.46-3.93,6.86c-2.11,3.54-3.82,6.52-5.15,8.92
		c-3.97,6.25-8.25,11.57-12.86,15.96c-4.61,4.39-9.24,7.81-13.91,10.25c-4.67,2.44-9.12,3.95-13.34,4.53
		c-4.22,0.58-7.86,0.07-10.92-1.53c6.83-4.61,13.29-10.13,19.39-16.57c6.09-6.44,11.54-13.21,16.34-20.29
		c4.79-7.09,8.79-14.27,11.98-21.56c3.18-7.28,5.23-14.06,6.14-20.33c0.91-6.27,0.55-11.67-1.07-16.2
		c-1.62-4.52-4.87-7.71-9.74-9.58c-3.56-1.12-7.67-1.29-12.36-0.53c-4.68,0.77-9.59,2.71-14.73,5.82
		c-5.14,3.12-10.29,7.46-15.46,13.04c-5.17,5.58-10.05,12.54-14.61,20.86c-7.61,13.45-12.38,25.25-14.3,35.42
		c-1.9,3.74-3.98,7.62-6.25,11.64c-2.67,4.73-5.31,9.1-7.92,13.13c-2.69,4.63-5.73,8.44-9.12,11.43c-3.39,2.99-6.31,4.76-8.77,5.31
		c-2.46,0.55-4.04-0.29-4.75-2.52c-0.71-2.23,0.16-6.33,2.61-12.29c1.34-3.39,3.16-7.72,5.44-12.97c2.28-5.24,4.61-10.75,7-16.5
		c2.38-5.76,4.85-11.58,7.41-17.46c2.56-5.88,4.83-11.18,6.82-15.88c1.99-4.7,3.6-8.54,4.82-11.52c1.22-2.98,1.93-4.49,2.12-4.52
		c-0.26-0.34-1.31-1.24-3.15-2.67c-1.84-1.43-3.95-2.71-6.32-3.86c-2.38-1.13-4.68-1.89-6.92-2.27c-2.24-0.37-3.8,0.21-4.7,1.75
		c-1.69,3.66-3.88,6.97-6.59,9.93c-2.7,2.96-5.57,5.56-8.6,7.79c-3.04,2.23-6.14,4.09-9.31,5.56c-3.18,1.47-6.1,2.45-8.76,2.94
		c0.24-0.83,0.59-1.59,1.06-2.26s0.82-1.43,1.06-2.26c2.88-6.83,3.52-12.12,1.95-15.87c-1.58-3.74-4.04-5.9-7.39-6.46
		c-3.35-0.56-7.03,0.61-11.02,3.51c-4,2.91-6.87,7.57-8.64,14c-1.56,5.41-1.64,10.1-0.21,14.07c1.42,3.98,3.81,7.03,7.15,9.17
		c-2.69,6.8-5.48,12.97-8.4,18.53c-2.87,5.47-5.92,11.5-9.15,18.08c-1.88,3.46-3.85,7.02-5.93,10.69
		c-2.67,4.73-5.22,9.08-7.63,13.07c-3,5.08-6.17,9.01-9.49,11.79c-3.33,2.78-6.23,4.4-8.7,4.85c-2.48,0.46-4.14-0.27-4.98-2.18
		c-0.85-1.91-0.4-5.09,1.34-9.55c0.71-1.51,1.75-3.87,3.13-7.07c1.38-3.21,2.82-6.58,4.34-10.1c1.51-3.53,2.96-6.9,4.34-10.1
		c1.37-3.21,2.4-5.66,3.07-7.36c4.6-10.3,7.51-19.35,8.73-27.16c1.22-7.8,1.01-13.97-0.61-18.5c-1.62-4.52-4.53-7.19-8.71-7.99
		c-4.19-0.8-9.29,0.63-15.3,4.3c-6.02,3.67-12.82,9.75-20.41,18.24c-7.59,8.49-15.6,19.81-24.01,33.97
		c3.78-9.36,6.91-17.23,9.38-23.59c2.47-6.36,4.05-10.3,4.76-11.81c1.74-4.46,2.15-7.58,1.22-9.38c-0.92-1.8-2.7-2.85-5.31-3.16
		c-2.62-0.3-5.63-0.09-9.04,0.63c-3.41,0.73-6.6,1.32-9.57,1.76c-2.97,0.45-5.36,0.55-7.18,0.29c-1.82-0.26-2.43-1.42-1.83-3.5
		c-1.64,2.86-2.38,5.02-2.21,6.46c0.17,1.45,0.85,2.5,2.06,3.16c1.2,0.67,2.74,0.97,4.6,0.92c1.86-0.05,3.74-0.25,5.65-0.6
		c-2.72,6.61-5.97,14.88-9.74,24.84c-3.78,9.95-7.83,20.79-12.17,32.52c-0.61,1.65-1.24,3.34-1.86,5.01
		c-1.17,2.17-2.43,4.43-3.79,6.81c-2.01,3.52-3.68,6.49-5,8.9c-4.55,7.34-9.22,13.27-14,17.79c-4.78,4.53-9.32,7.68-13.62,9.45
		c-4.3,1.78-7.93,2.1-10.9,0.98c-2.97-1.12-4.88-3.77-5.75-7.95c-0.87-4.17-0.34-9.83,1.59-16.98c1.93-7.15,5.77-15.98,11.51-26.49
		c5.31-9.64,9.51-16.52,12.59-20.63c3.08-4.11,5.31-6.44,6.69-6.99c1.38-0.55,2.02,0.27,1.93,2.45c-0.09,2.19-0.73,4.86-1.92,8.03
		c-1.19,3.17-2.82,6.33-4.9,9.47c-2.08,3.14-4.38,5.34-6.91,6.59c4.86-0.31,9.59-2.7,14.18-7.19c4.59-4.49,8.03-9.55,10.34-15.2
		c2.31-5.64,3.07-11.1,2.3-16.37c-0.78-5.27-4.03-9.05-9.77-11.34c-3.17-1.19-6.14-1.77-8.89-1.76c-2.76,0.02-5.55,0.88-8.38,2.58
		c-2.84,1.7-5.79,4.42-8.84,8.13c-3.06,3.72-6.49,8.58-10.3,14.6c-1.12-3.93-2.87-7.3-5.26-10.11c-2.39-2.81-5.34-4.67-8.86-5.6
		c-5.18-1.41-10.26-0.91-15.23,1.48c-4.98,2.39-9.41,5.82-13.32,10.28c-3.9,4.46-6.96,9.51-9.17,15.13
		c-2.21,5.63-2.96,10.93-2.23,15.92c0.28,1.53,1.6,2.81,3.96,3.85c2.36,1.04,4.87,1.57,7.53,1.57c2.66,0,5.09-0.69,7.29-2.08
		c2.2-1.39,3.39-3.77,3.55-7.15c-1.28,1.62-2.62,2.6-4.03,2.96c-1.41,0.36-1.98-0.86-1.71-3.67c0.25-1.82,0.75-3.93,1.49-6.33
		c0.74-2.4,1.71-4.6,2.92-6.59c1.21-1.99,2.58-3.62,4.12-4.89c1.54-1.27,3.22-1.77,5.04-1.52c3.07,0.62,4.89,3.29,5.46,8
		c0.58,4.72,0.34,10.42-0.68,17.11c-1.03,6.69-2.67,13.83-4.91,21.43c-2.24,7.6-4.81,14.52-7.69,20.76
		c-2.89,6.25-5.84,11.32-8.86,15.22c-3.02,3.91-5.78,5.5-8.28,4.77c-2.72-0.87-4.38-2.68-4.99-5.43c-0.6-2.74-0.46-5.97,0.43-9.68
		c0.89-3.71,2.33-7.67,4.31-11.87c1.98-4.21,4.27-8.32,6.88-12.34c1.7,0.67,3.34,0.52,4.93-0.47c1.59-0.98,2.13-2.31,1.63-3.99
		c-0.97,1.17-2.25,1.4-3.86,0.71c-1.6-0.69-3.35-1.35-5.24-1.99c-1.89-0.63-3.86-0.91-5.91-0.83c-2.05,0.08-3.92,1.46-5.59,4.13
		c-1.35,2.07-2.57,4.28-3.69,6.58c-1.82,3.39-3.68,6.79-5.62,10.2c-2.38,4.18-4.78,8.27-7.19,12.25
		c-6.9,11.71-14.39,21.26-22.48,28.66c-8.09,7.4-16.08,13.16-23.99,17.27c-7.91,4.12-15.32,6.91-22.23,8.38
		c-6.92,1.47-12.56,2.12-16.92,1.94c-8.09-0.09-14.64-1.98-19.66-5.68c-5.02-3.7-8.7-8.48-11.06-14.35
		c-2.37-5.86-3.49-12.5-3.38-19.91s1.37-14.97,3.79-22.7c2.42-7.73,5.91-15.22,10.48-22.46c4.57-7.24,10.09-13.63,16.55-19.15
		c3.85,9.14,10.05,16.07,18.6,20.79c6.56,3.52,12.74,4.99,18.54,4.41c5.8-0.58,10.84-2.34,15.12-5.3c4.28-2.95,7.5-6.8,9.69-11.53
		c2.18-4.73,2.97-9.5,2.38-14.32c-0.59-4.81-2.7-9.29-6.32-13.45c-3.62-4.16-9.24-7.11-16.84-8.86c-7.42-1.78-14.8-2.29-22.14-1.53
		c0.95-5.49,2.46-11.18,4.53-17.08c2.06-5.89,4.54-11.67,7.44-17.32c5.89,2.07,11.85,3.92,17.86,5.57
		c6.01,1.65,11.96,2.92,17.83,3.8c10.12,1.48,18.88,0.95,26.29-1.6c7.4-2.55,13.48-6.18,18.22-10.89
		c4.74-4.71,8.03-10.09,9.87-16.15c1.84-6.05,2.08-11.95,0.72-17.71c-1.36-5.75-4.22-10.89-8.6-15.4
		c-4.38-4.51-10.46-7.62-18.26-9.33c-7.2-1.63-14.22-1.85-21.1-0.69c-6.87,1.17-13.47,3.32-19.78,6.45
		c-6.32,3.13-12.22,7.18-17.7,12.13c-5.49,4.95-10.54,10.41-15.14,16.38c-4.27-1.77-8.79-3.59-13.56-5.47
		c-4.78-1.87-9.62-3.84-14.52-5.89c-9.33-3.6-17.04-5.13-23.15-4.59c-6.1,0.54-10.93,2.12-14.49,4.74
		c-3.55,2.63-5.94,5.67-7.17,9.15c-1.23,3.48-1.75,6.28-1.55,8.41c2.73-2.28,6.21-3.41,10.45-3.4c4.23,0.01,9.04,0.7,14.41,2.07
		c5.37,1.37,11.25,3.34,17.63,5.9c6.38,2.57,13.08,5.27,20.1,8.11c-4.19,8.26-7.46,16.69-9.81,25.29
		c-2.35,8.61-3.46,17.03-3.31,25.27c-8.04,4.44-15.32,10.36-21.83,17.76c-6.51,7.4-11.91,15.49-16.2,24.25
		c-4.29,8.77-7.43,17.91-9.41,27.43c-1.99,9.52-2.59,18.54-1.8,27.06C65.95,580.1,67.75,586.96,70.57,593.13z M747.66,476.09
		c-2.77,3.17-6.91,5.26-12.43,6.28c-5.33,0.98-9.54,0.87-12.61-0.33c-3.08-1.21-5.05-2.81-5.91-4.82c-0.86-2.01-0.55-4.03,0.95-6.08
		c1.49-2.05,4.24-3.44,8.24-4.18c3.62-0.67,7.62-1.11,12.01-1.33c4.39-0.22,8.77-0.73,13.16-1.54
		C751.55,468.92,750.42,472.92,747.66,476.09z M665.68,491.21c-2.77,3.17-6.91,5.26-12.43,6.28c-5.33,0.98-9.54,0.87-12.61-0.33
		c-3.08-1.21-5.05-2.81-5.91-4.82c-0.86-2.01-0.55-4.03,0.95-6.08c1.49-2.05,4.24-3.44,8.24-4.18c3.62-0.67,7.62-1.11,12.01-1.33
		c4.39-0.22,8.77-0.73,13.16-1.54C669.57,484.04,668.44,488.04,665.68,491.21z M553.78,469.02c1.56-6.49,4.93-14.35,10.12-23.58
		c6.52-11.64,12.56-19.69,18.14-24.17c5.57-4.47,9.51-6.33,11.82-5.58c1.06,0.4,0.92,3.13-0.41,8.2
		c-1.33,5.07-3.71,11.12-7.14,18.15c-3.43,7.03-7.96,14.46-13.61,22.3c-5.64,7.83-12.24,14.81-19.77,20.92
		C551.93,480.93,552.21,475.51,553.78,469.02z M465.65,425.16c0.59-4.24,1.57-6.44,2.92-6.59c1.35-0.15,1.24,2.48-0.32,7.89
		c-0.24,0.83-0.44,1.61-0.6,2.33c-0.16,0.72-0.37,1.5-0.6,2.33C465.8,429.76,465.34,427.78,465.65,425.16z M182.09,395.49
		c7.7-4.67,15.5-5.86,23.41-3.58c4.16,1.2,6.83,3.66,8.01,7.38c1.18,3.72,1.26,7.65,0.25,11.77c-2.34,8.7-7.97,13.09-16.92,13.16
		c-8.95,0.08-20.97-2.93-36.07-9C167.28,406.75,174.39,400.16,182.09,395.49z M153.21,486.33c4.47,0.75,7.49,2.46,9.07,5.12
		c1.57,2.66,1.94,5.21,1.11,7.62c-0.84,2.42-2.72,4.2-5.66,5.33c-2.94,1.13-6.58,0.62-10.92-1.53c-5.2-2.58-8.51-7.68-9.91-15.3
		C142.12,486.01,147.56,485.6,153.21,486.33z"/>
</g>
</svg>
