<svg id="Layer_1" data-name="Layer 1" xmlns="http://www.w3.org/2000/svg" viewBox="0 0 204.64 840.42"><defs><style>.cls-1{fill:#f3f4f5;}</style></defs><title>side-b</title><path class="cls-1" d="M112.47,48.77c-3.74-2.52-7.74-3.87-12.16-3.26-6,.83-11.66-.25-17.3-2a5.44,5.44,0,0,1-.94-.3A.89.89,0,0,1,82,41.65a3.54,3.54,0,0,1,1.36-.56,32.49,32.49,0,0,1,3.92-.47c3.29-.14,6.58-.2,9.88-.28,1.07,0,2.14,0,3.31,0-1-1-2.16-.77-3.26-.87-3.2-.3-6.41-.54-9.6-.86A11.29,11.29,0,0,1,84.92,38Q77,35.13,69.13,32.2a12.58,12.58,0,0,1-2.41-1.26c-.28-.18-.61-.74-.52-1s.63-.89,1-.89a26.11,26.11,0,0,1,4.42.26c1.38.23,2.69.81,4.06,1.09a60.51,60.51,0,0,0,6.8,1.21A48,48,0,0,1,93.6,33.73a7.48,7.48,0,0,0,3.22.5c-.48-.38-.93-.8-1.44-1.13a8,8,0,0,0-1.54-.78C87.43,29.86,81.93,26,76.74,21.57c-3-2.56-6.21-4.92-9.31-7.38a10.69,10.69,0,0,1-1.82-1.66,1,1,0,0,1,.72-1.8,7.06,7.06,0,0,1,2.9.37,43.76,43.76,0,0,1,5.08,2.54c2.79,1.6,5.49,3.35,8.28,4.95A125.59,125.59,0,0,1,99.24,30.16c.17.14.38.24,1,.65C99.5,29.58,99,28.75,98.47,28,94,21.92,90.88,15.05,87.13,8.56a6.41,6.41,0,0,1-.8-2.32,1.49,1.49,0,0,1,2.15-1.73A6,6,0,0,1,90.72,6a36.24,36.24,0,0,1,2.45,3.4C95,12,96.83,14.66,98.63,17.32c1.34,2,2.7,3.94,3.94,6,1,1.54,1.7,3.2,2.6,4.78A23.09,23.09,0,0,1,108,34.9a3.56,3.56,0,0,0,.85,1.53A7.6,7.6,0,0,0,109,33c-.56-4.33-1.14-8.66-1.62-13a14.79,14.79,0,0,1,.08-3.7c.23-1.6.92-2.19,2.19-2.2s1.79.46,2.17,1.94a17.11,17.11,0,0,1,.37,2.68,52.19,52.19,0,0,0,2,11.43,16.82,16.82,0,0,0,.86,2.31,25.17,25.17,0,0,1,2.11,6.83c.69,4.09,3.5,6.28,7.54,8-.55-2-.92-3.59-1.4-5.14A32,32,0,0,1,122,29.9a9.72,9.72,0,0,1,.71-3.11c.63-1.48,2.1-1.59,2.76-.11a16.82,16.82,0,0,1,1.45,5.18,64.67,64.67,0,0,0,2.55,13.08,17.22,17.22,0,0,0,3.95,7.31,43.38,43.38,0,0,1,3.1,3.54c.82,1.06.4,1.92-.93,2a12.48,12.48,0,0,1-7.29-2,31.5,31.5,0,0,0-5.91-2.38,15.17,15.17,0,0,0-10.4,0,45.32,45.32,0,0,1-14.13,2.16c-1.81,0-3.62.18-5.44.22A9.06,9.06,0,0,1,90,55.51c-.46-.13-1.1-.62-1.14-1a1.86,1.86,0,0,1,.8-1.35,5.91,5.91,0,0,1,2-.89c2.08-.51,4.18-.94,6.27-1.39,1.77-.38,3.57-.63,5.3-1.15,2.38-.71,4.72-1.48,7.26-1A10.67,10.67,0,0,0,112.47,48.77ZM85.64,42.12l0,.55A27.76,27.76,0,0,0,98.4,44.19,24.87,24.87,0,0,1,113.47,47a3.64,3.64,0,0,1,1.23.8,1.69,1.69,0,0,1,.43,1.29,1.48,1.48,0,0,1-1,.85,17,17,0,0,1-3.7.16,16.72,16.72,0,0,0-6.08.81c-2.22.61-4.49,1-6.74,1.48C95.7,52.79,93.75,53,92,54a51.38,51.38,0,0,0,12-.43,97.18,97.18,0,0,0,9.64-2.17c5.8-1.5,10.8,1,15.91,3,.14.06.23.25.36.33a9.35,9.35,0,0,0,5,1.48c-1.29-1.55-2.35-2.9-3.49-4.17a13.26,13.26,0,0,1-2.74-4.95,61.8,61.8,0,0,1-3.15-15.22,7.44,7.44,0,0,0-1.28-4.33c-.23.38-.51.63-.53.9a58.45,58.45,0,0,0-.31,5.9c.11,3.75,1.35,7.29,2.33,10.86a12.18,12.18,0,0,1,.49,1.91c.06.53,0,1.42-.22,1.55a2.77,2.77,0,0,1-1.82,0,10.77,10.77,0,0,1-2-.94c-3.63-2-6-4.76-6.6-9a28,28,0,0,0-1.4-4.72c-.44-1.32-1-2.6-1.46-3.93a53.42,53.42,0,0,1-2-11.44A18.36,18.36,0,0,0,110.2,16c0-.15-.4-.32-.6-.3a.69.69,0,0,0-.53.39,9.6,9.6,0,0,0-.28,2.43c.35,3.77.79,7.54,1.19,11.31.32,3,.65,6.07.9,9.11a1.42,1.42,0,0,1-.6,1.18,1.33,1.33,0,0,1-1.21-.47,43.78,43.78,0,0,1-2.46-4.51c-.52-1.12-.66-2.41-1.22-3.5a96.05,96.05,0,0,0-5.72-10.4c-3-4.41-6.52-8.51-9.11-13.24a3.92,3.92,0,0,0-2.82-2.08,12.72,12.72,0,0,0,.65,1.88c3,5.38,6.06,10.79,9.19,16.12,1.63,2.77,3.51,5.4,5.23,8.12.52.83,1.12,1.95.12,2.68s-1.61-.39-2.25-1c-1.77-1.61-3.42-3.36-5.29-4.84C87.9,23,79.48,18.59,71.39,13.64a26.33,26.33,0,0,0-3.3-1.44,1.64,1.64,0,0,0,.67,1.14c4,3.19,8,6.33,12,9.58a47.93,47.93,0,0,0,12,7.31A28.46,28.46,0,0,1,96.32,32a6.75,6.75,0,0,1,2,1.76,2.14,2.14,0,0,1,.21,1.78c-.14.36-.94.63-1.45.63A11,11,0,0,1,95,35.67c-3.37-.79-6.7-2-10.11-2.26A64.74,64.74,0,0,1,72,31a16.81,16.81,0,0,0-1.88-.34A4.76,4.76,0,0,0,72,31.75c3.32,1.25,6.64,2.5,10,3.71a30.72,30.72,0,0,0,9.6,2.21c2.15.07,4.3.15,6.42.42a20,20,0,0,1,4.29,1.09c.83.3,1.74,1,1.44,2s-1.47.93-2.31.77a23.74,23.74,0,0,0-7.14,0c-1.55.16-3.13.09-4.7.1C88.27,42.13,87,42.12,85.64,42.12Z"/><path class="cls-1" d="M78.34,814.68a13.55,13.55,0,0,1-2,.36,1.12,1.12,0,0,1-1-1.84,5.1,5.1,0,0,1,.84-.9A10.47,10.47,0,0,0,79,807.73,9,9,0,0,1,82,803.35a14.5,14.5,0,0,0,2.86-3.05,7.73,7.73,0,0,1,4.62-3.48,12.24,12.24,0,0,0,1.2-.51c-.62-.79-1.17-1.45-1.67-2.14-1-1.33-.8-2.28.56-3.38,1.55-1.25,2.94-1.32,3.93-.13a19,19,0,0,1,1.25,2,7.87,7.87,0,0,0,1.36-3.9,19.55,19.55,0,0,1,3.6-8.82,25.63,25.63,0,0,0,2.1-4.19,8,8,0,0,1,.76-1.55,1.86,1.86,0,0,1,1.15-.66c.21,0,.61.52.7.87a8.11,8.11,0,0,1-.48,6.24,11.51,11.51,0,0,0-1.5,4.93c0,.24,0,.48,0,1,.73-.2,1.41-.34,2.06-.55a19.64,19.64,0,0,1,23,8.38,34.51,34.51,0,0,1,5.07,17.87,26.84,26.84,0,0,1-18.16,27,20.06,20.06,0,0,1-11.46.67,38.83,38.83,0,0,1-17.13-8.47c-4.38-3.83-6.59-9-7.42-14.7C78.41,816.09,78.4,815.45,78.34,814.68Zm14.08-13.17c-.23,0-.44,0-.54.11-.42.39-.8.83-1.22,1.22-3.43,3.18-6.93,6.29-9.75,10.08A3.28,3.28,0,0,0,80,815a20.56,20.56,0,0,0,7,15.29,34.92,34.92,0,0,0,8.54,5.41c4,1.89,8.26,3.37,12.85,3.18,10.08-.44,19.71-8.72,22.08-18.83,2.08-8.87.42-17.38-4.27-25.24-4-6.77-14.52-10.78-22.65-6.94a5,5,0,0,0-3.17,4.52c-.16,2-.12,2.13,2,2a14.09,14.09,0,0,0,4.07-.87,10.63,10.63,0,0,1,4.82-.76c1.89.13,3.79.06,5.66.25a19,19,0,0,1,4.08.91c1,.31,1,1.1.17,1.65-1.52,1-3,1.94-5,1.7a8.28,8.28,0,0,0-3.44.18,25,25,0,0,1-7.82,1,10.08,10.08,0,0,0-5,1.34,3.36,3.36,0,0,0-2,3.16,8.7,8.7,0,0,1-.31,2.69,14,14,0,0,0-.54,6.1,7.34,7.34,0,0,1-1.66,5.55c-.67.84-1.32,1.7-2,2.48a4.32,4.32,0,0,1-1.18.65c-.07-.44-.33-1-.18-1.29a7.79,7.79,0,0,0,.31-4.86,5,5,0,0,1-.09-1.22C92.24,809.19,92.33,805.36,92.42,801.51ZM78.23,812.73c2-.66,2.91-2.16,4-3.51a45.8,45.8,0,0,1,3.62-4c1.28-1.27,2.67-2.44,4-3.66.48-.44.9-1,1.41-1.38s1.42-1.21,2.17-.52a2.33,2.33,0,0,1,.62,1.94A19.32,19.32,0,0,0,94,808.7a9.86,9.86,0,0,1-.2,3.2,7.35,7.35,0,0,0,.39,4.1,4.56,4.56,0,0,0,1.34-4.21,14.7,14.7,0,0,1,.57-6.35,7.89,7.89,0,0,0,.26-2.44,5,5,0,0,1,2.84-4.57,15.13,15.13,0,0,1,6.93-1.54,18.52,18.52,0,0,0,4.16-.37,18.33,18.33,0,0,1,6.1-.76c.88,0,1.78.15,2.4-.74-1.38-.51-9.33-1-10.51-.63a3.36,3.36,0,0,0-.68.28c-2.26,1.25-4.78,1.15-7.23,1.41-1.08.12-1.5-.4-1.54-1.41a12.57,12.57,0,0,1,1-5.79,14.86,14.86,0,0,0,1.14-3.49,16.11,16.11,0,0,1,1.77-5.62,2.51,2.51,0,0,0,.3-2.67c-1.06,1.79-2,3.56-3.08,5.16a13.4,13.4,0,0,0-2,5c-.63,3-1.4,5.93-2.14,8.89,0,.2-.28.5-.43.5a1.11,1.11,0,0,1-.83-.31,9.19,9.19,0,0,1-.71-1.56c-.34-.84-.61-1.72-1-2.52-.52-1-1-1.15-2-.56s-1.06,1-.33,2,1.34,1.46,2,2.24a8.29,8.29,0,0,1,.74,1.42c-.44.11-.89.2-1.32.33-2,.61-4,1-5.34,2.81-1.17,1.57-2.65,2.92-4,4.39a12,12,0,0,0-1.81,2.3C79.89,808.87,79.15,810.69,78.23,812.73Z"/><path class="cls-1" d="M3.32,325.21a14.56,14.56,0,0,1-2,.36,1.13,1.13,0,0,1-1-1.84,5.16,5.16,0,0,1,.85-.9A10.65,10.65,0,0,0,4,318.26,8.91,8.91,0,0,1,7,313.88a15,15,0,0,0,2.86-3.05,7.73,7.73,0,0,1,4.62-3.48c.3-.08.58-.25,1.2-.51-.62-.79-1.17-1.45-1.67-2.14-1-1.33-.8-2.28.56-3.38,1.54-1.25,2.94-1.32,3.93-.13a17.48,17.48,0,0,1,1.24,2,7.77,7.77,0,0,0,1.36-3.9,19.78,19.78,0,0,1,3.6-8.82,24.13,24.13,0,0,0,2.1-4.19,8.58,8.58,0,0,1,.76-1.55,1.88,1.88,0,0,1,1.15-.66c.22,0,.61.52.7.87a8.07,8.07,0,0,1-.48,6.24,11.56,11.56,0,0,0-1.49,4.93,7.94,7.94,0,0,0,.05,1c.73-.19,1.4-.33,2.06-.54a19.65,19.65,0,0,1,23,8.38,34.58,34.58,0,0,1,5.07,17.87,26.83,26.83,0,0,1-18.17,27,20,20,0,0,1-11.45.67A38.86,38.86,0,0,1,10.9,342c-4.38-3.83-6.58-9-7.41-14.7C3.4,326.62,3.39,326,3.32,325.21ZM17.4,312c-.23,0-.43,0-.53.11-.42.39-.8.83-1.22,1.22A75.54,75.54,0,0,0,5.9,323.45a3.23,3.23,0,0,0-1,2.12,20.53,20.53,0,0,0,7,15.29,35.6,35.6,0,0,0,8.54,5.41c4,1.88,8.26,3.37,12.86,3.17,10.08-.43,19.71-8.72,22.08-18.82,2.08-8.87.42-17.38-4.27-25.25-4-6.76-14.52-10.77-22.66-6.93A5,5,0,0,0,25.34,303c-.16,2-.11,2.13,2,2a14.36,14.36,0,0,0,4.06-.87,10.54,10.54,0,0,1,4.83-.76c1.88.13,3.78.06,5.66.25a19.1,19.1,0,0,1,4.08.91c1,.31,1,1.09.17,1.65-1.52,1-3.05,1.94-5,1.7a8.11,8.11,0,0,0-3.44.18,25,25,0,0,1-7.82,1,10.15,10.15,0,0,0-5,1.34,3.39,3.39,0,0,0-2,3.16,8.59,8.59,0,0,1-.3,2.68,14.21,14.21,0,0,0-.55,6.11,7.3,7.3,0,0,1-1.66,5.55c-.66.84-1.32,1.7-2,2.48a4.26,4.26,0,0,1-1.17.65c-.07-.44-.33-1-.18-1.3a7.69,7.69,0,0,0,.3-4.85,5.56,5.56,0,0,1-.08-1.22C17.23,319.72,17.32,315.89,17.4,312ZM3.22,323.26c2-.66,2.91-2.16,4-3.51a47.57,47.57,0,0,1,3.63-4c1.27-1.28,2.66-2.44,4-3.66.49-.45.91-1,1.42-1.38s1.41-1.21,2.17-.52a2.32,2.32,0,0,1,.61,1.94,19.32,19.32,0,0,0,0,7.11,10.14,10.14,0,0,1-.2,3.2,7.26,7.26,0,0,0,.39,4.1,4.55,4.55,0,0,0,1.33-4.21,14.85,14.85,0,0,1,.58-6.35,8.23,8.23,0,0,0,.25-2.44A5,5,0,0,1,24.17,309a15.15,15.15,0,0,1,6.93-1.53,18.55,18.55,0,0,0,4.17-.37,18.33,18.33,0,0,1,6.1-.76c.87,0,1.78.15,2.4-.74-1.39-.51-9.33-1-10.51-.63a3.44,3.44,0,0,0-.69.28c-2.25,1.25-4.77,1.15-7.22,1.41-1.08.12-1.51-.4-1.54-1.41a12.69,12.69,0,0,1,1-5.79A14.55,14.55,0,0,0,26,295.92a16.33,16.33,0,0,1,1.77-5.62,2.5,2.5,0,0,0,.31-2.68c-1.06,1.8-2,3.56-3.09,5.17a13.24,13.24,0,0,0-2,5c-.64,3-1.41,5.94-2.14,8.89-.05.21-.28.51-.43.51a1.08,1.08,0,0,1-.83-.31,9.19,9.19,0,0,1-.71-1.56c-.34-.84-.61-1.72-1-2.52-.52-1-1-1.15-2-.56s-1.06,1-.32,1.95,1.34,1.47,1.94,2.25a7.68,7.68,0,0,1,.75,1.42c-.44.11-.89.2-1.32.33-2,.61-4,1-5.34,2.81-1.17,1.57-2.65,2.92-4,4.39a12.12,12.12,0,0,0-1.82,2.3C4.87,319.4,4.14,321.22,3.22,323.26Z"/><path class="cls-1" d="M148,676.09a53.81,53.81,0,0,1-1.12,5.47,52,52,0,0,0-1.84,11,16.25,16.25,0,0,1-7.79,13.09,4.51,4.51,0,0,0-1.41,1.3,5.62,5.62,0,0,1-4.91,2.87c-1.64,0-2.12.9-2.56,2.13a47.67,47.67,0,0,1-7.68,12.93,9.13,9.13,0,0,1-4.82,3.31,2.32,2.32,0,0,1-3-1.07,1.29,1.29,0,0,1,.41-1.94c5.55-3.2,8-8.81,10.87-14.07.15-.29.27-.6.42-.9.59-1.13,1-2.15-.2-3.3a3.76,3.76,0,0,1-.62-2.32c-.11-1.63-.12-3.27-.09-4.9a5.82,5.82,0,0,1,.35-2.17c1.64-3.78,3.1-7.61,5-11.31a38.77,38.77,0,0,0,4.24-22c-.21-1.79-.9-3.52-1.23-5.3q-.71-3.75-1.21-7.55c-.43-3.26-.78-6.54-1.15-9.82a49.44,49.44,0,0,1-.5-5.41,30.38,30.38,0,0,0-1.71-9.95,19.47,19.47,0,0,1-.74-4.6c-.07-.79,0-1.88,1-2a2.46,2.46,0,0,1,1.83.95c2.83,3.75,6,7.36,7.17,12a89.76,89.76,0,0,0,7.22,18.39,29.47,29.47,0,0,1,3.54,12.77C147.5,667.41,147.79,671.2,148,676.09Zm-19.4-54.44-.64.19a26.93,26.93,0,0,0,.76,3.48,32.85,32.85,0,0,1,1.83,9.68c.14,3,.65,6,1,9.08.23,2.13.58,4.26.64,6.4a34,34,0,0,0,1.28,8.28,35.06,35.06,0,0,1,1.3,6c.73,7.33-1.17,14.23-3.77,21a2.26,2.26,0,0,1-.22.44c-2.44,3.5-3.66,7.56-5.24,11.44a5.53,5.53,0,0,0,5.6,7.69c.49,0,1,0,1.48,0a8.27,8.27,0,0,0,5.83-2.36c3-2.91,5-6.34,5.17-10.63a42.45,42.45,0,0,1,1.9-11.18,20.63,20.63,0,0,0,.92-8.55,24.23,24.23,0,0,1-.26-3.7,36.64,36.64,0,0,0-5-20.14c-.28-.5-.5-1-.75-1.56a57.32,57.32,0,0,1-4.66-12.49C134.69,629.6,131.63,625.65,128.63,621.65Zm-14.44,105c2.51-.07,3.7-.53,5.18-2.51,2-2.69,3.9-5.49,5.65-8.36a36.78,36.78,0,0,0,2.32-5.15c.16-.38.63-1-.15-1.18-.25,0-.75.46-1,.82-.45.78-.75,1.64-1.18,2.43C122.3,717.79,119.5,722.89,114.19,726.6Zm11.33-21.47c1.53,3.46,5.1,4.27,8.1,1.83a6.27,6.27,0,0,0-2-.19A6.55,6.55,0,0,1,125.52,705.13Z"/><path class="cls-1" d="M134.11,270.05a31.32,31.32,0,0,1,3.8,1.13c.94.41,3.87,5.87,4,6.93a5.23,5.23,0,0,1-1.25,3.41,62.69,62.69,0,0,1-9.13,10.72c-5.86,5.57-11.81,11-18.57,15.56A107.26,107.26,0,0,1,98.82,316a32.06,32.06,0,0,1-3.24,1.19c-2.83,1-5.14.09-7.16-2a15.84,15.84,0,0,1-3.55-6.16,3.9,3.9,0,0,1,.14-2.63,13.93,13.93,0,0,1,2.63-4.13c10.53-10,21.55-19.49,33.93-27.21a51.63,51.63,0,0,1,7.27-3.68A35.06,35.06,0,0,1,134.11,270.05ZM90.39,311.94a14.27,14.27,0,0,0,8.17-2.89c5.93-4.32,12-8.54,17.69-13.1,6.07-4.82,12.17-9.63,17.45-15.35a32.8,32.8,0,0,0,3.4-4.23c1.1-1.68.83-2-.5-3.61a2.86,2.86,0,0,0-3-1.07,19,19,0,0,0-4.51,1.2,66.84,66.84,0,0,0-7.85,4.16C110,284.15,100,292.72,90.32,301.74a24.93,24.93,0,0,0-3.22,3.73c-.88,1.23-1.35,2.55-.37,4.11A4.45,4.45,0,0,0,90.39,311.94Zm48.71-35.89A46.83,46.83,0,0,1,130,286.34a301,301,0,0,1-30.6,23.93c-.74.51-1.55.94-2.33,1.39a14.41,14.41,0,0,1-8.16,1.61c1.46,2,2.9,3.21,5.12,2.76a19.06,19.06,0,0,0,4-1.25,101.29,101.29,0,0,0,14.32-8.32c6.75-4.54,12.67-10,18.52-15.6a59.62,59.62,0,0,0,8.76-10.4C140.83,278.54,140.76,278,139.1,276.05Z"/><path class="cls-1" d="M201.93,157.7c-.26,5.7-.5,11.22-.75,16.73a3.85,3.85,0,0,0,.71,2.17,18.12,18.12,0,0,1,.75,17.52c-1.16,2.42-3.36,4-5.61,5.46a77.62,77.62,0,0,1-16,7.79c-7.65,2.64-15.32,5.22-23.09,7.45-14.12,4.06-28.24,8.14-42.59,11.36a233.17,233.17,0,0,1-31.51,5,72.85,72.85,0,0,1-19.22-.89c-8.31-1.48-12.31-8.16-11.51-14.78A2.94,2.94,0,0,0,52.4,213,39.83,39.83,0,0,1,46,202.3a7.14,7.14,0,0,1-.12-5.3,2.38,2.38,0,0,0,0-1.58c-.48-1.31-1.09-2.57-1.66-3.86-.13-.3-.2-.68-.43-.87-3.26-2.76-2.88-6.43-2.31-10a7.8,7.8,0,0,0,.05-4c-.76-2.1-.44-3.88,1.42-5.25,1-.76,1.09-1.72,1.09-3,0-2.87-1-4.69-3.9-5.27a5.56,5.56,0,0,1-1.54-.77,3.48,3.48,0,0,0-3.74-.23,1.75,1.75,0,0,1-.93.31c-.46,0-1.07-.12-1.3-.42a1.42,1.42,0,0,1-.1-1.35c1.6-2,2.86-4.32,5.17-5.57a2.73,2.73,0,0,0,1.61-2.16,37.31,37.31,0,0,1,11.48-20.87,110.84,110.84,0,0,1,26.59-17.49,166.78,166.78,0,0,1,45.92-14.39,71.58,71.58,0,0,1,35.13,3.2,52.14,52.14,0,0,1,15.43,8.26,17.62,17.62,0,0,1,5.64,7.09,2,2,0,0,0,1.59,1.25c2.08.51,4.12,1.18,6.14,1.89,1,.35,2.13.86,2.24,2.07a3,3,0,0,1-1.75,2.78,1.64,1.64,0,0,0-.42.26c-1,1.14-2,2.3-3.08,3.45.66,1.41,1.3,2.83,2,4.22a1.06,1.06,0,0,0,.8.36c.57,0,1.15-.13,1.72-.11,2.51.12,3.32.71,4.15,3.1.46,1.31.7,2.57,2.54,2.88.86.15,1.76,1.25,2.25,2.13,2.3,4.11,4.46,8.29,6.66,12.44a1.72,1.72,0,0,1,.26.69,3.44,3.44,0,0,1-.1,1.65c-.44.71-1.16.33-1.77.06A4.29,4.29,0,0,0,201.93,157.7Zm-23.5-37.33a16.78,16.78,0,0,0-.84-2.17,17.3,17.3,0,0,0-5-5.69c-7.13-5.38-15.27-8.39-23.91-10.28-11.13-2.43-22.16-1.58-33.14.87A172.56,172.56,0,0,0,86,112.3,126.87,126.87,0,0,0,53.9,131.23a38.6,38.6,0,0,0-12.83,20.1,15.64,15.64,0,0,0-.33,2.92c0,.13.32.36.52.41s.45-.23.43-.32c-.25-1.88,1.15-2.12,2.36-2.07a16,16,0,0,1,4.31.84,6.19,6.19,0,0,0,3.83.27,9,9,0,0,1,3.4-.1,23,23,0,0,1,3.21.76l.44-.29c-.24-.34-.63-.66-.7-1-.41-2.25,1.13-3.53,3.24-2.67a20.33,20.33,0,0,1,2.34,1.36c1,.58,2,1.16,3,1.71a3.35,3.35,0,0,0,2.84.16,12,12,0,0,1,3.13-.37,24.2,24.2,0,0,0,2.7,0c3.09-.58,2.62-.59,2-2.91a4.13,4.13,0,0,1,1.6-5c1.54-1.1,3-2.27,4.62-3.31s3.21-1.78,4.87-.76,3.66,1.36,5.49,2.05a1.76,1.76,0,0,0,2.3-.71c.66-.8,1.51-1.9,2.36-2,1.76-.16,3-1.32,4.45-1.89.63-.23,1.1-.94,1.57-1.49s.57-1,.93-1.46a1,1,0,0,1,1.69,0,4.16,4.16,0,0,0,3.37,1.53,2.56,2.56,0,0,1,.73.09c2.39.74,4.35-.19,6.22-1.55a32.21,32.21,0,0,1,3.71-2.46,4.39,4.39,0,0,1,5.1.46c2.21,1.72,4.25,1.34,5.58-1.14a6.35,6.35,0,0,1,3-3.18c2.13-.87,4.31-1.65,6.52-2.33,1.21-.37,1.88.08,2.2,1.33a24.11,24.11,0,0,1,.39,2.84l7.9-3.71a4,4,0,0,1,1.13-.49,2,2,0,0,1,1.37.15c.24.21.14.87.09,1.31a9.23,9.23,0,0,1-.5,1.42c1.63-.78,3.19-.92,4.12-2.25a4.62,4.62,0,0,1,3.54-2,3.67,3.67,0,0,0,2.73-1.47,5.84,5.84,0,0,1,3.07-2,11.45,11.45,0,0,0,2.91-1.33A6.72,6.72,0,0,1,178.43,120.37Zm22.86,59.08c-1.18,3-1.18,3-4.07,1.14-.06,0-.12-.14-.19-.14a2.85,2.85,0,0,0-1.12,0c-6,2-12.12,3.8-18.07,6-11.16,4.13-22.64,7.21-34,10.57q-14.37,4.23-28.79,8.27-7.14,2-14.39,3.62c-5.72,1.29-11.47,2.39-17.21,3.55a30.87,30.87,0,0,1-3.9.67c-7.88.59-15.7,2.31-23.66,1.27-.83-.11-1.18.18-1.3,1-.87,6.42,3.55,11.88,7.85,12.79,1.37.28,2.71.73,4.09,1a67.74,67.74,0,0,0,16.77.63A228.7,228.7,0,0,0,113.81,225c15-3.33,29.74-7.61,44.49-11.84,7.22-2.06,14.35-4.44,21.45-6.89a78,78,0,0,0,16.67-8.09c2.74-1.76,5.24-3.85,5.88-7.29a47.13,47.13,0,0,0,.77-6.37A8.72,8.72,0,0,0,201.29,179.45Zm-6-.16c-3.94-4.34-8.3-6.27-13.77-5.66-6.4.71-12.81,1.24-19.22,1.83a2.58,2.58,0,0,0-2.39,1.38c-.71,1.27-1.79,1.44-3.2.82-.6-.27-1.11-.73-1.7-1a2.8,2.8,0,0,0-1.36-.34c-3,.28-6,.75-9.06.9a28.19,28.19,0,0,0-9.9,1.87c-2,.85-4,1.46-6.06,2.17a19.63,19.63,0,0,0-5.79,2.67,18.7,18.7,0,0,1-4,1.87,28.88,28.88,0,0,0-3,1.22c-4.67,2.64-9.29,5.38-14,8a19.88,19.88,0,0,0-7.51,7.36c-.92,1.54-1.55,3.25-2.32,4.89s-1.34,1.83-2.89,1.07a9.78,9.78,0,0,1-1.49-.89c-2.49-1.76-5-3.44-7.41-5.35a18.45,18.45,0,0,0-8.2-3.84,29.58,29.58,0,0,1-3.39-.72c-2.39-.77-4.32-.85-5.87,1.77-1.1,1.85-2.37,1.69-4.11.3a2.25,2.25,0,0,0-1.46-.61c-3.85.89-3.48-.15-4.79,3.88a21.45,21.45,0,0,0-.94,4.09,5.12,5.12,0,0,0,4.77,6,50.14,50.14,0,0,0,7.65.2c5.34-.38,10.67-1,16-1.52.82-.09,1.63-.27,2.43-.44,6.31-1.28,12.64-2.5,18.92-3.89,4.43-1,8.82-2.13,13.19-3.37,5.4-1.52,10.74-3.26,16.13-4.81,11.1-3.2,22.26-6.23,33.33-9.54,7.83-2.34,15.55-5,23.32-7.54C189.77,181.16,192.33,180.27,195.24,179.29Zm-48.48-6.63c-.5-.41-.61-.55-.75-.6A71.14,71.14,0,0,0,120.76,168c-2.71.09-5.42-.09-8.13-.12a1.67,1.67,0,0,0-1.14.33c-1.73,2.07-3.39,1.55-5.08,0a2.45,2.45,0,0,0-.42-.25,1.72,1.72,0,0,0-2.6.34c-.15.19-.36.34-.53.52-1.16,1.27-2.39,2-4.09.84-.26-.18-.88,0-1.27.18a7.12,7.12,0,0,0-3.35,2.79,3.62,3.62,0,0,1-2.82,1.81,5.72,5.72,0,0,0-3.45,1.75,5.62,5.62,0,0,1-4,1.81,4.25,4.25,0,0,0-3.89,2.1c-1.35,1.85-3.12,2.69-5.39,1.68a1.89,1.89,0,0,0-2.53.87,12.64,12.64,0,0,0-1,1.69c-1.74,3.46-3.45,6.94-5.16,10.41-.05.1.07.29.16.58a11.07,11.07,0,0,0,1.38-.08c3.42-.54,6.83-1.07,10.25-1.65a208,208,0,0,0,23-4.91c12.7-3.69,25.17-8,37.62-12.4C141.08,175.26,143.74,174,146.76,172.66Zm-101.33-6c0,4.28.92,5.1,4.68,4.74,1.4-.13,2.79-.3,4.18-.53q6.59-1.08,13.18-2.23a248.88,248.88,0,0,0,33.93-8.13,102.86,102.86,0,0,0,21.14-9.62,22.4,22.4,0,0,0,6.2-5.27c.91-1.16,1.49-2.46.41-4.09l-.68,1.19a2.75,2.75,0,0,1-3.23,1.63,8.07,8.07,0,0,0-2.62.45c-.72.13-1.69.61-2.11.31-2.19-1.53-3.86-.78-5.67.71-.69.57-2,.33-2.78.86-2,1.39-3.84,1-5.83.07-1.82-.85-2.56-.56-3.59,1.27-.49.86-.81,1.81-1.28,2.68-1.48,2.68-4,3.62-6.66,2.31a7.52,7.52,0,0,0-3.8-.73c-1.67.07-2.45-.79-2.35-2.44,0-.81.36-1.6.47-2.42.16-1.26-.71-2-1.8-1.33a13.07,13.07,0,0,0-2.6,2.23,1.74,1.74,0,0,0-.07,2.46,10.63,10.63,0,0,1,1.19,1.88c.83,1.85.31,2.75-1.67,3.11-.72.13-1.63.14-2.08.58-1.66,1.63-3.69,2.07-5.87,2.29-1.67.17-2.91,1.06-4.3,2.79,4.35-1,8.15-1.73,11.89-2.72a148.24,148.24,0,0,0,25.49-8.79,7.77,7.77,0,0,1,1.85-.68c.32-.06.71.24,1.07.37-.19.3-.37.61-.57.91,0,0-.15.06-.22.09-5.93,2.52-11.87,5-18,6.9a213,213,0,0,1-34.84,7.39c-2.13.29-4.17.27-6.1,1.86S47.87,168.28,45.43,166.63Zm71.9-.48.06.41c1.68,0,3.37-.05,5.06-.06A64.08,64.08,0,0,1,148,171.45c2.94,1.25,5.69,3,8.5,4.5,1.55.84,2,.75,2.54-.88.63-1.88,1.23-3.76,1.73-5.68a31,31,0,0,1,3.87-9.31c1.05-1.6,1.85-3.37,2.77-5.09a3.14,3.14,0,0,0-3.45.23,6.47,6.47,0,0,1-4.53.78c-.41-.07-.88-.27-1.21-.14-2.25.86-4.5,1.6-6.93.79-2.08,1.71-4.25,1.21-6.43.25-2.34.95-4.63.51-6.9-.28-2.59.8-4.1-.3-4.89-2.73,0-.1-.25-.15-.54-.3-.22.89-.36,1.78-.65,2.61a5.62,5.62,0,0,1-1.09,2.17,32.23,32.23,0,0,0-3.42,3.77c-.46.61-1.55.79-2.38,1.08-.61.21-1.38.12-1.9.44a13.29,13.29,0,0,1-5,2C117.79,165.68,117.57,166,117.33,166.15Zm82,14.14c.12-1.23.24-2,.28-2.81.16-3.62.3-7.25.46-10.87.14-2.88.26-5.76.48-8.63a3.27,3.27,0,0,0-1.65-3.29,1,1,0,0,0-1.47.06,19.84,19.84,0,0,1-4.17,3c-4.87,2.22-9.79,4.37-14.79,6.27-4.77,1.82-9.68,3.3-14.51,5-.6.2-1.42.47-1.64.94A31.68,31.68,0,0,0,161,174c1-.05,1.65-.07,2.3-.13,5.66-.53,11.32-1.1,17-1.59a34.46,34.46,0,0,1,5.18-.08,10.73,10.73,0,0,1,6.41,2.26c1.47,1.2,3,2.36,4.45,3.53C197.2,178.7,198.1,179.38,199.28,180.29Zm-15.1-42a25,25,0,0,0-7.23-5.74,2.33,2.33,0,0,0-3.15.39c-1.16,1.4-2.72,1.72-4.36,2.06s-3.18.86-4.78,1.23-3.43.16-4.58,1.85c-.24.34-1.07.36-1.63.39a11.22,11.22,0,0,1-2.72-.08,6,6,0,0,0-5,.7,17.37,17.37,0,0,0-3.75,3.76c-1.09,1.51-1.06,1.77-2.88,1.32a13.37,13.37,0,0,0-6.13-.05,5.83,5.83,0,0,1-5.16-.93,7.67,7.67,0,0,0-1.41-.68c-.22.91-.34,1.64-.57,2.33-1,2.92.38,4.84,3.48,4.7a148.36,148.36,0,0,0,42-7.73C178.94,140.93,181.72,140.3,184.18,138.33Zm-135.31,42c0,.41.05.58.06.74,0,.84,1.17,2,.17,2.39-1.3.49-1.26-1.14-1.55-1.94s-.75-1.41-1.76-1.3a8.65,8.65,0,0,1-1.23-.11c-1.44-.07-1.8.13-1.89,1.59a19.53,19.53,0,0,0,.19,4.18c.16,1.09,0,2.58,1.29,3s2-.84,2.81-1.65c1.84-1.86,2.34-1.92,4.4-.48.2.14.39.31.6.44a1.76,1.76,0,0,0,2.62-.3,11.12,11.12,0,0,0,1-1.39c1.32-2,2-2.19,4.1-1.36,2.45,1,2.48,1,4.19-.89.82-.9,1.7-1.39,2.82-.74,1.8,1.05,3.18.43,4.32-1a3.31,3.31,0,0,1,4.38-1.07,2.53,2.53,0,0,0,3.09-.86,13.86,13.86,0,0,0,1.1-1.33,3.69,3.69,0,0,1,3.37-1.7,4.79,4.79,0,0,0,3.45-1.14c1.39-1.18,2.73-2.3,4.7-2.5,2.14-.23,2.39-2.86,4.19-3.63.15-.06.35-.09.44-.21.36-.5.91-1,1-1.54a23.33,23.33,0,0,0,0-3.44c-3.22,2-6.13,3.83-9.15,5.5-1.53.84-2.92,1.52-2,3.62a.61.61,0,0,1,0,.48,1,1,0,0,1-.49.46.69.69,0,0,1-.61-.24c-.31-.72-.56-1.47-.86-2.3-2.1.75-4,1.48-6,2.15-1.41.48-2.84.89-4.25,1.34-.55.18-1.1.32-1,1.13,0,.65.64,1.63-.51,1.77-.28,0-.68-1.1-1-1.68-.08-.12-.26-.17-.43-.28-2.22.52-4.46,1.06-6.71,1.56s-4.58,1-6.95,1.51a12.17,12.17,0,0,1,.49,1.94c0,.33-.27.67-.42,1a3.25,3.25,0,0,1-.89-.67c-.39-.61-.51-1.59-1-1.84s-1.42.09-2.16.2Zm147.76-27a2.68,2.68,0,0,0-.46-.67c-3.83-2.78-8.25-3.61-12.85-3.79-.41,0-.85.36-1.25.62-2,1.32-4.52,1.84-6.43,3.45-.32.28-.94.23-1.43.3a8.23,8.23,0,0,0-6.77,4.64c-.66,1.32-1.53,2.55-2.18,3.88-.87,1.8-2.09,3.5-2.24,5.84,1.84-.57,3.48-1.07,5.12-1.59a189.33,189.33,0,0,0,23.54-9.13A12.57,12.57,0,0,0,196.63,153.39ZM180,142.18c-2.69.89-5,1.67-7.38,2.43-.75.24-1.06.63-.8,1.47a3.57,3.57,0,0,1-.16,1.3c-.38-.24-1-.4-1.09-.72-.41-1.28-1.23-1-2.16-.79-2.8.69-5.62,1.33-8.42,2-.53.12-1,.32-1.67.52.22.87.45,1.57.56,2.29a.86.86,0,0,1-.34.75.92.92,0,0,1-.82-.23c-.34-.82-.57-1.69-.87-2.63l-12.11,1.74a12,12,0,0,1,.47,1.89,3,3,0,0,1-.37,1.05c-.31-.19-.73-.31-.91-.58-.43-.66-.59-1.7-1.17-2s-1.59,0-2.41.06c-1.64.1-3.29.18-4.93.3-.53,0-1.05.16-1.74.28.45,1.12.82,2,1.18,2.94s.94,1.37,1.91,1.09a5.33,5.33,0,0,1,3.36.37,4.16,4.16,0,0,0,2.58.12,5.19,5.19,0,0,1,4.3.19,2.12,2.12,0,0,0,2.52-.19,3,3,0,0,1,3-.49,4.52,4.52,0,0,0,3.58-.35,6,6,0,0,1,3.59-.48A6.24,6.24,0,0,0,163,154a8.71,8.71,0,0,1,4.77-.71c3,.19,5.67-1.25,8.34-2.33,1.15-.46,2.09-1.54,3.47-1.7,1.16-.12,1.48-.85,1.28-1.91C180.59,145.7,180.31,144.08,180,142.18Zm-67.93,15.88c-2.42.94-4.55,1.83-6.73,2.58-1.17.41-1.62.94-1.13,2.18.12.3-.26.81-.41,1.22-.29-.24-.67-.42-.85-.73-.88-1.5-.87-1.51-2.29-1.07-2.26.68-2.26.68-1.9,3a5.19,5.19,0,0,0,.2,1.21c.31.74.54,1.7,1.12,2.07.87.57,1.39-.51,2-1a3.85,3.85,0,0,0,.35-.35c1.68-1.58,2.34-1.66,4.35-.48a10.09,10.09,0,0,1,1.2.86,1.35,1.35,0,0,0,2.15-.11,2.92,2.92,0,0,1,3.35-.91,1.92,1.92,0,0,0,2.32-.92,4.4,4.4,0,0,1,2.68-1.63,32.72,32.72,0,0,0,3.2-1.21c.91-.34,1.83-.65,2.76-.95.61-.2,1.56-.19,1.8-.6a13.65,13.65,0,0,1,3.61-3.92,1.85,1.85,0,0,0,.47-.86c1.09-3,1.16-5.93-1.49-8.47-1.34,1.06-2.67,2.14-4,3.17s-1.45,1.09-.81,2.78a3.88,3.88,0,0,1,.29.67c0,.22,0,.63-.11.66-.28.08-.75.13-.89,0-.55-.66-1-1.4-1.52-2.15l-8.23,4.36a16.35,16.35,0,0,1,.67,2.14,3.46,3.46,0,0,1-.25,1.23,3.94,3.94,0,0,1-1.07-.78A13.17,13.17,0,0,1,112.05,158.06ZM145.11,143l.15-.54c-.73-.41-1.45-.87-2.21-1.23s-1.42-.45-2.07-.78a8.69,8.69,0,0,0-5.93-1.17c-.5.11-1.13.05-1.06-.6,0-.32.61-.75,1-.83a8.75,8.75,0,0,1,5.53.76c1.5.69,3,1.31,4.52,2a1.74,1.74,0,0,0,2.41-.45c1.89-2.6,4.74-3.39,7.87-4.11-1.64-2.09-3.27-4.07-2.56-7-1.2.49-2.1.87-3,1.23a22.89,22.89,0,0,0-2.75,1.11,11.71,11.71,0,0,0-1.76,1.56l1.58,1c.14.09.36.12.42.24a1.67,1.67,0,0,1,.25.85c0,.12-.38.31-.59.32a4,4,0,0,1-4.17-4.16,16.72,16.72,0,0,0,0-1.73c-.08-1.07-.36-1.28-1.45-1-1.49.46-3,1-4.44,1.53a5.18,5.18,0,0,0-3.19,2.92,4.2,4.2,0,0,1-4.82,2.94,5,5,0,0,0-5,2.44,22.86,22.86,0,0,1-3.07,3.16c-.45.44-1,.82-1.47,1.23a2.26,2.26,0,0,0,3,.64,4.8,4.8,0,0,1,2.36-.54,2.56,2.56,0,0,0,3.06-1.72c.76-1.59,2-1.81,3.48-.87.63.39,1.12,1,1.77,1.33,1.08.54,2.27,1.39,3.35,1.29C139.24,142.58,142.15,142,145.11,143ZM92.4,165c-7.87,1.64-15.19,3.28-22.56,4.66-6.48,1.22-13,2.16-19.53,3.18a6.1,6.1,0,0,1-4.77-.7c-.64-.46-1-.14-1.5.24-1.21,1-1.83,2.09-1.19,3.65a4.57,4.57,0,0,1,.29,1.2,1.57,1.57,0,0,0,1.66,1.51,32.64,32.64,0,0,0,5.42-.08A154.92,154.92,0,0,0,80,171.4,52.66,52.66,0,0,0,92.4,165ZM71.87,196.2c0,.17,0,.35,0,.52a18.72,18.72,0,0,1,9.1,4.14,39.79,39.79,0,0,0,3.72,2.85c1.79,1.23,3.64,2.38,5.37,3.5.33-.26.42-.3.45-.37.23-.52.45-1.06.67-1.59A22.51,22.51,0,0,1,101,193.83c3.45-1.93,6.87-3.91,10.3-5.89.52-.3,1-.65,1.52-1-5,1.08-9.8,2.42-14.59,3.86A96.14,96.14,0,0,1,83.72,194C79.75,194.56,75.82,195.45,71.87,196.2ZM34.64,160.44c2.2-.61,3.71.2,5.29.93,2.47,1.14,4.92,2.25,6.81,4.29a1.46,1.46,0,0,0,.6.42,4,4,0,0,0,3.57-.29c1-.72,0-1.64-.2-2.44-.59-2.17.35-3.79,2.55-4.21a9.59,9.59,0,0,1,2.21,0,6,6,0,0,0,4.12-1.06c-1.36-2.81-3.86-4.24-6.65-3.37a7.79,7.79,0,0,1-5.71-.49,4.46,4.46,0,0,0-3.65-.22l.91,1a5.26,5.26,0,0,1,.78.94,1.08,1.08,0,0,1,0,.91c-.13.21-.53.3-.83.33s-.46-.15-.7-.21C38.45,155.45,38.34,155.49,34.64,160.44ZM103,144.7c-.29-.33-.63-.69-.95-1.07-2.28-2.73-2.27-2.73-4.6-.1-.61.69-1.3,1.46-2.29,1.18a30.53,30.53,0,0,1-5.77-2,4.07,4.07,0,0,0-4.81.3A31.16,31.16,0,0,1,82,145c-4.34,2.54-3.17,3-2.23,6.85.21.85,1.39,1.51,2.21,2.16s1.66.42,2.74-.11c-.57-.91-1.07-1.74-1.6-2.55a2.69,2.69,0,0,1-.35-2.8,7.89,7.89,0,0,1,4.21-4,2.52,2.52,0,0,1,3.48,2.77c-.07.73-.33,1.45-.46,2.18-.16.91.17,1.33,1.19,1.36a9.31,9.31,0,0,1,3.34.51c3.07,1.31,4.41.85,5.89-2.18C101.17,147.69,102.05,146.32,103,144.7ZM50.54,188.27c3.3,3.7,6.25,7,9.19,10.33.71.8,1.39.5,1.86-.14a38.32,38.32,0,0,0,2.86-4.31c1.64-3,3.15-6.13,4.74-9.23-1-.35-1.8-.58-2.55-.89a1.23,1.23,0,0,0-1.71.37c-1.5,2-3.37,2.49-5.6,1.18a1.53,1.53,0,0,0-2.45.68,5.63,5.63,0,0,1-.57.81C54.65,189.29,53.69,189.55,50.54,188.27Zm56.26-51.1a15.29,15.29,0,0,1-1.64,1.84,12,12,0,0,1-1.93,1.05c-1.08.56-1.32,1.07-.49,1.87a29.72,29.72,0,0,0,4.36,3.54,3.33,3.33,0,0,0,4.14-.09,7.88,7.88,0,0,1,1.85-.61,10.42,10.42,0,0,0,2.19-1c1.62-1.13,3.19-2.33,4.73-3.57a19.9,19.9,0,0,0,2.32-2.18c1-1.14,2-2.35,3-3.62a3,3,0,0,0-3.53.18c-1.38.89-2.71,1.87-4.08,2.78a7.15,7.15,0,0,1-5.62,1.25,3.53,3.53,0,0,0-1.93,0C108.68,139.22,107.69,138.66,106.8,137.17Zm78.22-.56.29-.16c-.63-1.33-1.3-2.64-1.88-4a5.9,5.9,0,0,0-4.09-3.63,7,7,0,0,1-1.81-.77c-.29-.18-.64-.69-.57-.94a1.66,1.66,0,0,1,.87-1,7.78,7.78,0,0,1,1.95-.18,5.52,5.52,0,0,0,1.93-.14c1.58-.74,3.08-1.65,5-2.69-2-.58-3.54-1-5.08-1.51a2.46,2.46,0,0,0-2.9.75,4.19,4.19,0,0,1-3.46,1.6,1.49,1.49,0,0,0-1.63,1.2,5.61,5.61,0,0,1-4.4,3.9,3.52,3.52,0,0,0-2.73,3.14c-.1.6-.21,1.21-.35,2,2.7-.7,5.42-.49,7.37-2.8A2.9,2.9,0,0,1,177,131a11.46,11.46,0,0,1,1.94,1.08C181,133.58,183,135.11,185,136.61Zm-10.84-15.88c-2.57,1.17-5,2.27-7.44,3.41a2.74,2.74,0,0,0-.88.85,4.52,4.52,0,0,1-3.36,1.83,3.57,3.57,0,0,0-2.77,1.42,5.42,5.42,0,0,1-3,2,4.4,4.4,0,0,0-1.3.69c-1.05.79-1.08,1.15-.39,2.25a10.53,10.53,0,0,1,1.57,2.74c.24,1,.69,1.1,1.52,1.11a2,2,0,0,0,2.2-1.54,2.93,2.93,0,0,1,2.87-2.29c1.34,0,1.82-.73,2-2a4.14,4.14,0,0,1,3.11-3.49c.55-.16,1.08-.39,1.62-.6A3.9,3.9,0,0,0,172.2,125C172.78,123.68,173.42,122.37,174.18,120.73ZM80.69,155.32c-.81-1-1.71-1.67-2.87-1.36a15.34,15.34,0,0,1-5.88.34,3.45,3.45,0,0,0-1.65.41,3.76,3.76,0,0,1-3.35-.08c-1.18-.58-2.32-1.24-3.46-1.9a21.7,21.7,0,0,0-1.9-1.14,4.1,4.1,0,0,0-1.37-.12,3.91,3.91,0,0,0,0,1.36,5.85,5.85,0,0,1,.71,3.07,1.92,1.92,0,0,0,1.46,2,49.12,49.12,0,0,1,4.57,1.86,4,4,0,0,0,5-.75,8,8,0,0,1,4.93-2A5,5,0,0,0,80.69,155.32Zm121.33,0,.36-.28c-2-3.84-4.06-7.68-6.12-11.5a3.1,3.1,0,0,0-1-1.06c-.63-.42-1.3-.51-1.42.5s-.7,1.66-1.59,1.53a3,3,0,0,0-2.59,1,3.56,3.56,0,0,1-1.57.62c-.78.16-1.86-.07-1.83,1.09,0,.27,1.18.65,1.85.76A20.77,20.77,0,0,1,198,152.2C199.29,153.26,200.67,154.25,202,155.27Zm-9.48-12.41c-.32-1.43-.51-2.72-.9-4-.78-2.52-1.69-2.93-4.44-2.1.1.3.19.6.3.9s.33.76.43,1.15c.27,1.1-.26,1.62-1.31,1.15a1.94,1.94,0,0,0-2.24,0c-.92.66-2.39,1-2.77,1.85s.26,2.18.45,3.3c0,.17,0,.33.08.49.29,1.15,1.4,1.76,2.13.94a5.51,5.51,0,0,1,4.18-2.12.6.6,0,0,0,.42-.25C189.67,143,191,142.87,192.54,142.86ZM56.3,197.73l.27-.57c-2.38-2.58-4.73-5.17-7.14-7.72-1.14-1.2-1.18-1.16-2.5-.08-1.58,1.29-1.63,1.31-.8,3.2.57,1.27,1.3,2.47,1.92,3.72a3.51,3.51,0,0,0,3.64,2C53.23,198.19,54.76,197.93,56.3,197.73Zm10.9-35.67c0-.18,0-.35,0-.52A34.47,34.47,0,0,1,63.38,160a3.9,3.9,0,0,0-3.77-.14,9.1,9.1,0,0,1-4.58.75,5.49,5.49,0,0,0-1.94.16,1.45,1.45,0,0,0-1,2c.24.89.66,1.43,1.74,1.25,1.39-.23,2.79-.28,4.18-.48C61.06,163,64.13,162.52,67.2,162.06ZM49.65,206.83c.74-2.29,1.33-4.12,1.91-6,.23-.71-.12-1-.8-1.2-1.21-.37-2.38-.86-3.67-1.34C46.3,201.48,48.64,203.7,49.65,206.83Zm102.17-31.75c-1.08-1-2.14-1.84-3.34-1.55a19.6,19.6,0,0,0-3.78,1.77A15.63,15.63,0,0,0,151.82,175.08ZM181,127.79a17.22,17.22,0,0,0,1.68,1,1,1,0,0,0,.89-.08c1.13-1.14,2.2-2.34,3.28-3.52l-.2-.31Z"/><path class="cls-1" d="M55.49,139.44a15.29,15.29,0,0,1-2-2.64,1.47,1.47,0,0,1,1.22-2.21,4.24,4.24,0,0,1,2.6.31,33.69,33.69,0,0,1,4.34,3.2c.68.56.49,1.27-.33,1.44A9.94,9.94,0,0,1,55.49,139.44Zm3.9-1.19a5.74,5.74,0,0,0-3.69-2.32c-.19,0-.59.11-.62.24a1,1,0,0,0,.11.85A4.32,4.32,0,0,0,59.39,138.25Z"/><path class="cls-1" d="M82,126.4c-.36.55-.9,1.46-1.54,2.31s-1.13.74-1.64-.17a7.11,7.11,0,0,1,.89-7.39c1.08-1.2,2.45-.92,3.05.61C83.2,122.83,83,124.44,82,126.4Zm-.86-4.55c-1.2,1.58-1.92,2.88-1.15,4.88C81,125.15,81.89,123.88,81.17,121.85Z"/><path class="cls-1" d="M117.75,116.38c-1-1.27-2.09-2.66-3.17-4.07a1.17,1.17,0,0,1-.17-.45,2.73,2.73,0,0,1,1-3.25c1-.49,2.22,0,2.81,1.64a40.1,40.1,0,0,1,1.35,5.2,1.22,1.22,0,0,1-.34,1C119,116.66,118.48,116.46,117.75,116.38Zm-.55-2.87.58-.29L116.45,110C115.37,111.7,116.39,112.57,117.2,113.51Z"/><path class="cls-1" d="M152.61,111.27a25,25,0,0,1,2.18-2.62,3.53,3.53,0,0,1,1.94-1,2.59,2.59,0,0,1,1.91.7,2.2,2.2,0,0,1,0,1.82,4.64,4.64,0,0,1-2.64,2.46,11.57,11.57,0,0,1-1.36.58c-.74.23-1.67,1-2.22.17C152.12,112.92,152.54,111.91,152.61,111.27Zm2.12.09a2.91,2.91,0,0,0,2.59-1.69c0-.07-.29-.5-.4-.48A2.65,2.65,0,0,0,154.73,111.36Z"/><path class="cls-1" d="M100.34,119.86a5.2,5.2,0,0,1,.45.71,10.33,10.33,0,0,1,.73,5.81A1.66,1.66,0,0,1,99.9,128a1.9,1.9,0,0,1-1.91-1.3c-.64-1.43.28-5.52,1.48-6.51A2.54,2.54,0,0,1,100.34,119.86ZM99.73,123c-.44,1.32-.88,2.28.14,3.63A4.54,4.54,0,0,0,99.73,123Z"/><path class="cls-1" d="M133.57,114.77a4.3,4.3,0,0,1,.37-.63c.52-.59,1-1.62,1.58-1.66,1.18-.09,1.56,1.17,1.72,2.07a9.53,9.53,0,0,1-.05,3.61,2,2,0,0,1-2.51,1.4,2.06,2.06,0,0,1-1.67-2.38A16.93,16.93,0,0,1,133.57,114.77Zm2.43.16-.77-.16a21.1,21.1,0,0,0-.69,2.44c0,.24.37.63.66.8.11.06.66-.29.68-.49C136,116.66,136,115.79,136,114.93Z"/><path class="cls-1" d="M119.24,208.35c.2-.61.21-1.12.43-1.24a11,11,0,0,1,2.51-1c2.57-.59,5.16-1.08,7.74-1.62,8.49-1.78,16.68-4.6,25-7.13,1.73-.53,3.41-1.25,5.13-1.8.3-.1.71.18,1.08.29-.17.32-.25.79-.52.95a9.44,9.44,0,0,1-2,.9c-11.38,3.63-22.72,7.44-34.54,9.48-1.13.2-2.22.64-3.33.94A14.14,14.14,0,0,1,119.24,208.35Z"/><path class="cls-1" d="M67,218.18c-.12-.28-.31-.5-.28-.69a.69.69,0,0,1,.41-.52,8.83,8.83,0,0,1,1.7-.25A146,146,0,0,0,89,214.25c2.67-.49,5.36-.86,8.06-1.21.39-.06,1.12.17,1.2.42.24.8-.53.85-1.06,1a20.57,20.57,0,0,1-2.18.45c-7.34,1-14.68,2.05-22,3-1.55.21-3.12.2-4.69.28C67.87,218.21,67.47,218.18,67,218.18Z"/><path class="cls-1" d="M170.51,192.67a10.27,10.27,0,0,1,1.87-1c.34-.12.83.18,1.25.29a4.54,4.54,0,0,1-.76,1,6.27,6.27,0,0,1-1.52.73.74.74,0,0,1-.62-.2C170.59,193.33,170.6,193.05,170.51,192.67Z"/><path class="cls-1" d="M116,195.85a4.93,4.93,0,0,1,.41-.72c.5-.51.92-1.57,1.69-1.12,1,.62-.06,1.21-.37,1.79-.08.14-.16.29-.25.43-.29.44-.43,1.3-1.16.86C116,196.91,116.06,196.12,116,195.85Z"/><path class="cls-1" d="M156.23,183.66c-1,.92-1.69,1.53-2.39,2.09a.72.72,0,0,1-.65-.13.7.7,0,0,1-.09-.66,24.1,24.1,0,0,1,1.84-1.94.73.73,0,0,1,.66,0A3.09,3.09,0,0,1,156.23,183.66Z"/><path class="cls-1" d="M138.31,190.45a8.61,8.61,0,0,1,1,1.19.89.89,0,0,1-.21.85.87.87,0,0,1-.84,0,8.64,8.64,0,0,1-1.41-1.36c-.16-.19-.14-.54-.2-.83a7.17,7.17,0,0,1,.88-.17C137.67,190.09,137.82,190.22,138.31,190.45Z"/><path class="cls-1" d="M106.29,203.3c-.42.18-.65.36-.84.33s-.36-.27-.52-.43a.32.32,0,0,1,0-.24c.12-.68.24-1.37.41-2,0,0,.6,0,.61.07C106.07,201.75,106.17,202.53,106.29,203.3Z"/><path class="cls-1" d="M168.09,179.76c.26.64.55,1.33.8,2,0,.06-.2.28-.31.29-1,.08-1.26-.82-1.66-1.46-.1-.16.08-.59.25-.8S167.6,179.78,168.09,179.76Z"/><path class="cls-1" d="M65.91,205.58c-.46.35-1.06,1.07-1.32,1-.83-.35-.35-1.11-.07-1.62s.51-1.71,1.35-1.35C66.91,204,65.71,204.77,65.91,205.58Z"/><path class="cls-1" d="M100.56,179.6a8.27,8.27,0,0,1-1,1.66,3.68,3.68,0,0,1-1.16.56,4.94,4.94,0,0,1,0-1.33,3,3,0,0,1,.73-1.27,4.87,4.87,0,0,1,1.17-.71C100.43,179,100.53,179.45,100.56,179.6Z"/><path class="cls-1" d="M118.79,175.16c.78.52,1.34.86,1.84,1.27a.66.66,0,0,1,.09.64c-.09.17-.46.38-.57.32a27.92,27.92,0,0,1-2.35-1.54c-.07,0,0-.58.15-.61A2.58,2.58,0,0,1,118.79,175.16Z"/><path class="cls-1" d="M77.19,185.21c.84.33,1.6,1.88,1.29,2.5-.09.18-.75.32-.78.28a20.32,20.32,0,0,1-1.06-2.33C76.61,185.58,77.05,185.32,77.19,185.21Z"/><path class="cls-1" d="M191.47,168.45c1,.83,2.06,1.7,3.06,2.65.2.19.08.72.1,1.1-.37,0-.9,0-1.07-.17-2.39-3-5.66-2.88-9-2.67a16.58,16.58,0,0,1-2.44-.07c-.15,0-.36-.35-.37-.55s.19-.55.33-.57C185.17,167.84,188.26,167.48,191.47,168.45Z"/><path class="cls-1" d="M185.12,152.83c.66.81,1.34,1.61,2,2.45.09.13,0,.52-.17.67s-.53.21-.62.12c-.74-.75-1.45-1.54-2.13-2.35-.09-.11,0-.49.15-.63S184.74,152.94,185.12,152.83Z"/><path class="cls-1" d="M175,157.84c-.55.33-1.13.89-1.36.77-.73-.37-.51-1.14-.12-1.64s.83-.52,1.26-.76C174.83,156.7,174.9,157.19,175,157.84Z"/><path class="cls-1" d="M90.6,198.26A10.18,10.18,0,0,1,94.25,194a4.39,4.39,0,0,1,1.28-.68c.22-.06.58.16.78.35s0,.46-.1.64a1.68,1.68,0,0,1-.55.47,11.59,11.59,0,0,0-3.94,4.26,4.89,4.89,0,0,1-.86,1.19.86.86,0,0,1-.82.06,1,1,0,0,1-.19-.84A5.9,5.9,0,0,1,90.6,198.26Z"/><path class="cls-1" d="M74.5,369c-1.91-6.69-.1-12.82,3.15-18.54,1.55-2.73,4.37-4.5,7.14-5.95,1-.55,2.59-.32,3.88-.2,9.72,1,18.88,3.9,27.76,7.84a75.45,75.45,0,0,1,22,15.44,145.65,145.65,0,0,1,25.87,34.24,48.68,48.68,0,0,1,6.14,24.72,37.74,37.74,0,0,1-.64,5.39c-1.38,8.64-11.28,15.4-20.64,13.18a14.31,14.31,0,0,1-7.73-4.61,33.86,33.86,0,0,1-4.92-7.39c-2.82-5.78-5.74-11.51-8.7-17.23a42.22,42.22,0,0,0-3.12-5c-6.08-8.62-12.74-16.71-22-22.1-4.28-2.48-8.81-4.52-13.19-6.82-3.15-1.64-6.32-3.24-9.34-5.09A12.46,12.46,0,0,1,74.5,369Zm83.4,74.28c5.31-2.2,9.41-5.72,10.49-11.91a33.3,33.3,0,0,0,.56-4.66,47.33,47.33,0,0,0-6.11-24.45,147.21,147.21,0,0,0-25.26-33.47C123.84,355.14,107.07,348,88,345.71c-1-.11-2.21-.26-2.88.22-2.24,1.64-4.29,3.56-6.41,5.37-2.09,4.26-3.75,8.6-3.48,13.5s2.26,8.89,6.6,11.47c1.77,1.05,3.57,2.08,5.41,3,2.89,1.43,5.81,2.78,8.74,4.13,14.27,6.55,24.44,17.47,32.36,30.68,2.62,4.37,4.61,9.12,7,13.64,1.95,3.71,3.72,7.51,6.31,10.89C145.9,444.1,152.62,444.86,157.9,443.26Z"/><path class="cls-1" d="M104.84,374.87c-1.75.37-3.67.84-5.61,1.18a7.46,7.46,0,0,1-2.45,0,.9.9,0,0,1-.5-1.53,9.65,9.65,0,0,1,1.48-1.29,42.56,42.56,0,0,1,10-5.38c4.18-1.73,8.31-3.63,12.79-4.54a8.63,8.63,0,0,1,1.21-.24c1,0,1.54.82.94,1.65a10.94,10.94,0,0,1-1.73,1.74c-2.76,2.42-6.06,4-9.32,5.55C109.49,373,107.24,373.86,104.84,374.87Zm-6.35-.48c5.91-.08,19.62-6.3,21.09-9.49C112.35,367.41,105.32,369.91,98.49,374.39Z"/><path class="cls-1" d="M128.18,382.46c3-.53,6.54-1.17,10.1-1.77a6.21,6.21,0,0,1,2,0,1.93,1.93,0,0,1,1.15.72c.1.15-.23.75-.5,1a18.88,18.88,0,0,1-6.19,4,59.54,59.54,0,0,1-15.25,3.93,9.76,9.76,0,0,1-2.7,0,1.62,1.62,0,0,1-1-.84c-.11-.23.16-.82.43-1a18.89,18.89,0,0,1,3.1-2C122,385.1,124.82,383.93,128.18,382.46Zm10,.05a38.53,38.53,0,0,0-19.36,6.17C125.66,387.92,132.34,386.54,138.14,382.51Z"/><path class="cls-1" d="M149.37,405.79a71.86,71.86,0,0,1-13.86,2.12,7.13,7.13,0,0,1-2.66-.38.76.76,0,0,1-.24-1.38,13,13,0,0,1,2.51-1.55A46.08,46.08,0,0,1,154,400.1a7.34,7.34,0,0,1,2.41.4c.4.12.93.58,1,.94a1.52,1.52,0,0,1-.72,1.15c-1.51.84-3.06,1.6-4.63,2.33C151.34,405.23,150.6,405.39,149.37,405.79Zm5.18-4c-5.45-.43-14.47,1.58-18.8,4.4C141.18,406.73,151.59,404.29,154.55,401.76Z"/><path class="cls-1" d="M146.33,425.35a52.49,52.49,0,0,1,14.55-1.44,16.45,16.45,0,0,1,4.48,1.2c.76.27.8,1.07.09,1.55a7.26,7.26,0,0,1-2,.94,42.19,42.19,0,0,1-17.35,1.19,7.44,7.44,0,0,1-2.55-.84.9.9,0,0,1,.06-1.71A27,27,0,0,1,146.33,425.35Zm16.42.88c-3.2-1.45-13.16-.75-16.37,1.14C152,427.88,157.25,428,162.75,426.23Z"/><path class="cls-1" d="M115.78,569.55a12.38,12.38,0,0,1-4.8-1.18c-3.92-1.69-7.2-4.32-10.45-7-2.8-2.3-5.45-4.78-8.21-7.14a3.91,3.91,0,0,1-1.32-5c1.4-3.52,2.4-7.19,3.8-10.71A44.42,44.42,0,0,1,98.2,532a8.93,8.93,0,0,1,2.75-2.79c4.74-3,9.67-5.75,15.17-7,3.85-.9,7.5-.5,10.32,3a57,57,0,0,0,6.64,6.63,56.86,56.86,0,0,1,8.69,10.4,3.84,3.84,0,0,1,.55,3.75q-2.85,7.37-5.72,14.73a15,15,0,0,1-.84,1.52,9.36,9.36,0,0,1-7.31,5.24C124.21,568.07,120,568.84,115.78,569.55Zm-2-26.52a2.88,2.88,0,0,0,.29.49,30.89,30.89,0,0,0,8.16,6.34c.26.13.37.58.55.88-.34.15-.75.49-1,.41a6.55,6.55,0,0,1-2-1c-2-1.51-3.89-3.05-5.76-4.66-1.4-1.2-1.31-1.19-2.86-.44a28.49,28.49,0,0,1-4.57,1.83c-4.37,1.2-8.77,2.26-13.16,3.39-1.54.4-1.74,1-.77,2.16a5.14,5.14,0,0,0,.71.69c2.66,2.34,5.26,4.76,8,7,3.19,2.61,6.37,5.28,10.25,6.84a9.2,9.2,0,0,0,4.26,1c4.49-.55,8.94-1.41,13.41-2.19a6.53,6.53,0,0,0,4.52-3.15,10.61,10.61,0,0,0,1-1.69q3.1-7.67,6.14-15.37a2.56,2.56,0,0,0-.4-2.57c-1.47-2-2.84-4.07-4.47-5.91-2.4-2.71-5-5.27-7.52-7.84a56.08,56.08,0,0,0-5.21-4.91c-2.34-1.84-3.4-1.4-4.19,1.41-.16.55-.22,1.13-.35,1.69C117.52,532.77,116.87,538.33,113.74,543Zm-21,5.9a98,98,0,0,0,16.89-4.68,7.39,7.39,0,0,0,4.19-4.33,60.76,60.76,0,0,0,2.1-6.32c.73-2.78,1.24-5.62,1.9-8.43.47-2,.4-2.11-1.69-1.59a10,10,0,0,0-1.88.59c-3.58,1.66-7.16,3.33-10.72,5.06a11,11,0,0,0-5.36,5.61c-1.29,2.93-2.44,5.92-3.6,8.91C94,545.27,93.47,546.83,92.73,548.93Z"/><path class="cls-1" d="M129.59,537c1.08.09,2.4,2,2,2.82a.94.94,0,0,1-.77.25,24,24,0,0,1-1.6-2.41C129.19,537.49,129.5,537.15,129.59,537Z"/><path class="cls-1" d="M130.69,549a3.11,3.11,0,0,1,2,2.89c0,.18-.66.41-.69.38-.61-.85-1.2-1.71-1.72-2.61C130.24,549.53,130.58,549.17,130.69,549Z"/><path class="cls-1" d="M129.94,558.14,129,557c.31-.18.65-.54.93-.51s.58.44.87.69C130.55,557.45,130.31,557.71,129.94,558.14Z"/><path class="cls-1" d="M121,543.34l-.48.73a2.7,2.7,0,0,1-.66-.53c-.06-.08.19-.53.29-.53A2.72,2.72,0,0,1,121,543.34Z"/><path class="cls-1" d="M110.17,541.05c-.22.33-.34.72-.55.78a.89.89,0,0,1-.77-.33,2.67,2.67,0,0,1-.2-2.74c.06-.11.57-.15.59-.1C109.58,539.43,109.87,540.23,110.17,541.05Z"/><path class="cls-1" d="M99.1,538.58a14.91,14.91,0,0,1,1.23-1.09s.58.47.54.58a10,10,0,0,1-.77,1.39Z"/><path class="cls-1" d="M80.55,770.7A1.9,1.9,0,0,0,79,769.4a2.14,2.14,0,0,0-2.29.35,3.15,3.15,0,0,0-.65,3.92,2,2,0,0,0,2.25.92A3,3,0,0,0,80.55,770.7Z"/><path class="cls-1" d="M134.2,754.08a3.2,3.2,0,0,0-3.64-1.46,1.82,1.82,0,0,0-1.14.87,1.9,1.9,0,0,0-.15,2.85,3.33,3.33,0,0,0,4.22.47A2,2,0,0,0,134.2,754.08Z"/><path class="cls-1" d="M97.18,609.48l-1,1c-1.82,1.82,1,4.64,2.81,2.82l1-1C101.81,610.48,99,607.66,97.18,609.48Z"/><path class="cls-1" d="M142.84,587.52s0-.09,0-.13a2,2,0,0,0-2.45-1.39,4.67,4.67,0,0,0-2.39,1.94,2,2,0,0,0,1.72,3l1.7,0A2,2,0,0,0,142.84,587.52Z"/><path class="cls-1" d="M136.8,489.3a2.06,2.06,0,0,0-2.45-1.39,2.63,2.63,0,1,0,1.51,4.84A3.13,3.13,0,0,0,136.8,489.3Z"/><path class="cls-1" d="M42.66,378.23a2.64,2.64,0,1,0-.94,3.45A3.13,3.13,0,0,0,42.66,378.23Z"/><path class="cls-1" d="M97,446.93v.49c0,2.57,4,2.57,4,0v-.49C101,444.36,97,444.36,97,446.93Z"/><path class="cls-1" d="M146.78,333.29l-.48,1.5c-.8,2.45,3,3.49,3.84,1.06.16-.5.32-1,.49-1.5C151.42,331.91,147.58,330.86,146.78,333.29Z"/><path class="cls-1" d="M144.83,299.49v.5c0,2.56,4,2.57,4,0v-.5C148.81,296.93,144.83,296.92,144.83,299.49Z"/><path class="cls-1" d="M143.25,234a2,2,0,0,0-2.45-1.39,1.85,1.85,0,0,0-1.34,1.44c-1.61,1.32.24,4.21,2.38,3.16A2.83,2.83,0,0,0,143.25,234Z"/><path class="cls-1" d="M109.63,254.33h-.5c-2.56,0-2.57,4,0,4h.5C112.19,258.32,112.2,254.33,109.63,254.33Z"/><path class="cls-1" d="M71.21,63a2.1,2.1,0,0,0-1.92,1.46,2.84,2.84,0,0,0-.19.91.31.31,0,0,0,0,.1c-2.47.21-2.47,4.1.07,4l1.47-.08a2.13,2.13,0,0,0,1.5-.74,2.24,2.24,0,0,0,1.46-1.37s0-.06,0-.09C74.5,65.45,73.43,62.83,71.21,63Z"/><path class="cls-1" d="M138.21,8.53a2.37,2.37,0,0,0-3.71,2,1.83,1.83,0,0,0,1.4,1.82,1.9,1.9,0,0,0,2,.12A2.38,2.38,0,0,0,138.21,8.53Z"/><path class="cls-1" d="M38.88,2.33A2.72,2.72,0,0,0,36.43.48,2.69,2.69,0,0,0,34.52,0,2.64,2.64,0,0,0,32.14,2.6a2.58,2.58,0,0,0,3.15,2.45,1.71,1.71,0,0,0,1.89.5A2.54,2.54,0,0,0,38.88,2.33Z"/><path class="cls-1" d="M57.2,829.72a1.83,1.83,0,0,0-.06,3.13c1,.67,1.88-.73,1.2-1.52A1,1,0,0,0,57.2,829.72Z"/><path class="cls-1" d="M151,809.4a1.7,1.7,0,0,0-2.19,1.13c-.41,1.09,1.13,1.61,1.75.8C151.7,811.63,152.16,809.82,151,809.4Z"/><path class="cls-1" d="M112,645.88a2,2,0,0,0-.55-1,1,1,0,0,0-1.41,0l-1,1.16a1.07,1.07,0,0,0-.14,1.15,1,1,0,0,0,.88,1.45,2,2,0,0,0,1.73-.81l.22,0C113,647.88,113.05,646.17,112,645.88Z"/><path class="cls-1" d="M100,504.7a.9.9,0,0,0-1.07-.18.92.92,0,0,0-.64.91v.47c-.88.12-1.43,1.37-.45,1.79C99.64,508.46,101.5,506.18,100,504.7Z"/><path class="cls-1" d="M62.76,259.53s-.18.11-.19.08c-.48-1.17-2.41-.66-1.92.53a2.13,2.13,0,0,0,3.52.8C65.06,260,63.65,258.61,62.76,259.53Z"/><path class="cls-1" d="M61.73,94.86s-.18.11-.19.08c-.48-1.17-2.4-.66-1.92.53a2.13,2.13,0,0,0,3.52.8C64,95.35,62.63,93.94,61.73,94.86Z"/><path class="cls-1" d="M140.53,73.18a3,3,0,0,0-2.9-3c-3.75-.29-4.41,5-1,6.1a1,1,0,0,0,.37,0,.92.92,0,0,0,.84,0A3.29,3.29,0,0,0,140.53,73.18Zm-2.13.52a1.15,1.15,0,0,1-.58.54,1.07,1.07,0,0,0-.74-.17,1.11,1.11,0,0,0-.27.12,1.1,1.1,0,0,1,1-2A1,1,0,0,1,138.4,73.7Z"/></svg>