<svg id="Layer_1" data-name="Layer 1" xmlns="http://www.w3.org/2000/svg" viewBox="0 0 215.15 831.73"><defs><style>.cls-1{fill:#f3f4f5;}</style></defs><title>side-a</title><path class="cls-1" d="M95,123.73c-.74,1-1.57,2.24-2.53,3.36s-1.71,1-2.22-.45a4.43,4.43,0,0,1,.59-4c.49-.81,1.31-1.6.71-2.7-.76-1.4-1-3.23-3.06-3.55A3.48,3.48,0,0,1,86,114.56c-.7-1.19-1.17-1.32-2.28-.7a11.82,11.82,0,0,1-1.66,1,2,2,0,0,1-1.6-.1,1.85,1.85,0,0,1-.31-1.54,5.09,5.09,0,0,1,2.18-3.2l2.64-1.81A5.6,5.6,0,0,1,81,105.91c-.62-.8-2.12-1.15-3.27-1.25-2-.18-4.11,0-6.17,0a4.09,4.09,0,0,1-1,0,1.48,1.48,0,0,1-.81-2.61,8,8,0,0,1,1.61-1.13,9.62,9.62,0,0,1,1.12-.53c.35-.16.7-.35,1-.52a39.55,39.55,0,0,1-6.18-26.95A29.93,29.93,0,0,1,68,68.22a27.46,27.46,0,0,1,2.35-6.74c4.87-8.25,11.42-14.76,20.65-18,8.47-3,17.08-3.51,25.73-.57a88.94,88.94,0,0,0,16.84,3.91,40.11,40.11,0,0,0,19.22-2.29c1.49-.53,2.58-2.18,3.84-3.33A22.49,22.49,0,0,1,159,39c1.87-1.33,3.84-2.54,5.77-3.78a2.56,2.56,0,0,1,1.09-.53c.7,0,1.69-.08,2,.31.57.71-.25,1.3-.77,1.82-1.51,1.52-3,3.06-4.51,4.58-.12.12-.32.22-.34.36-.31,1.91-2,2.82-3,4.23a34.58,34.58,0,0,0-6.13,25.12c.66,5.23,1.72,10.41,2.41,15.64.67,5,1.52,10,.3,15-3.6,14.64-12.54,22.4-26.76,25.07a47.94,47.94,0,0,1-20.63-1c-3.19-.8-6.34-1.72-9.74-1.06C97.62,125,96.41,124.18,95,123.73Zm37.09-59.54c-.93.56-1.42.81-1.87,1.13a34.37,34.37,0,0,1-11.85,5.42,28.89,28.89,0,0,0-15.47,10.07c-3.52,4.25-6.85,8.68-9.94,13.24a64.87,64.87,0,0,0-4.35,8.56,4.45,4.45,0,0,0-.51,2.31c0,.31,1.11.47,1.69.73a1.31,1.31,0,0,1,.6.42c.88,1.45,2,1,3.26.56A44.36,44.36,0,0,0,113.88,93a52.9,52.9,0,0,0,7.83-12.26c2.66-5.7,5.57-11.22,10-15.77A5.17,5.17,0,0,0,132.07,64.19ZM82.6,98.55c.13-.9.25-1.54.33-2.19a35.51,35.51,0,0,1,4.66-14,60.7,60.7,0,0,1,11-13.65,28.27,28.27,0,0,1,21.1-7.52A29.2,29.2,0,0,0,132.86,59a9,9,0,0,0,1.27-.91c-5,.21-9.44-.75-13.85-1.7A36.1,36.1,0,0,0,108,55.42c-11.59,1.45-19.53,7.67-24,18.4-.72,1.75-1.28,3.56-2,5.33a34.88,34.88,0,0,0-1.81,16.3A3.35,3.35,0,0,0,82.6,98.55ZM138,61.76l-.4-.31c-5.22,4.74-9.89,9.87-12.87,16.41a89.9,89.9,0,0,1-5.31,10A45.94,45.94,0,0,1,93.7,108.13a8.07,8.07,0,0,0-1.17.4.9.9,0,0,0-.27,1.57,3.15,3.15,0,0,0,1.74.79,32.28,32.28,0,0,0,5.9-.06A41.34,41.34,0,0,0,122.5,100a22.75,22.75,0,0,0,6-8.94,92.11,92.11,0,0,0,4.28-18,20.59,20.59,0,0,1,3.45-8.65C136.83,63.51,137.38,62.63,138,61.76Zm-3.39-1.83-4.82,1.73a20.65,20.65,0,0,1-8.5,1c-8.43-.57-16,1.74-22.26,7.65-1.32,1.25-2.54,2.6-3.74,4-5.92,6.8-10.17,14.37-11.12,23.56-.21,2-.13,3.5,1.89,4.37a3.4,3.4,0,0,1,.64.45c1.48-2.89,2.71-5.68,4.28-8.27A102.53,102.53,0,0,1,102.5,79a30,30,0,0,1,15-9.54,45,45,0,0,0,7-2.54C128.28,65.26,131.44,62.65,134.56,59.93Zm16.68-7.57-.32-.2c-.21.25-.43.49-.62.75-3.78,5.31-4.91,11.43-5.37,17.75a13.4,13.4,0,0,0,0,3.69,72.1,72.1,0,0,1,1.29,15c0,11.09-5.33,19-15,24a45.43,45.43,0,0,1-12.92,4.11c-3,.56-6,1.08-9.06,1.62a77.13,77.13,0,0,0,10.53,1.69c3.35.24,6.69.74,10.09.16,7.23-1.25,13.08-4.56,16.6-11.16a44.81,44.81,0,0,0,4.76-14.5c.67-4.38,0-8.73-.85-13a103.76,103.76,0,0,1-2.24-14.14c-.29-5,.23-9.88,2.54-14.44A13.83,13.83,0,0,0,151.24,52.36ZM96.4,116.89c1.38.11,2.35.16,3.3.28a45.79,45.79,0,0,0,13.07-.17,70.88,70.88,0,0,0,17.16-4.58A24.75,24.75,0,0,0,143.39,98a18.64,18.64,0,0,0,1.31-5.74,69.05,69.05,0,0,0-.8-15.53,19,19,0,0,1-.48-3.42,43.07,43.07,0,0,1,2.07-13.88c.51-1.54,1.12-3,1.78-4.83-.43.3-.66.38-.77.55-3.35,5-6,10.23-6.65,16.31s-1.21,12.14-1.9,18.2a19.14,19.14,0,0,1-4.07,10,42.33,42.33,0,0,1-10,9.16c-7.24,4.7-15.33,6.72-23.84,7.35C98.94,116.2,97.78,116,96.4,116.89ZM78,92.2l.39,0c0-.55.1-1.1.11-1.65,0-7.45,2.38-14.39,5.83-20.76,7-12.95,20.24-18.18,35-15.14,3.47.71,7,1.32,10.46,1.86a18.62,18.62,0,0,0,3.95,0,7.16,7.16,0,0,0,4.15-1.43c-4.1.2-7.92-.84-11.74-1.91a119.93,119.93,0,0,0-17.88-3.78c-6.29-.75-12.08,1-17.62,3.79a9.08,9.08,0,0,0-1.39,1C84.47,58,81.32,63,78.85,68.43a15.24,15.24,0,0,0-1.39,5c-.34,4.43-.53,8.89-.51,13.33A28.43,28.43,0,0,0,78,92.2ZM141.84,60c-4.13,4.31-7.28,9-8,15.07a71.77,71.77,0,0,1-4,16.56,21.26,21.26,0,0,1-4.71,7.78c-5.81,5.86-12.55,10.17-20.7,12-3.46.77-6.91,1.69-10.52,1a8.09,8.09,0,0,0-1.31,0c1.41,2.34,3.38,2.74,5.65,2.43,3.42-.48,6.89-.73,10.27-1.42a40.56,40.56,0,0,0,20.4-10.51c4.34-4.15,7.28-8.88,7.82-15,.48-5.42,1.07-10.83,1.62-16.24a28.51,28.51,0,0,1,2.84-10.18C141.47,61,141.63,60.48,141.84,60Zm8.34-10.6c-.24-.12-.32-.21-.38-.2-.39.11-.79.22-1.17.36a29.89,29.89,0,0,1-16.57,1c-3.48-.71-6.93-1.52-10.38-2.32-3.2-.76-6.43-1.45-9.58-2.39a21.39,21.39,0,0,0-8.82-.58c-2.12.26-4.24.59-6.36.93-5.84.92-10.67,3.84-15,7.72a33.77,33.77,0,0,0-8.08,12,11.72,11.72,0,0,0-1.13,3.76c-.25,4.1-1.12,8.19-.26,12.32.55,2.66.91,5.37,1.56,8A7.66,7.66,0,0,0,77,94.82c-.14-.86-.22-1.4-.31-1.94-.43-2.51-1.05-5-1.24-7.53a57.79,57.79,0,0,1,.12-7.67,48.37,48.37,0,0,1,.7-5.88c.73-4.08,2.94-7.5,5.08-10.92,4-6.47,9.68-10.76,17.25-12.22a32.46,32.46,0,0,1,7.83-.81,66.08,66.08,0,0,1,10.25,1.55c5.32,1.15,10.55,2.67,15.87,3.78C138.9,54.51,144.68,52.79,150.18,49.37Zm4.33,1.14a23.24,23.24,0,0,0-4.74,11.43c-.65,5.48.25,10.85,1.26,16.21a84.51,84.51,0,0,1,1.54,8.76,45.14,45.14,0,0,1,0,9.37,42.58,42.58,0,0,1-4.21,13.15c-4.72,9.83-13.69,13.14-22.38,13.25-4.65.06-9.32-1.05-14-1.52-3.77-.38-7.47-1.41-11.31-1.1-2.11.17-2.38.32-2.88,2.27-.18.72,0,1.12.81,1.09a26.79,26.79,0,0,1,4.19-.13,56.66,56.66,0,0,1,6.3,1.27,47.08,47.08,0,0,0,20.14.78c12.74-2.41,21.19-9.79,24.78-22.41a17.21,17.21,0,0,0,.71-3.88A59.51,59.51,0,0,0,154,86.48c-.87-5.54-1.84-11.07-2.49-16.64a27.87,27.87,0,0,1,.72-11.3C153,55.87,153.73,53.19,154.51,50.51Zm-5-3.33a1.53,1.53,0,0,0-.48,0c-6.41,1.88-12.86,1.61-19.36.5a92.49,92.49,0,0,1-14.11-3.64c-6.38-2.16-12.84-1.92-19.3-.59-10.71,2.21-18.27,8.82-24,17.73a20,20,0,0,0-2.6,6.63,57.81,57.81,0,0,0-1.07,9.57,38.2,38.2,0,0,0,4.22,18.38,4.76,4.76,0,0,0,2.36,2.74c.83.32,1.41-.07,1.15-.88a18.26,18.26,0,0,0-1.18-2.39,27.89,27.89,0,0,1-2.5-5,47.17,47.17,0,0,1-1.23-20.8,17.29,17.29,0,0,1,1.27-4.24A37.42,37.42,0,0,1,79.86,54c3.91-4,8.34-7.09,13.73-8.45A109.29,109.29,0,0,1,105,43.67a17.48,17.48,0,0,1,6.85.62q6.33,1.64,12.72,3.07c3.94.88,7.88,1.81,11.87,2.35A20.85,20.85,0,0,0,149.48,47.18ZM80,98.48l-.44.37a4.54,4.54,0,0,1,.46,1.34,4.11,4.11,0,0,0,1.68,3.64,1.79,1.79,0,0,1,.54.82,3,3,0,0,0,2.5,2c2,.44,2.77,1.79,2.72,3.86,0,.66-.13,1.31-.15,2,0,1.72,0,1.9,1.74,2.49,1.29.45,2.56,1,3,2.38.7,2.38,2.56,3.16,4.63,3.85.28-2.36.23-2.62-1.44-3.56-2.09-1.17-2.69-3.6-4.45-5.06-.33-.27-.25-1.08-.3-1.64s0-1.16,0-1.73a2.47,2.47,0,0,0-2-2.5,3,3,0,0,1-2.52-2.09,3.11,3.11,0,0,0-2.49-2.15c-1.12-.17-1.61-.92-2-1.93A11.05,11.05,0,0,0,80,98.48Zm-1.22,4.57c0-.58,0-.91,0-1.24-.11-1.52-.32-1.72-1.79-1.37a25.39,25.39,0,0,0-3.27,1c-.85.32-1.86.45-2.43,1.56ZM162.5,39c-1.76.82-3.85,1.23-4.74,3.44C160.45,42.57,161.22,40.42,162.5,39ZM81.85,112.32c.1.15.19.31.28.46.82-.24,1.64-.51,2.46-.73,1.36-.36,1.36-.35,1-2.41Zm9.56,12.87.56.28c.65-1,1.31-2,1.91-3.08a.64.64,0,0,0-.17-.61c-.15-.11-.58-.09-.64,0C92.46,122.9,91.54,123.87,91.41,125.19Z"/><path class="cls-1" d="M74.45,602c2.52-3.73,3.87-7.74,3.26-12.16-.83-5.94.25-11.65,2-17.3a6.05,6.05,0,0,1,.3-.94.9.9,0,0,1,1.6-.12,3.58,3.58,0,0,1,.55,1.36,32.49,32.49,0,0,1,.47,3.92c.14,3.29.2,6.59.28,9.88,0,1.07,0,2.14,0,3.32,1-1,.78-2.17.88-3.27.29-3.2.53-6.4.86-9.6a11.52,11.52,0,0,1,.62-2.64q2.85-7.9,5.78-15.79a12.5,12.5,0,0,1,1.26-2.4c.18-.29.75-.62,1-.52s.88.62.88,1a25.11,25.11,0,0,1-.26,4.42c-.23,1.37-.81,2.68-1.09,4a63.74,63.74,0,0,0-1.21,6.8,47.6,47.6,0,0,1-2.09,11.16,7.61,7.61,0,0,0-.5,3.21,17.3,17.3,0,0,0,1.13-1.43,9,9,0,0,0,.79-1.54c2.45-6.41,6.33-11.91,10.74-17.1,2.56-3,4.92-6.22,7.38-9.32a11.51,11.51,0,0,1,1.66-1.82,1,1,0,0,1,1.8.73,6.91,6.91,0,0,1-.37,2.9,44.36,44.36,0,0,1-2.53,5.07c-1.61,2.79-3.35,5.5-5,8.29a125.59,125.59,0,0,1-11.57,16.65c-.14.17-.24.38-.64,1,1.22-.78,2-1.24,2.81-1.8,6.07-4.49,12.94-7.6,19.44-11.35a6.55,6.55,0,0,1,2.31-.8,1.49,1.49,0,0,1,1.73,2.15,5.76,5.76,0,0,1-1.47,2.24,34.6,34.6,0,0,1-3.4,2.46c-2.64,1.82-5.28,3.66-7.93,5.46-2,1.34-4,2.69-6,3.94-1.55.95-3.21,1.7-4.79,2.6a22.7,22.7,0,0,1-6.82,2.83,3.49,3.49,0,0,0-1.53.86,7.6,7.6,0,0,0,3.42.12c4.33-.55,8.66-1.13,13-1.62a15.27,15.27,0,0,1,3.7.09c1.6.22,2.19.91,2.2,2.19s-.46,1.78-1.94,2.16a15.86,15.86,0,0,1-2.68.37,52.21,52.21,0,0,0-11.43,2,17.33,17.33,0,0,0-2.31.86,25,25,0,0,1-6.83,2.1c-4.09.7-6.28,3.5-8,7.54,2-.54,3.59-.92,5.14-1.4a32.46,32.46,0,0,1,12.23-1.29,10.21,10.21,0,0,1,3.11.71c1.48.64,1.59,2.1.11,2.77a16.53,16.53,0,0,1-5.18,1.44A64,64,0,0,0,78.28,619,17.31,17.31,0,0,0,71,622.94a40.06,40.06,0,0,1-3.54,3.1c-1.06.82-1.92.41-2-.93a12.44,12.44,0,0,1,2-7.28,32.23,32.23,0,0,0,2.39-5.91,15.29,15.29,0,0,0,0-10.4,45.09,45.09,0,0,1-2.17-14.13c0-1.81-.18-3.63-.21-5.44a8.71,8.71,0,0,1,.22-2.45c.12-.46.61-1.1,1-1.14a1.89,1.89,0,0,1,1.35.81,5.83,5.83,0,0,1,.89,2c.51,2.08.94,4.17,1.39,6.27.38,1.77.64,3.57,1.15,5.3.71,2.38,1.49,4.71,1,7.26A10.56,10.56,0,0,0,74.45,602Zm6.65-26.82-.55,0A27.82,27.82,0,0,0,79,587.91,24.81,24.81,0,0,1,76.23,603a3.74,3.74,0,0,1-.8,1.23,1.72,1.72,0,0,1-1.29.43,1.48,1.48,0,0,1-.85-1,17.05,17.05,0,0,1-.16-3.7,16.45,16.45,0,0,0-.81-6.08c-.61-2.22-1-4.5-1.48-6.75-.41-1.88-.57-3.83-1.62-5.55a51.38,51.38,0,0,0,.42,12,97.37,97.37,0,0,0,2.17,9.65c1.5,5.8-1,10.8-3,15.9-.06.14-.24.23-.33.37a9.22,9.22,0,0,0-1.47,5c1.55-1.29,2.89-2.35,4.17-3.49a13.28,13.28,0,0,1,4.94-2.74A61.78,61.78,0,0,1,91.31,615a7.47,7.47,0,0,0,4.33-1.28c-.37-.24-.63-.52-.9-.54-2-.14-3.94-.36-5.9-.31-3.75.11-7.28,1.36-10.86,2.34a13.4,13.4,0,0,1-1.91.49c-.53,0-1.42,0-1.55-.22a2.84,2.84,0,0,1,0-1.82,10.25,10.25,0,0,1,1-2c1.94-3.63,4.75-6,9-6.61a26.79,26.79,0,0,0,4.72-1.39c1.32-.45,2.6-1,3.93-1.47a52.79,52.79,0,0,1,11.44-2,17.48,17.48,0,0,0,2.65-.52c.14,0,.31-.39.29-.59a.7.7,0,0,0-.38-.53,9.26,9.26,0,0,0-2.43-.28c-3.78.35-7.55.79-11.32,1.18-3,.32-6.07.65-9.11.91a1.45,1.45,0,0,1-1.18-.6,1.36,1.36,0,0,1,.47-1.21,43,43,0,0,1,4.52-2.47c1.11-.51,2.41-.65,3.49-1.21a95.12,95.12,0,0,0,10.4-5.72c4.41-3,8.51-6.52,13.24-9.11a3.94,3.94,0,0,0,2.08-2.83,13,13,0,0,0-1.88.66c-5.38,3-10.79,6.05-16.12,9.19-2.77,1.63-5.39,3.51-8.12,5.22-.83.53-1.94,1.13-2.68.13s.39-1.61,1-2.26c1.61-1.77,3.36-3.42,4.84-5.29,5.89-7.48,10.33-15.91,15.28-24A24.81,24.81,0,0,0,111,557.6a1.62,1.62,0,0,0-1.14.66c-3.19,4-6.33,8-9.58,12a48.16,48.16,0,0,0-7.31,12,29.16,29.16,0,0,1-1.74,3.55,6.87,6.87,0,0,1-1.76,2,2.14,2.14,0,0,1-1.78.21c-.36-.14-.63-1-.62-1.45a9.84,9.84,0,0,1,.47-2.16c.78-3.36,2-6.7,2.25-10.11a64.88,64.88,0,0,1,2.46-12.84,16.63,16.63,0,0,0,.34-1.87,4.76,4.76,0,0,0-1.14,1.88c-1.25,3.32-2.49,6.63-3.71,10a31.13,31.13,0,0,0-2.21,9.61c-.07,2.14-.15,4.29-.42,6.42a20.5,20.5,0,0,1-1.08,4.28c-.3.84-1,1.74-2,1.45s-.94-1.48-.77-2.31a23.73,23.73,0,0,0,0-7.14c-.16-1.56-.08-3.13-.1-4.7C81.09,577.77,81.1,576.46,81.1,575.15Z"/><path class="cls-1" d="M124.66,270.81c3.14-.11,6.27-.3,9.41-.29,2.22,0,4.44.26,6.66.45q5.53.5,11.08,1.07c3.27.33,6.61.13,9.76,1.36.93.36,1.68-.18,2.39-.87,8.48-8.25,17.88-15.41,27-22.91,1.83-1.49,3.54-2.1,5.87-1.35a59.44,59.44,0,0,0,6.75,1.54,1.68,1.68,0,0,1,1.53,1.65c.47,4.51.91,9,1.42,13.53.16,1.39-.66,2.07-1.57,2.85-4.6,3.89-9.27,7.71-13.69,11.79-3.27,3-6.29,6.33-9.27,9.64-5.16,5.74-8,12.6-9.57,20.1A115,115,0,0,0,170,329.72c-.12,4.34-.54,8.7-2.85,12.66a10,10,0,0,0-.91,4.28,13,13,0,0,1-1.18,5.27c-1.34,2.65-2.59,5.35-4.13,7.88a16.09,16.09,0,0,1-3.33,3.62,21.06,21.06,0,0,0-5.08,5.69,9,9,0,0,1-4.47,3.72c-2.23,1-4.33,2.35-6.48,3.57-1.86,1.06-3.63,2.32-5.57,3.21-4.13,1.87-8.33,3.57-12.51,5.33a8.62,8.62,0,0,1-1.89.59,32.85,32.85,0,0,0-9.32,3.18A19,19,0,0,1,107,390c-2.43.42-4.94.48-7.34,1-4,.92-8,.6-12.08.44a13.27,13.27,0,0,0-3.68.17,14.15,14.15,0,0,1-6.84-.36c-4.24-1-8.56-1.73-12.68-3.23a7.3,7.3,0,0,0-2.19-.39,12.58,12.58,0,0,1-6-2.13A36.43,36.43,0,0,1,50.81,382c-4.78-4.35-10.45-8-13.22-14.14-2.32-5.16-4.94-10.21-5.7-16-.6-4.64-1.92-9.19-2.87-13.79a26.37,26.37,0,0,1-.38-3.68c-.15-2.71-.33-5.43-.35-8.14,0-7.21,1.44-14.08,6.32-19.59,7.65-8.62,16-16.47,26.6-21.49,4.84-2.29,9.69-4.59,14.6-6.73,7.25-3.16,14.93-4.68,22.71-5.79a208.93,208.93,0,0,1,21.19-1.88c1.65-.07,3.3,0,5,0ZM32.07,344.53c.42,2.35,1,4.51,1.18,6.71.6,5.89,3.36,11,5.78,16.23,2.69,5.79,8.18,9.14,12.6,13.4a3,3,0,0,0,.42.26q2.3,1.47,4.58,2.95a11.44,11.44,0,0,0,5.71,2.15,9.51,9.51,0,0,1,2.91.56c4.4,1.78,9.12,2.25,13.67,3.4a14.47,14.47,0,0,0,3.9.17c1.81-.05,3.61-.26,5.41-.29,2.8,0,5.57.56,8.39.06,3.82-.66,7.68-1,11.5-1.68a14.78,14.78,0,0,0,4.2-1.37,26,26,0,0,1,7.67-2.69,12.42,12.42,0,0,0,2.62-.73c4.49-1.87,9-3.74,13.42-5.72,1.57-.71,3-1.77,4.48-2.62,2.36-1.34,4.7-2.74,7.13-3.93a7.43,7.43,0,0,0,3.52-3,23.36,23.36,0,0,1,5.58-6.23,15.14,15.14,0,0,0,3.1-3.49,57.69,57.69,0,0,0,3.56-6.79,12.35,12.35,0,0,0,1.3-4.72,15.51,15.51,0,0,1,2.13-7.76A2.34,2.34,0,0,0,167,339c1.1-3.09,1.94-6.17-.56-9.06a6,6,0,0,1-.79-1.53c-.9-2.1-1.79-4.21-2.82-6.61-2.47,3.73-5.28,6.92-7.24,10.76a35.11,35.11,0,0,1-4.23,6.66c-3.08,3.66-6.36,7.16-9.72,10.57A38,38,0,0,1,131,357.32a106.7,106.7,0,0,1-18.73,7,48.71,48.71,0,0,1-11,1.41c-2.3.06-4.62.12-6.91.38a43.57,43.57,0,0,1-13.53-.7,4.1,4.1,0,0,1-1.15-.67,4.27,4.27,0,0,1,1.4-.61,13.24,13.24,0,0,1,3,.29c3.78.79,7.56.42,11.35.14,2-.14,3.95-.14,5.92-.3a64.31,64.31,0,0,0,8.58-.92,88.17,88.17,0,0,0,18.88-6.61,43.92,43.92,0,0,0,10.19-6.48,86.53,86.53,0,0,0,11.69-12.44,19.15,19.15,0,0,0,2.83-4.34c2.1-5.25,6.51-9,8.74-14.23.68-1.58,1.63-3,1.7-4.78a24.6,24.6,0,0,1,3.16-11.33,25.72,25.72,0,0,0,1.39-2.9,3.74,3.74,0,0,0,.5-1.88c-.51-2.77.5-5.4.59-8.11a15.07,15.07,0,0,1,3.38-9.11c.21-.25.39-.53.59-.8a1.2,1.2,0,0,0-.43-2c-.36-.2-.73-.38-1.09-.59-2.06-1.23-2.17-1.72-.91-3.9.07-.11,0-.3,0-.53a15.28,15.28,0,0,0-6,1c-1.76.51-3.49,1-5.27,0a4.41,4.41,0,0,0-1.69-.28c-4.69-.43-9.37-.83-14.06-1.27-3.12-.3-6.23-.88-9.35-.91-5-.05-10.06.27-15.09.4a185.17,185.17,0,0,0-21.68,2,92.34,92.34,0,0,0-21.06,5.34c-5.69,2.26-11.14,5-16.58,7.77-9.81,5-17.66,12.46-24.78,20.64-4.52,5.19-5.86,11.7-5.68,18.51.07,2.47.41,4.95.3,7.4a12.6,12.6,0,0,0,3.05,8.92,90.54,90.54,0,0,0,14.14,13.81,29.83,29.83,0,0,0,4.12,2.17c.23.13.35.46.52.7-.25.16-.54.51-.74.46a7.85,7.85,0,0,1-2.78-.85,51.18,51.18,0,0,1-6.06-4.68c-3.24-3.06-6.3-6.31-9.44-9.47A3.35,3.35,0,0,0,32.07,344.53Zm136.18-15a128.84,128.84,0,0,1,2.7-20.14c1.37-6.07,3-12.05,6.9-17.06a132.83,132.83,0,0,1,8.68-10.13,135.59,135.59,0,0,1,16.83-14.93,3.72,3.72,0,0,0,1.65-3.77c-.4-3.35-.71-6.72-1.08-10.08,0-.2-.25-.37-.5-.72-.82.79-1.58,1.52-2.36,2.25-2.76,2.6-5.51,5.21-8.31,7.77-.53.5-1,1.54-2,.66-.11-.11.53-1.24,1-1.7,3.15-3,6.36-6,9.53-9a13.83,13.83,0,0,0,1.25-1.6c-2.39-.53-4.5-.9-6.55-1.5a3.6,3.6,0,0,0-3.63.78c-4.72,3.87-9.53,7.63-14.23,11.53-3.37,2.79-6.62,5.72-9.9,8.61a20.19,20.19,0,0,0-1.47,1.67,27.34,27.34,0,0,1,2.87-.32,10.89,10.89,0,0,1,2.68.26c1,.27,1.24,1,.7,1.91a3.31,3.31,0,0,1-.66.74c-.79.72-.56,1.26.28,1.7a12.56,12.56,0,0,1,1.3.71c1.59,1.05,1.85,2.16.9,3.77a4.22,4.22,0,0,1-.57.81c-3.78,4.24-3.27,9.64-4,14.71a1.07,1.07,0,0,0,0,.25,7.45,7.45,0,0,1-.83,4.78,45.46,45.46,0,0,0-2.13,4.46,39.9,39.9,0,0,0-1.73,5.64c-.52,2.32-.83,4.69-1.18,7a6.52,6.52,0,0,0,0,2A21.87,21.87,0,0,0,168.25,329.55Z"/><path class="cls-1" d="M120.66,284.08a10.73,10.73,0,0,1-.92,2.2,43,43,0,0,1-3.35,4.58Q103.24,306.31,90,321.68c-7,8.15-13.88,16.34-20.91,24.43A17.61,17.61,0,0,1,65.17,349a1.68,1.68,0,0,1-2.45-.23,2.22,2.22,0,0,1,.17-2.76c1.84-2.22,3.63-4.49,5.51-6.68,8.31-9.71,16.7-19.36,25-29.11,5.28-6.22,10.41-12.58,15.63-18.85,1.95-2.35,3.92-4.69,6-6.94a13.21,13.21,0,0,1,3-2.49C119.59,281.08,120.84,282,120.66,284.08Zm-57,63.35a3.39,3.39,0,0,0,3.29-1.17,37.85,37.85,0,0,0,2.92-3c6.46-7.62,12.87-15.29,19.35-22.88,8.68-10.18,17.44-20.28,26.12-30.46a46.85,46.85,0,0,0,3.43-4.83,5.65,5.65,0,0,0,.45-1.73l-.42-.28a26.81,26.81,0,0,0-2.54,2.21q-3.06,3.41-6,6.93c-5.17,6.22-10.25,12.52-15.49,18.69-8.28,9.75-16.68,19.41-25,29.13C67.67,342.45,65.68,345,63.64,347.43Z"/><path class="cls-1" d="M141.52,288.14a15.19,15.19,0,0,1-1.08,2.2c-1.82,2.75-3.59,5.55-5.6,8.16Q117.23,321.31,99.49,344A20.84,20.84,0,0,1,97,346.73a2.19,2.19,0,0,1-2.72.41,2,2,0,0,1-.07-2.72c.84-1.32,1.8-2.56,2.75-3.81q14.75-19.25,29.5-38.5c2-2.55,3.72-5.25,5.7-7.78,1.73-2.2,3.59-4.3,5.5-6.35a5.71,5.71,0,0,1,2.28-1.38C140.84,286.28,141.58,287,141.52,288.14Zm-1.77.84-.5-.44a28,28,0,0,0-5.45,5.9q-9.86,12.85-19.65,25.76-8.9,11.71-17.74,23.48a20.14,20.14,0,0,0-1.19,1.94,2.35,2.35,0,0,0,1.63-.79c1.13-1.32,2.22-2.66,3.29-4q16.62-21.37,33.22-42.78C135.62,295.11,137.63,292,139.75,289Z"/><path class="cls-1" d="M44.52,334.33a17.13,17.13,0,0,1,1.78-2.85c2.89-3.27,5.91-6.42,8.84-9.65,10.34-11.45,20.65-22.94,31-34.36,1.77-2,3.75-3.71,5.7-5.49.71-.65,1.66-1.42,2.64-.64s.38,1.89-.13,2.68a31.59,31.59,0,0,1-3.12,4.14c-6.41,7-12.93,13.88-19.3,20.91-4.1,4.52-8,9.26-12,13.82-3.68,4.13-7.45,8.16-11.25,12.17a5.72,5.72,0,0,1-2.48,1.45C44.91,336.88,44.34,336.24,44.52,334.33ZM93,283.6c-.16-.16-.31-.33-.47-.5-1.78,1.79-3.64,3.5-5.33,5.37C82.57,293.61,78,298.84,73.39,304Q60.22,318.57,47,333.12c-.43.48-1.14,1-.64,2a7.9,7.9,0,0,0,1.06-.78c3.28-3.47,6.7-6.83,9.8-10.46,6.43-7.52,12.77-15.11,19.63-22.25,4.8-5,9.41-10.17,14.07-15.28C91.69,285.48,92.32,284.51,93,283.6Z"/><path class="cls-1" d="M156.94,300.86a24.93,24.93,0,0,1-1.51,2.92c-2,2.85-3.92,5.71-6.05,8.44-5,6.46-9.84,13-14.27,19.91a62.09,62.09,0,0,1-5.43,6.72,5.54,5.54,0,0,1-2.24,1.45c-1.3.48-2.3-.57-1.91-1.91a4.5,4.5,0,0,1,.73-1.27q8.71-12.31,17.46-24.62c2.59-3.61,5.25-7.19,8-10.7a14.44,14.44,0,0,1,2.78-2.43c.53-.41,1.26-.66,1.79-.06A5.66,5.66,0,0,1,156.94,300.86Zm-1.78.37-.42-.31a17.32,17.32,0,0,0-1.72,1.59c-1.62,2-3.29,3.9-4.77,6q-10.06,14.22-20,28.51a8.52,8.52,0,0,0-.65,1.32,27.73,27.73,0,0,0,6.33-6.93c4.12-6,8.33-11.85,12.55-17.75,2.44-3.41,5-6.77,7.43-10.17A22.23,22.23,0,0,0,155.16,301.23Z"/><path class="cls-1" d="M72.78,384.24a3.16,3.16,0,0,1-.73.77c-.11.06-.59-.29-.67-.53a13,13,0,0,1-.5-2.14c-.59-3.88-.8-7.84-2.34-11.53-.1-.23.1-.58.17-.88.35.11.86.1,1,.34a4.72,4.72,0,0,1,.82,1.76C71.33,376.05,72,380.08,72.78,384.24Z"/><path class="cls-1" d="M115.76,368.83a2.72,2.72,0,0,1,0-.76.84.84,0,0,1,.46-.48.64.64,0,0,1,.59.25,6.25,6.25,0,0,1,.49,1.63q.69,5.36,1.3,10.73c0,.29-.3.63-.46.94-.29-.22-.76-.4-.83-.68a25.32,25.32,0,0,1-.56-3.13C116.41,374.49,116.09,371.64,115.76,368.83Z"/><path class="cls-1" d="M49.34,373.52a3,3,0,0,1-.7.66c-.11.05-.57-.32-.64-.56-.73-2.42-1.41-4.87-2.12-7.3-.2-.71-.52-1.38-.67-2.1,0-.2.27-.54.5-.7s.49.09.61.24a3.28,3.28,0,0,1,.58,1.07c.77,2.59,1.5,5.19,2.24,7.78C49.21,372.85,49.25,373.09,49.34,373.52Z"/><path class="cls-1" d="M158.66,350.71c-.48-.41-.81-.57-.94-.83a14.35,14.35,0,0,1-.69-1.83c-.65-2-1.31-4-1.9-6.08-.09-.3.18-.7.28-1.06.34.18.81.27,1,.55a10.36,10.36,0,0,1,.82,2c.62,1.94,1.24,3.89,1.79,5.86C159.08,349.69,158.82,350.11,158.66,350.71Z"/><path class="cls-1" d="M141.73,365.43a8.29,8.29,0,0,1,0,1.42.73.73,0,0,1-.48.43,1,1,0,0,1-.6-.28.68.68,0,0,1-.23-.43c-.26-1.87-.52-3.74-.73-5.61,0-.25.26-.54.4-.81.3.2.83.35.88.61C141.28,362.44,141.52,364.15,141.73,365.43Z"/><path class="cls-1" d="M151.13,323.62a3.66,3.66,0,0,1-.9-.3.77.77,0,0,1-.35-.58.69.69,0,0,1,.41-.51c1.44-.25,2.89-.48,4.35-.64.24,0,.52.27.78.42-.23.28-.4.73-.68.81C153.56,323.15,152.35,323.36,151.13,323.62Z"/><path class="cls-1" d="M129.22,317.44a6.13,6.13,0,0,1-1.22-.24.78.78,0,0,1-.39-.54.71.71,0,0,1,.37-.55c1.16-.32,2.33-.61,3.51-.86.19-.05.62.14.62.24,0,.29,0,.76-.22.84C131,316.78,130,317.14,129.22,317.44Z"/><path class="cls-1" d="M90.69,379.61c-.35-.14-.66-.16-.75-.32-.65-1.11-1.28-2.24-1.84-3.4-.08-.16.18-.57.38-.76s.54,0,.63.19c.66,1.12,1.3,2.25,1.88,3.41C91.08,378.91,90.82,379.26,90.69,379.61Z"/><path class="cls-1" d="M78.25,312a6.7,6.7,0,0,1,.28-.93.48.48,0,0,1,.38-.26c.21,0,.56.13.59.26.25,1.12.48,2.24.62,3.37,0,.22-.31.62-.55.68s-.62-.25-.69-.47C78.62,313.8,78.45,312.91,78.25,312Z"/><path class="cls-1" d="M110.66,352.82c-.19-.07-.61-.12-.73-.33a1.29,1.29,0,0,1,0-.93,28.69,28.69,0,0,1,3.33-.47c.17,0,.45.39.55.65s-.23.47-.41.52C112.55,352.47,111.67,352.62,110.66,352.82Z"/><path class="cls-1" d="M48.93,343.85c.52.26,1.45.48,1.5.8.11.92-.82.83-1.4.83-.82,0-2.18.59-2.29-.53C46.6,343.63,48.11,344.4,48.93,343.85Z"/><path class="cls-1" d="M63.9,296.74l.92.5c-.28.33-.5.87-.84.95a10.57,10.57,0,0,1-2.39.18c-.15,0-.4-.29-.43-.47s.14-.54.29-.58C62.22,297.1,63,297,63.9,296.74Z"/><path class="cls-1" d="M48.18,311.83a2.64,2.64,0,0,1-.63.78c-.11.07-.62-.24-.7-.46a13.26,13.26,0,0,1-.63-2.32c0-.23.28-.51.42-.77.31.18.76.29.88.55A16.41,16.41,0,0,1,48.18,311.83Z"/><path class="cls-1" d="M77.44,351.74c.09.17.35.44.31.66a2.36,2.36,0,0,1-.48,1.07c-.42.52-.51,1.47-1.47,1.32-.18,0-.42-.5-.4-.73C75.51,353.1,76.64,351.76,77.44,351.74Z"/><path class="cls-1" d="M103.3,280.4c.78.46,1.5.87,2.2,1.33.06,0-.12.6-.16.6a12.37,12.37,0,0,1-2.28-.29c-.37-.1-.66-.53-1-.81Z"/><path class="cls-1" d="M159.7,283.35c-.83.95-1.48,1.71-2.18,2.43,0,0-.61-.28-.64-.49a2.94,2.94,0,0,1,1.73-2.38C158.85,282.87,159.13,283.11,159.7,283.35Z"/><path class="cls-1" d="M100.17,323c-.09.56.37,1.56-.74,1.56-.24,0-.5-1.2-.69-1.86a.88.88,0,0,1,.19-.69,4.61,4.61,0,0,1,.87-.63,4.27,4.27,0,0,1,.4.8A2.93,2.93,0,0,1,100.17,323Z"/><path class="cls-1" d="M131.63,278.72a1.64,1.64,0,0,1,1.09,1.91c0,.13-.27.33-.31.31-.38-.22-.87-.41-1.07-.75a2.73,2.73,0,0,1-.12-1.29C131.22,278.84,131.49,278.78,131.63,278.72Z"/><path class="cls-1" d="M186.48,269.82c-.93,1-1.89,2.11-2.88,3.15-.08.08-.5,0-.62-.17a.76.76,0,0,1-.1-.66c.78-1.05,1.58-2.08,2.42-3.08A.7.7,0,0,1,186,269C186.14,269.06,186.21,269.35,186.48,269.82Z"/><path class="cls-1" d="M98.63,235.14c-2.5-.61-2.57-.62-3.09,1.81a8.52,8.52,0,0,1-6.35,6.88c-2.28.68-4.49,1.72-7,1.5a9.82,9.82,0,0,1-2.17-.34c-4.25-1.35-8.5-2.68-12.69-4.17a2.08,2.08,0,0,0-2.39.42c-3.12,2.57-6.34,5-9.45,7.61-1.88,1.56-3.84,2.56-6.34,2A1.36,1.36,0,0,0,47.38,252c-.14.56-.25,1.13-.37,1.69a5.53,5.53,0,0,1-5,4.7c-.57.09-1.15.11-1.72.16-1.74.15-2.59.74-2.48,2.39.14,2.05-.89,3.17-2.3,4.32a176,176,0,0,1-18.16,12.9A12.23,12.23,0,0,1,5.23,279,8.26,8.26,0,0,1,0,271c.32-3.83,3.17-7.65,6.46-8.66a3.22,3.22,0,0,1,3.06.37c1.34,1,1.33,2.3,0,3.19-.41.27-.94.38-1.32.68a13,13,0,0,0-2.39,2.1,4.08,4.08,0,0,0-.28,4.66,3.86,3.86,0,0,0,3.73,1.94,8.76,8.76,0,0,0,5-1.27c2.76-1.81,5.49-3.66,8.16-5.6,3-2.18,5.91-4.5,8.92-6.68a3.12,3.12,0,0,0,1.38-2.94c-.13-3.76,1.46-5.25,5.2-5.07.41,0,.83.07,1.24.05,1.81-.1,2.53-.63,3-2.35.24-.78.32-1.62.52-2.42.69-2.63,2.08-3.76,4.82-3.54a8.73,8.73,0,0,0,6.36-2.11c2.87-2.23,5.85-4.3,8.77-6.46.8-.59,1.51-1.3,2.32-1.86a1.67,1.67,0,0,0,.62-2.51,4.81,4.81,0,0,1,.26-4.95c1.43-2.6,2.84-5.21,4.35-7.76a6.68,6.68,0,0,1,5.12-3.11c1.3-.19,2.63-.15,4-.23s1.34-.16,1.29-1.46a46.48,46.48,0,0,1,0-5.66,12.68,12.68,0,0,1,1.06-3.79,5.87,5.87,0,0,1,6.51-3.77c1.12.12,2.52.69,3.32.23a11.51,11.51,0,0,0,3-3.27,5.24,5.24,0,0,0,.8-2,4.31,4.31,0,0,1,2.62-3c2.91-1.5,5.88-1.24,8.89-.59.32.07.61.29.93.33.62.08,1.15.06,1-.89a30,30,0,0,1-.4-3.9c-.13-4.47,2-7.26,6.38-8.41A2,2,0,0,0,116,179a18.08,18.08,0,0,1,2-3.1,5.16,5.16,0,0,1,5.64-1.26c.93.42,1.17,1,.46,1.68-1.54,1.49-1.5,3.29-1,5.06,1.54,5.79,3.8,11.26,7.92,15.77,1,1.16,2.17,2.28,3.16,3.48a7,7,0,0,0,5.46,2.47c.41,0,.83-.07,1.23,0,1.17.08,1.54.65.92,1.62-1.12,1.76-2.44,3.36-4.63,3.84a4.49,4.49,0,0,0-2.44,1.44,27,27,0,0,1-4,3.23,7.07,7.07,0,0,1-6.37,1c-1.76-.5-2-.3-2,1.54a28.34,28.34,0,0,1-.18,3.2c-.26,1.56-4.44,6.61-5.94,7a24.81,24.81,0,0,1-4.63.64c-1,.08-1.57.27-1.72,1.51-.56,4.53-2.84,6.63-7.44,7C101.1,235.23,99.86,235.14,98.63,235.14Zm22.25-20.8a2.53,2.53,0,0,0-.64-2.64,46.58,46.58,0,0,1-9.87-15c-.47-1.2-1-2.33-2.64-1.62A.83.83,0,0,1,107,195c-1.84-1.42-4-.89-6-.77-1.79.12-4,.57-4.47,2.85a9.54,9.54,0,0,1-2.73,4.59c-1.25,1.3-1.25,1.64-.51,3.28a22,22,0,0,1,1.78,4.32c.48,2.34,1.51,3.78,4,3.81,1.56,0,2.32,1,2.79,2.37a5.11,5.11,0,0,0,1.29,2.33,9.82,9.82,0,0,1,3.07,4.39c.54,1.4,1.56,2.86,3.1,2.9,3.21.09,6.74.69,8.74-3a11.44,11.44,0,0,1,1.48-1.65,5.52,5.52,0,0,0,.85-1.21c.23-.54.05-1-.63-1-.24,0-.49,0-.73.05-2.84.07-5.68.12-7.46-2.72-.12-.2-.4-.29-.6-.44a7.92,7.92,0,0,1-3.31-5.31,5.94,5.94,0,0,0-2.31-3.95c-1.08-.9-2.11-1.85-3.1-2.84a6.85,6.85,0,0,1-1.91-4.45c0-.48.23-1.32.53-1.41.88-.27.76.58.82,1.1a7.51,7.51,0,0,0,2.88,5c.63.53,1.24,1.09,1.87,1.62a7.72,7.72,0,0,1,2.68,4.6,7.52,7.52,0,0,0,1.4,3.08,27.4,27.4,0,0,0,3.71,3.59,3.72,3.72,0,0,0,1.84.6,14.93,14.93,0,0,0,2.22.06C120.42,216.78,120.5,216.71,120.88,214.34ZM81,217.77c-1.06,0-2.11.09-3.17.16-1.31.09-1.47.24-1.07,1.52a10,10,0,0,1,.42,6.07,18.27,18.27,0,0,0-.5,7.36c.25,2.18.68,2.58,2.94,2.62a19.87,19.87,0,0,1,3.94.19,5.44,5.44,0,0,0,4.63-1.14,13.76,13.76,0,0,1,1.34-1.08c.27-.14.71,0,1.08,0,0,.3,0,.7-.13.88-1.6,1.77-3.47,3-6,2.88-1.72-.11-3.44-.19-5.15-.35a14.31,14.31,0,0,1-2.41-.49,2,2,0,0,1-1.58-2c-.18-3-.61-6.09.36-9.09a7.81,7.81,0,0,0-.23-5.09c-.73-2.08-1.29-2.29-3-.88a4.94,4.94,0,0,0-1.12,1.29c-1.48,2.57-2.92,5.17-4.36,7.76a3.46,3.46,0,0,0-.13,3.53c1.08,2,1.86,4.06.92,6.38a.92.92,0,0,0,.69,1.32c4.23,1.37,8.45,2.78,12.68,4.16a2.9,2.9,0,0,0,1,.1,19.69,19.69,0,0,0,9.15-2.71c2.52-1.42,2.81-4.21,3.32-6.65C94.94,233,92.76,233,92,232a5.76,5.76,0,0,0-.72-.67C87.33,227.21,83.57,223,81,217.77Zm7.75-14.36c-.39,0-.64-.1-.88-.12-1.88-.18-2-.08-2.11,1.73a18.78,18.78,0,0,0,1.41,8.46c2.18,5.09,5.86,8.92,10.07,12.32a22.79,22.79,0,0,0,7.81,4.18,2.31,2.31,0,0,0,3-3,2.5,2.5,0,0,0-.75-1.22,10.32,10.32,0,0,1-3-4.42,10,10,0,0,0-1.66-2.08,9.13,9.13,0,0,1-1.79-2.59,3,3,0,0,0-3-2.38c-2.27-.22-3.41-1.66-4-3.81-.41-1.58-1.19-3-1.7-4.61A3.38,3.38,0,0,0,88.78,203.41Zm-22,32c-4.07,3.08-7.79,5.67-11.26,8.57-2.45,2-4.86,3.45-8.23,2.9-1.81-.29-2.6.58-3.14,2.46-.3,1-.51,2.08-.81,3.11a3.46,3.46,0,0,1-3,2.64,12.53,12.53,0,0,1-2.45.1c-3-.12-4,.72-3.77,3.69a4.08,4.08,0,0,1-1.87,4c-4.72,3.47-9.33,7.07-14.06,10.53a28.13,28.13,0,0,1-4.51,2.55,9.33,9.33,0,0,1-6,.63,4.8,4.8,0,0,1-3.85-3.44,6.12,6.12,0,0,1,2.42-7C7,265.49,8,265,8.89,264.42c-.51-1.13-1.35-.85-2.13-.6-2.68.87-5.21,4.39-5.28,7.48s1.72,5.08,4.36,6.32c3.83,1.8,7.52,1.3,11.05-.94A191,191,0,0,0,33.45,265c1.66-1.31,3-2.55,3.09-5,.05-2,1.23-2.78,3.3-2.94.41,0,.83,0,1.24,0,2.79-.29,3.94-1.3,4.58-4,.07-.32.1-.65.18-1,.67-2.54,1.19-2.95,3.82-2.63a5.11,5.11,0,0,0,4.13-1.12q5.48-4.46,11-8.78A4.93,4.93,0,0,0,66.74,235.39Zm17.44-30.93a6.6,6.6,0,0,0-.8.78,4.84,4.84,0,0,0-.48.86,14.67,14.67,0,0,0,.82,13.56,44.46,44.46,0,0,0,9.7,11.47,11.62,11.62,0,0,0,9.53,2.45,4.58,4.58,0,0,0,3.31-1.61c-1.62-.62-3.12-1.09-4.53-1.74a33.86,33.86,0,0,1-13.29-11.54c-2.73-3.84-4.44-8.08-4.08-12.94A8.1,8.1,0,0,0,84.18,204.46Zm38-28.58a4.74,4.74,0,0,0-4.72,5.9c1.5,5.66,3.12,11.27,7,15.88a30,30,0,0,1,1.88,2.9,17.21,17.21,0,0,0,7.2,6.22c2.53,1.16,4.32.48,6.13-2.11-.83-.17-1.6-.38-2.38-.49a6.43,6.43,0,0,1-3.64-1.93A42,42,0,0,1,122.3,184.3C121.43,181.58,120.91,178.88,122.18,175.88Zm8,35.69c-2.27-1.49-4.84-2.56-6.55-4.42a39.64,39.64,0,0,1-10.25-21.24c-.17-1.11-.33-2.21-.51-3.41-1.91,1.2-2.38,1.71-2.86,3.2a10.28,10.28,0,0,0,.15,6.78A48.06,48.06,0,0,0,117,205.56a56.48,56.48,0,0,0,4.44,5.29C124.26,213.62,127.3,213.76,130.19,211.57Zm3.54-2.9c-1.19-.74-2.4-1.42-3.54-2.2-3-2-4.82-4.88-6.78-7.76-2.77-4-5.42-8.08-6.29-13a10.87,10.87,0,0,0-.77-2.34c-.28-.65,0-2-1.29-1.62-1,.25-.51,1.21-.47,1.9.48,7.79,4,14.35,8.3,20.6a15.67,15.67,0,0,0,7.71,5.52C132.09,210.32,132.35,210.21,133.73,208.67Z"/><path class="cls-1" d="M153,160.83a16.41,16.41,0,0,1,.88-2,5,5,0,0,1,1.46-1.95c3.56-1.87,6.36-4.93,10.28-6.29,2.06-.72,3.58-.65,5.15.88,1.24,1.19,2.66,2.19,4,3.27,1.36-1,2.77-2,4-3.16,8.14-7.12,16.24-14.28,24.38-21.39,1.68-1.46,3.46-2.81,5.25-4.13.27-.2.85,0,1.29,0,0,.38.08.85-.11,1.13a13.41,13.41,0,0,1-1.54,1.91Q193.9,144,179.68,158.85c-1.94,2-2,2-.17,4.17,2.14,2.52,2.39,5.54,2.25,8.61a5.13,5.13,0,0,1-1.13,2.41c-1.32,1.89-2.77,3.69-4.11,5.56a4.34,4.34,0,0,1-4.18,2.1c-1.39-.12-2.8,0-4.19-.16-1.58-.13-1.54-.16-2.13,1.3a39.52,39.52,0,0,1-1.79,4c-1.55,2.86-3.35,3.75-6.51,3.13-1.15-.22-1.62-.11-2.13,1.12a73.49,73.49,0,0,1-4,8c-1.75,3.09-3.7,3.69-7,2.63s-6.48-2-9.25-4a5.54,5.54,0,0,1-1.87-1.86c-1.87-4.13-3.69-8.28-5.35-12.49-.81-2.06-1.25-4.27-1.87-6.4a3.5,3.5,0,0,1,1-3.59,14,14,0,0,0,1.86-2.54,4.61,4.61,0,0,1,3.38-2.61c2.5-.43,5-1.08,7.56-.52a1,1,0,0,0,.83-.57c.75-4.23,4.25-5.46,7.55-6.64C149.71,160,151.33,160.67,153,160.83Zm45.06-23.68a14,14,0,0,0-1.8,1.19q-10.53,9.16-21,18.36c-.49.44-1,.88-1.44,1.35-1.44,1.43-1.4,1.76.15,3.07.65.56,1.06.47,1.63-.13q11-11.51,22-23a3.31,3.31,0,0,0,.45-.83l1.57-1.09-.37-.42Zm-64.37,32.51a3,3,0,0,0-3.21,1.86,6.74,6.74,0,0,1-2.15,2.94,1.84,1.84,0,0,0-.64,2.21c.7,2.28,1.19,4.64,2.05,6.86,1.5,3.83,3.19,7.59,4.89,11.33a5.14,5.14,0,0,0,1.67,1.71c2.67,2.06,5.92,2.81,9,3.9A3.59,3.59,0,0,0,150,199a45.22,45.22,0,0,0,2.5-4.26c.52-1,.29-1.33-.84-1.28-2.39.1-4.77.25-7.16.43a4.16,4.16,0,0,1-2.76-.83c-2.73-1.82-3.75-4.5-3.9-7.61a6.49,6.49,0,0,0-2.37-5.18,5.93,5.93,0,0,1-2-5.33C133.58,173.17,133.62,171.45,133.69,169.66Zm28.66-15.75c-1.09.78-1.86,1.35-2.65,1.9a25.72,25.72,0,0,1-2.45,1.6A4.29,4.29,0,0,0,155,163a15.23,15.23,0,0,0,2.4,3.68,11.7,11.7,0,0,1,2.71,4.91,7,7,0,0,0,1.47,2.46c1.05,1.36,2.13,2.69,3.29,4a5.65,5.65,0,0,0,2.24,1.75,28.11,28.11,0,0,0,4.35.56,4.09,4.09,0,0,0,4.33-2.15c1-1.69,1.12-1.66-.65-2.45-4.59-2-7.08-5.86-8.36-10.42a20.4,20.4,0,0,0-2.52-5.81A8.68,8.68,0,0,1,162.35,153.91ZM139.6,169h-2.7a1.55,1.55,0,0,0-1.73,1.64c-.08,1.31-.08,2.63-.22,3.94a5.31,5.31,0,0,0,2,5,6.4,6.4,0,0,1,2.29,5,15.88,15.88,0,0,0,.82,4.09c.59,1.83,2,3.4,3.78,3.54a54.75,54.75,0,0,0,8.85-.36c1.23-.1,1.3-1.34,1.69-2.21.28-.61.05-1.06-.53-1.44-3.19-2-5.34-5.12-7.69-8a18.41,18.41,0,0,1-4.48-9.22A2.09,2.09,0,0,0,139.6,169Zm33.91-13.12a5.76,5.76,0,0,0-.47-.53q-1.68-1.45-3.38-2.89c-1.49-1.27-2.75-1.23-4.89.16-.91.6-1.23,2.37-.55,3.82.49,1,1.21,2,1.73,3a16.65,16.65,0,0,1,1.89,4.24,17.23,17.23,0,0,0,4.13,8,9.27,9.27,0,0,0,4.72,3c.43.12,1.09.23,1.34,0,1.33-1.22,2.65-2.48,2.4-4.59-.35-3.08-1-6-3.75-7.93-1.49,1.31-2,1.75-4.33-.61C170.76,160,170.83,159.64,173.51,155.91Zm-25.9,6.53a9.62,9.62,0,0,0-4.62,3.17,2.68,2.68,0,0,0-.52,2.06c.51,2.57.86,5.18,2.15,7.58a42.53,42.53,0,0,0,8.5,10.54,16,16,0,0,0,5.1,2.9c1.78.72,4.27-.78,4.68-2.59a1.47,1.47,0,0,0-.54-1.2,18.74,18.74,0,0,0-2.74-1.67,17.44,17.44,0,0,1-8.48-9c-.77-1.82-1.59-3.63-2.45-5.41C147.75,166.89,147,164.93,147.61,162.44Zm16.45,21.5a13.11,13.11,0,0,1,.49-1.23c.62-1.22.8-2.33-.6-3.19-.24-.15-.31-.57-.51-.83a40.91,40.91,0,0,0-3-3.57,5.54,5.54,0,0,1-1.84-3.12,8.55,8.55,0,0,0-2.28-4.29,35,35,0,0,1-2.64-3.85c-.58-1-2.59-2.17-3.65-1.9a1.81,1.81,0,0,0-1,.94,4.22,4.22,0,0,0,.16,3.59c1,2.25,2.14,4.46,3,6.77C154.38,178.83,159,181.52,164.06,183.94Z"/><path class="cls-1" d="M103.74,212.47c-.35-.39-.67-.62-.78-.92,0-.13.4-.59.62-.59a8,8,0,0,1,1.8.24c.06,0,.13.4.09.42C104.94,211.91,104.38,212.16,103.74,212.47Z"/><path class="cls-1" d="M111.36,222.51c-.27-.43-.65-.78-.7-1.16a4.32,4.32,0,0,1,.27-1.52s.59,0,.62.1a13.07,13.07,0,0,1,.46,2C112,222.09,111.69,222.25,111.36,222.51Z"/><path class="cls-1" d="M98.34,202.42c.2.85.46,1.28.33,1.52a5.38,5.38,0,0,1-1,1.09c-.13-.33-.44-.71-.35-1A7.93,7.93,0,0,1,98.34,202.42Z"/><path class="cls-1" d="M82.44,230.85a9.22,9.22,0,0,1-1.33-.45c-.17-.09-.39-.45-.34-.55.14-.25.4-.57.64-.6a1.84,1.84,0,0,1,1.15.25,3.92,3.92,0,0,1,.77,1Z"/><path class="cls-1" d="M69.57,230.77a3.92,3.92,0,0,1,1.21-.57,3.18,3.18,0,0,1,1.26.37s0,.32,0,.44a1.64,1.64,0,0,1-2.17.35C69.74,231.26,69.71,231.07,69.57,230.77Z"/><path class="cls-1" d="M81.75,241.62l-1,1a4.92,4.92,0,0,1-.53-1.37c0-.51,0-1.31.81-1.09C81.38,240.28,81.5,241.06,81.75,241.62Z"/><path class="cls-1" d="M136.56,191.15c-.08.28-.08.66-.27.85a.85.85,0,0,1-.82.13,1.73,1.73,0,0,1,.31-2.48.8.8,0,0,1,.74.31A3.88,3.88,0,0,1,136.56,191.15Z"/><path class="cls-1" d="M133.82,181.27l.64.68a6.47,6.47,0,0,1-.87.64.86.86,0,0,1-.71.06,4.48,4.48,0,0,1-.82-.7,5.8,5.8,0,0,1,.84-.66A2.87,2.87,0,0,1,133.82,181.27Z"/><path class="cls-1" d="M170.4,176.77a4.19,4.19,0,0,1-.61.92c-.41.4-.95.89-1.43.23-.15-.2.19-.83.41-1.2a1.61,1.61,0,0,1,.76-.59.92.92,0,0,1,.66.08C170.29,176.26,170.3,176.49,170.4,176.77Z"/><path class="cls-1" d="M162.61,164.24a3.07,3.07,0,0,1-1,.49,3.51,3.51,0,0,1-1.31-.2.78.78,0,0,1,0-.61,1.53,1.53,0,0,1,2.11-.24C162.54,163.77,162.53,164,162.61,164.24Z"/><path class="cls-1" d="M138.58,172.63c.16.13.41.24.49.43a.94.94,0,0,1,0,.7c-.34.66-.74,1.29-1.12,1.93-.13-.08-.37-.18-.36-.23.15-.91.32-1.82.52-2.72C138.11,172.68,138.38,172.67,138.58,172.63Z"/><path class="cls-1" d="M147.44,186.71l1,1.15a3.82,3.82,0,0,1-1.45.46c-.35,0-.66-.56-1-.87Z"/><path class="cls-1" d="M68.67,472.62a30.42,30.42,0,0,1,1.46-3.73,28.26,28.26,0,0,1,5.73-7.11,106.84,106.84,0,0,1,17.71-13.46c1.48-.91,3.09-1.62,4.47-2.66,3.87-2.92,8.49-3.89,13-5.05a12.77,12.77,0,0,1,4.41-.11,3.45,3.45,0,0,1,2.89,2.4c.67,1.67,1.39,3.34,2.2,5a6.42,6.42,0,0,1-.14,6.36,33.39,33.39,0,0,1-9.55,10.58q-7,5.32-14.14,10.45a59.9,59.9,0,0,1-13.57,7.1c-2,.77-4,1.44-6,2.24a3.08,3.08,0,0,1-4-1,29.14,29.14,0,0,1-3.45-5.41C69.05,476.61,69.05,474.78,68.67,472.62Zm5.24,3.65a15.42,15.42,0,0,0,3.14-.58,38.48,38.48,0,0,0,7.17-3.26C91.9,467.28,99.46,462,107,456.59c2.68-1.91,5.13-4.15,7.65-6.29a10.82,10.82,0,0,0,2-2.17,4.89,4.89,0,0,0,.17-5c-.78-1.64-2.44-1.42-3.93-1.34a3.17,3.17,0,0,0-1,.11c-3.59,1.2-7.39,2-10.71,3.72a109.47,109.47,0,0,0-21.84,14.89,38,38,0,0,0-7.32,8,13.05,13.05,0,0,0-1.52,3.09C69.65,474.49,70.94,476.13,73.91,476.27Zm-3.19,1c1.3,2,2.23,3.53,3.29,5s1.39,1.42,3,.79a131,131,0,0,0,12.09-5c9.2-4.79,17.14-11.42,25.07-18a21.73,21.73,0,0,0,5.17-6.9,4.13,4.13,0,0,0-.5-5c-1.55,1.53-2.95,3-4.47,4.39-6.93,6.16-14.72,11.17-22.23,16.56-2.55,1.82-5.19,3.53-7.88,5.14C80.29,476.54,76.13,478.27,70.72,477.3Z"/><path class="cls-1" d="M89.2,461.67a44.79,44.79,0,0,0,9.58-6.38c.4-.35.52-1,.87-1.44a.9.9,0,0,1,.78-.28c.24.1.55.54.49.73a3.77,3.77,0,0,1-.81,1.72,43.44,43.44,0,0,1-10.41,7,3,3,0,0,1-1,.25c-1.59.24-2.21-.51-1.58-2a6,6,0,0,1,1.07-1.65,25.55,25.55,0,0,1,8.49-6.25c.22-.1.47-.15.7-.24.56-.2,1.21-.41,1.41.36.06.23-.49.71-.85.94-2.08,1.3-4.26,2.47-6.27,3.87a24.34,24.34,0,0,0-3,2.86Z"/><path class="cls-1" d="M97.22,740.31a12.34,12.34,0,0,1-4.8-1.18c-3.92-1.69-7.21-4.32-10.46-7-2.8-2.3-5.45-4.78-8.2-7.14a3.94,3.94,0,0,1-1.33-5c1.4-3.51,2.4-7.19,3.8-10.7a43.54,43.54,0,0,1,3.41-6.57,9,9,0,0,1,2.74-2.8c4.75-3,9.68-5.75,15.18-7,3.85-.9,7.49-.5,10.32,3a57.65,57.65,0,0,0,6.63,6.63,56.91,56.91,0,0,1,8.7,10.4,3.84,3.84,0,0,1,.54,3.75c-1.9,4.91-3.79,9.83-5.71,14.73a16,16,0,0,1-.84,1.51,9.35,9.35,0,0,1-7.32,5.25C105.65,738.83,101.44,739.6,97.22,740.31Zm-2-26.52a2.92,2.92,0,0,0,.3.48,30.52,30.52,0,0,0,8.15,6.35c.27.13.38.58.56.88-.35.15-.75.49-1,.4a6.07,6.07,0,0,1-2-1c-2-1.5-3.9-3-5.77-4.65-1.39-1.21-1.3-1.19-2.86-.45A27,27,0,0,1,88,717.68c-4.36,1.2-8.77,2.26-13.16,3.39-1.54.4-1.74,1-.76,2.16a7.6,7.6,0,0,0,.7.69c2.67,2.34,5.27,4.75,8,7,3.19,2.6,6.37,5.28,10.25,6.84a9.26,9.26,0,0,0,4.26,1c4.5-.55,9-1.42,13.41-2.19a6.55,6.55,0,0,0,4.53-3.15,12.31,12.31,0,0,0,1-1.69q3.11-7.66,6.13-15.37a2.58,2.58,0,0,0-.39-2.58c-1.48-2-2.84-4.06-4.48-5.9-2.4-2.71-5-5.27-7.52-7.84a57.44,57.44,0,0,0-5.2-4.92c-2.34-1.83-3.4-1.39-4.2,1.42-.16.55-.21,1.13-.34,1.69C99,703.53,98.31,709.09,95.17,713.79Zm-21,5.9A97.9,97.9,0,0,0,91.05,715a7.41,7.41,0,0,0,4.2-4.33,59.16,59.16,0,0,0,2.09-6.32c.74-2.78,1.25-5.62,1.9-8.43.47-2,.4-2.11-1.69-1.59a10.23,10.23,0,0,0-1.88.58c-3.58,1.67-7.16,3.34-10.71,5.07a11.09,11.09,0,0,0-5.37,5.6c-1.28,2.94-2.43,5.93-3.6,8.91C75.4,716,74.9,717.58,74.17,719.69Z"/><path class="cls-1" d="M111,707.73c1.09.08,2.4,2,2,2.82-.08.17-.71.33-.76.25a21.54,21.54,0,0,1-1.6-2.42C110.62,708.25,110.93,707.9,111,707.73Z"/><path class="cls-1" d="M112.13,719.75a3.13,3.13,0,0,1,2,2.89c0,.18-.67.41-.69.38-.61-.85-1.21-1.71-1.73-2.61C111.67,720.29,112,719.93,112.13,719.75Z"/><path class="cls-1" d="M111.37,728.89l-1-1.12c.32-.19.65-.55.94-.51s.57.44.86.69Z"/><path class="cls-1" d="M102.44,714.09c-.22.36-.35.55-.47.74a3,3,0,0,1-.67-.53c0-.08.2-.54.3-.53A2.88,2.88,0,0,1,102.44,714.09Z"/><path class="cls-1" d="M91.61,711.81c-.22.33-.34.72-.55.78a.88.88,0,0,1-.77-.34,2.66,2.66,0,0,1-.21-2.73c.06-.12.58-.15.6-.11C91,710.19,91.3,711,91.61,711.81Z"/><path class="cls-1" d="M80.53,709.34c.5-.46.84-.8,1.23-1.09,0,0,.58.46.54.58a8.51,8.51,0,0,1-.77,1.38Z"/><path class="cls-1" d="M152.31,824c-4.13-2.48-8.37-4.71-12.08-7.78a34.79,34.79,0,0,1-7.86-9.15,14.93,14.93,0,0,1-1.73-4.33,7,7,0,0,1,4.38-8.2,15.49,15.49,0,0,1,7.77-.94,69,69,0,0,1,16.55,4c7.63,2.79,14.62,6.87,21.49,11.13a6.79,6.79,0,0,1,2.52,2.87c1.06,2.12,2.65,4,3.93,6a25.25,25.25,0,0,1,1.76,3.53c1.44,3.4.51,6.15-2.85,8.53a12,12,0,0,1-5.81,1.93A29.57,29.57,0,0,1,167,829.89C162,828.07,157.2,826,152.31,824Zm.51-1.51c4.11,1.77,7.86,3.47,11.68,5a35.2,35.2,0,0,0,13,2.74,14.82,14.82,0,0,0,7.21-1.44c3.31-1.76,4.32-4.2,2.77-7.6a59.18,59.18,0,0,0-3.86-6.6A20.49,20.49,0,0,0,177,808.1c-6.95-4.28-14.11-8.3-22.08-10.43-4-1.09-8.19-1.84-12.32-2.58a12.17,12.17,0,0,0-7,.83,5.49,5.49,0,0,0-3.47,6.6,11.81,11.81,0,0,0,1.33,3.44,31.89,31.89,0,0,0,9.39,10.38C146.11,818.6,149.65,820.57,152.82,822.5Z"/><path class="cls-1" d="M140,803c.95-3,3.29-3.22,5.79-3.3a29.69,29.69,0,0,1,9.93,1.74,68.63,68.63,0,0,1,16,7.08,99.33,99.33,0,0,1,8.46,6,15,15,0,0,1,3,3.57,4.47,4.47,0,0,1,.3,5.12c-.38.63-.5,1,.45,1.15a.85.85,0,0,1,.5.65,1.17,1.17,0,0,1-.61.67,2.1,2.1,0,0,1-1,.13,33,33,0,0,1-11.62-2c-4.66-1.89-9.45-3.48-13.79-6.07-4.94-3-9.88-5.93-14.64-9.16-1.72-1.17-3-3-4.3-4.71a4.82,4.82,0,0,1-.82-2.28,1.32,1.32,0,0,1,.68-1.11c.59-.19.76.35.8.91a8.27,8.27,0,0,0,.35,1.34ZM168,807.8c-3.53-1.45-6.54-2.8-9.63-3.92a55.76,55.76,0,0,0-8-2.37,35,35,0,0,0-6.4-.27c-1.77,0-2.26,1.45-2.81,2.73s.53,1.62,1.15,2.2a21.58,21.58,0,0,0,3.19,2.71c3.48,2.21,7,4.29,10.56,6.42a84.45,84.45,0,0,0,13.67,6.37,32.56,32.56,0,0,0,9.54,2.46,2.88,2.88,0,0,0,3-1.66A3,3,0,0,0,182,819a20.61,20.61,0,0,0-3.92-4.39C174.71,812.07,171.12,809.87,168,807.8Z"/><path class="cls-1" d="M77.1,145.16a2,2,0,0,0-1.92-1.47h-.86a1.8,1.8,0,0,0-2.55.12A3.37,3.37,0,0,0,73,149.3,3.34,3.34,0,0,0,77.1,145.16Z"/><path class="cls-1" d="M102.51,162.63H102c-2.56,0-2.57,4,0,4h.5C105.07,166.61,105.08,162.63,102.51,162.63Z"/><path class="cls-1" d="M129.28,125.84a2,2,0,0,0-1,3.1,1.68,1.68,0,0,0-.15.8c.3,3.41,5.11,4.35,6.31.94C135.58,127.43,132.25,125.05,129.28,125.84Z"/><path class="cls-1" d="M70.3.59l-.5.49C68,2.9,70.81,5.72,72.62,3.9c.17-.16.33-.33.5-.5C74.94,1.59,72.12-1.23,70.3.59Z"/><path class="cls-1" d="M180.53,30.15l-.5,1c-1.15,2.28,2.29,4.3,3.44,2,.17-.33.34-.67.5-1C185.12,29.88,181.68,27.86,180.53,30.15Z"/><path class="cls-1" d="M212.57.6a1.52,1.52,0,0,0-.84.17,2.07,2.07,0,0,0-1.6,3.42c1.18,1.29,3.37,1.72,4.39,0A2.36,2.36,0,0,0,212.57.6Z"/><path class="cls-1" d="M154.32,230.49a2.14,2.14,0,0,0-.71.41,1.87,1.87,0,0,0-1.37,2.88,3.88,3.88,0,0,0,5.07,1.39,2,2,0,0,0,1-1.72A3.08,3.08,0,0,0,154.32,230.49Z"/><path class="cls-1" d="M77.11,427.78a3.09,3.09,0,0,0-2.76-1.4,2.1,2.1,0,0,0-3.3.18,4.49,4.49,0,0,0,0,4.89,3.46,3.46,0,0,0,4.87,1A3.53,3.53,0,0,0,77.11,427.78Z"/><path class="cls-1" d="M111,644.28h-.5c-2.57,0-2.57,4,0,4h.5C113.54,648.27,113.54,644.28,111,644.28Z"/><path class="cls-1" d="M76.66,777a3.94,3.94,0,0,0-5.84,3.28,1.88,1.88,0,0,0,2.86,1.67,2,2,0,0,0,2.67-.67l1-1.55A2,2,0,0,0,76.66,777Z"/><path class="cls-1" d="M114,825.22c-2,.42-1.72,2.84-.33,3.63a1.94,1.94,0,0,0,1.25,1.13,2,2,0,0,0,2.45-1.39A2.76,2.76,0,0,0,114,825.22Z"/><path class="cls-1" d="M186.91,774.7a2.11,2.11,0,0,0-2.12-1.42,1.65,1.65,0,0,0-1.69,1,7,7,0,0,0,0,6.51,2,2,0,0,0,3.44,0A7.25,7.25,0,0,0,186.91,774.7Z"/><path class="cls-1" d="M79.15,253.65l-1.23-.71a1,1,0,0,0-1.42.61,1.36,1.36,0,0,0-.25.36,1.28,1.28,0,0,0,.43,1.62,2.51,2.51,0,0,0,2.47-.16A1,1,0,0,0,79.15,253.65Z"/><path class="cls-1" d="M65.15,193.15l-1,.5c-1.15.57-.14,2.29,1,1.72l1-.5C67.3,194.29,66.29,192.57,65.15,193.15Z"/><path class="cls-1" d="M69.93,104.14l-.5.5a1,1,0,0,0,1.41,1.41l.49-.5A1,1,0,0,0,69.93,104.14Z"/><path class="cls-1" d="M132.31,4.38A2.19,2.19,0,0,0,130,5.88,1,1,0,0,0,130.42,7a2.64,2.64,0,0,0,3.8-2.27C134.27,3.59,132.69,3.47,132.31,4.38Z"/><path class="cls-1" d="M163.17,210.44l-.06,1c-.07,1.28,1.92,1.28,2,0l.06-1C165.23,209.16,163.24,209.16,163.17,210.44Z"/><path class="cls-1" d="M117.67,488.19l-1.44,1.46a1,1,0,0,0,1,1.66.92.92,0,0,0,.76-.11,2.93,2.93,0,0,0,1.43-2.3C119.49,488,118.22,487.64,117.67,488.19Z"/><path class="cls-1" d="M81.84,536.29c-.67-.12-1.43.37-1.13,1.17a1.23,1.23,0,0,0,2.37,0C83.36,536.6,82.52,536.11,81.84,536.29Z"/><path class="cls-1" d="M67.54,514.56a2.82,2.82,0,0,0-2.29-.76,1,1,0,0,0-1,1A3.65,3.65,0,0,0,65.5,518a1,1,0,0,0,1.4,0,2.94,2.94,0,0,0,.78-2.21A.83.83,0,0,0,67.54,514.56Z"/><path class="cls-1" d="M84.1,669.26a.83.83,0,0,0-1.3.38,1.68,1.68,0,0,0-.4-.06,1,1,0,0,0-1,.74,2.15,2.15,0,0,0,.26,1.43.86.86,0,0,0,1,.86,1.65,1.65,0,0,0,1.3-.07A1.93,1.93,0,0,0,84.1,669.26Z"/><path class="cls-1" d="M122.44,780.83a1.61,1.61,0,0,1-.51-.07c-.15-1-1.31-1.75-2.16-.78-1.42,1.62,1.36,2.93,2.67,2.84S123.72,780.74,122.44,780.83Z"/><path class="cls-1" d="M82.23,824.48c-3,.79-2.16,5,.8,5a1,1,0,0,0,.54-.18.87.87,0,0,0,.56-.15C86.39,827.56,85.11,823.72,82.23,824.48Z"/><path class="cls-1" d="M215.12,807.87c-.2-.89-.18-1.94-1-2.51a1.89,1.89,0,0,0-2.32,0c-1.31,1.15-.06,3.22,1.47,3.13C213.64,809.59,215.39,809.08,215.12,807.87Z"/></svg>