<?xml version="1.0" encoding="utf-8"?>
<!-- Generator: Adobe Illustrator 24.0.1, SVG Export Plug-In . SVG Version: 6.00 Build 0)  -->
<svg version="1.1" id="Layer_1" xmlns="http://www.w3.org/2000/svg" xmlns:xlink="http://www.w3.org/1999/xlink" x="0px" y="0px"
	 viewBox="0 0 237.6 43.2" style="enable-background:new 0 0 237.6 43.2;" xml:space="preserve">
<style type="text/css">
	.st0{fill:#FFC21F;}
</style>
<g id="XMLID_530_">
	<path id="XMLID_1_" class="st0" d="M206.93,24.85c-1.22-1.43-2.58-2.56-4.02-3.47c0.62-1.15,0.95-2.59,0.87-4.4
		c-0.4-9.2-14.45-8.58-20.82-8.73c-16.04-0.39-32.08,1.65-48.14,1.5c-32.27-0.29-64.36-3.31-96.5,0.93
		c-2.65,0.35-3.46,2.44-2.99,4.43c-1.42,0.74-2.78,1.7-4.07,2.92c-2.1,1.98-1.37,4.95,0.64,6.39c-0.17,0.7-0.21,1.45-0.1,2.19
		c1.33,9.14,20.15,7.31,26.31,7.68c17.58,1.03,35.2,0.65,52.79,0.47c17.06-0.18,34.12-0.36,51.18-0.54
		c8.53-0.09,17.06-0.18,25.59-0.27c6.53-0.07,12.53,0.56,18.38-2.46C208.7,30.13,208.63,26.83,206.93,24.85z"/>
	<path id="XMLID_536_" class="st0" d="M27.03,16.03c-0.25-0.49-0.81-0.78-1.38-0.37c-0.74,0.54-1.19,1.38-0.78,2.29
		c0.37,0.83,1.37,1.16,2.19,0.78C28.42,18.13,28,16.56,27.03,16.03z"/>
	<path id="XMLID_535_" class="st0" d="M20.94,23.32c-0.46-0.29-1.14-0.31-1.54,0.26c-0.49,0.69-0.45,1.46-0.09,2.19
		c0.27,0.57,1.26,0.73,1.66,0.21c0.22-0.28,0.44-0.56,0.65-0.84C22.21,24.4,21.63,23.44,20.94,23.32z"/>
	<path id="XMLID_534_" class="st0" d="M28.52,26.85c-0.09-0.09-0.18-0.18-0.26-0.26c-0.96-0.96-2.46,0.53-1.5,1.5l0.26,0.26
		C27.98,29.31,29.48,27.81,28.52,26.85z"/>
	<path id="XMLID_533_" class="st0" d="M213.02,17.31c-0.06-0.33-0.41-0.68-0.74-0.74c-0.14-0.03-0.27-0.03-0.4-0.04
		c-0.46-0.42-1.22-0.5-1.58,0.21c-0.09,0.18-0.15,0.35-0.2,0.53c-0.2,0.25-0.24,0.52-0.15,0.78c-0.03,0.53,0.09,1.06,0.38,1.59
		c0.29,0.53,0.94,0.62,1.45,0.38C212.84,19.5,213.24,18.42,213.02,17.31z"/>
	<path id="XMLID_532_" class="st0" d="M218.53,23.94c-0.12-0.65-0.67-0.85-1.17-0.72c-0.5-0.11-1.07,0.08-1.27,0.7
		c-0.26,0.8,0.28,1.77,1.19,1.77C218.25,25.68,218.68,24.78,218.53,23.94z"/>
	<path id="XMLID_531_" class="st0" d="M213.62,28.17c-0.68,0.14-1.11,0.58-1.26,1.26c-0.27,1.27,1.56,1.82,1.97,0.72
		C215.44,29.73,214.88,27.91,213.62,28.17z"/>
</g>
</svg>
